<svg width="46" height="30" viewBox="0 0 46 30" fill="none" xmlns="http://www.w3.org/2000/svg">
<path d="M35.1112 28.9583L33.018 27.8699C31.9546 27.2457 30.9713 26.5399 30.0158 25.7634L28.9801 24.876C27.2688 23.305 25.8817 21.5134 24.7305 19.493C24.2766 18.6964 23.7593 17.8585 23.4623 16.985L22.4763 16.9941L20.3758 20.8122C18.1059 24.28 13.0051 28.5162 8.92281 29.3608C8.48813 29.4507 7.96215 29.2165 7.84482 28.7571C7.78435 28.5203 7.83301 28.258 7.78473 28.0134C7.52621 26.7034 6.63193 25.8381 5.75884 24.8903C4.92259 23.9826 4.23109 22.6936 3.99188 21.4809L3.98677 21.454C2.39428 21.4005 1.94354 20.3165 1.52308 18.9198C1.26219 18.0531 1.12632 17.2139 1.04336 16.3154L0.975586 13.2974C0.981239 12.8594 1.03608 12.4023 1.09048 11.9674C1.21182 10.9974 1.88776 8.44516 2.88109 7.97252L2.91533 7.95673C3.49897 7.6833 3.89453 7.86729 4.46893 8.00309C4.78993 6.73315 5.25395 5.52626 6.18179 4.56916C7.17779 3.5418 7.5984 3.10151 8.17473 1.77195C8.40418 1.24263 8.48588 0.681961 9.15357 0.571289C9.50584 0.591258 9.85623 0.667429 10.2024 0.734508C14.8396 1.63282 18.4514 4.22369 20.8521 8.21932L21.6026 9.50777C21.7364 9.7429 21.8985 9.98018 21.9974 10.2323L22.0051 10.2529C22.5512 10.1566 23.1849 10.0707 23.7331 10.2059C23.9633 10.2626 23.9433 10.2814 24.0543 10.0714C26.2348 5.94776 28.8399 3.06115 33.3362 1.4103C34.0074 1.16388 36.5615 0.35918 37.1226 0.635555C37.3135 0.729633 37.4618 0.875695 37.5278 1.08209C38.1303 2.96468 38.4947 3.27495 39.8039 4.53021C40.3801 5.08263 40.7542 5.76607 41.0921 6.48016L41.5844 7.86152C41.6625 8.0598 42.0868 7.81441 42.2986 7.79266C43.6131 7.65771 44.1131 9.19427 44.4844 10.1752L44.6646 10.7799C45.0075 11.8045 45.0278 13.5941 45.0286 14.6532C45.0301 16.531 44.8524 18.2999 44.0348 20.033C43.5409 21.0799 43.1115 21.6494 41.8761 21.326L41.0074 21.0987L40.6546 22.2986C39.9472 24.3544 38.0415 26.0907 37.7214 28.0759C37.5579 29.0903 37.4784 29.7307 36.3113 29.4051C35.9 29.2904 35.4976 29.1401 35.1112 28.9583ZM36.3729 1.92659C32.6613 2.6914 29.1148 4.60348 26.9873 7.81709L25.4476 10.2751C25.3834 10.3831 25.0761 10.82 25.0936 10.913C25.6399 11.4931 25.8424 12.0964 25.8859 12.8953L28.272 12.0697L40.3697 8.35765C40.048 7.31346 39.6908 6.27673 38.8951 5.48721C37.8015 4.40191 37.2553 3.99129 36.6374 2.44423C36.5847 2.31213 36.5184 2.01654 36.4299 1.9233L36.3729 1.92659ZM9.55543 1.93727C8.73892 3.8989 8.26407 4.21957 6.94402 5.68737C6.29659 6.40727 5.92951 7.47419 5.71524 8.40255L17.8263 12.1479L20.0501 12.9641C20.0866 12.4843 20.1002 12.0667 20.2974 11.6186L20.3153 11.5774C20.4401 11.2959 20.6342 11.0824 20.8629 10.8822L19.2948 8.23798C17.1512 5.08329 14.3536 3.0769 10.5984 2.15613L9.55543 1.93727ZM42.418 9.08173C42.1097 9.13263 41.7959 9.2487 41.5019 9.35412L35.8406 11.3824L33.6646 12.0434L30.2542 12.8457L26.5596 14.0416C26.581 14.0928 26.8815 14.2301 26.9432 14.2555L31.6235 16.4299L35.8259 18.062L40.8831 19.6905C41.4039 19.8482 41.9431 20.0092 42.4771 20.1139C43.5591 18.2399 43.7396 16.5462 43.7401 14.3859C43.7404 12.7513 43.6187 11.021 42.7979 9.56665C42.7288 9.44412 42.5823 9.0657 42.418 9.08173ZM3.50396 9.12134C2.90662 9.96148 2.573 10.8626 2.4287 11.8727C2.16351 13.7291 2.08183 18.4459 3.4476 19.9974C3.93578 20.5519 7.07738 19.4221 7.67077 19.2075L9.61862 18.4422L14.4377 16.1434L19.2667 14.3545C19.3925 14.3101 19.51 14.2528 19.6436 14.238C19.5074 14.0801 18.9826 13.9278 18.7875 13.8558L13.6475 12.124L6.15165 9.8523C5.27284 9.61109 4.39787 9.29895 3.50396 9.12134ZM22.6466 11.4929C21.865 11.6122 21.3843 12.0575 21.3815 12.8531L21.3804 14.408C21.3809 14.6208 21.3354 14.8433 21.4619 15.0274L21.5063 15.0934C21.6436 15.2954 21.9419 15.6319 22.2063 15.6711L23.3635 15.6792C24.4063 15.6838 24.5741 14.8882 24.5724 14.0066L24.57 13.1943C24.5668 11.9705 24.2454 11.5024 22.9299 11.5005C22.8362 11.5004 22.7393 11.4798 22.6466 11.4929ZM25.8128 15.1587C25.5725 15.781 25.3097 16.2326 24.735 16.6151C25.952 19.3918 27.6541 21.8657 29.88 23.9175L30.6216 24.5941C32.2208 25.9427 34.4349 27.3137 36.4116 28.0887C36.4808 27.478 36.656 26.9275 36.8893 26.361C37.83 24.2741 39.1878 23.1656 39.7217 20.7093C39.2402 20.5055 38.711 20.3775 38.2131 20.2158L35.3737 19.2767C32.6809 18.3784 30.067 17.236 27.5223 15.982L26.4313 15.4668C26.2282 15.372 26.0024 15.2777 25.8128 15.1587ZM20.2418 15.4257L14.6938 17.4743L12.5471 18.4689C11.468 19.0074 10.4078 19.5723 9.28623 20.0213L6.42142 21.0205C6.13257 21.1082 5.54288 21.1816 5.31779 21.282C5.47482 22.4637 6.34806 23.6055 7.12993 24.4496C7.56746 24.922 8.00879 25.3458 8.3394 25.9064C8.42387 26.062 8.52502 26.2253 8.59093 26.3882L8.76957 26.8087C8.9289 27.1693 8.9942 27.5756 9.06681 27.96C10.0445 27.7005 10.9604 27.2354 11.8449 26.7534C15.1353 24.9604 18.0366 22.2926 19.9234 19.0486L20.9662 17.0622C21.0381 16.9121 21.1517 16.7343 21.1877 16.5744C20.7271 16.2854 20.433 15.9352 20.2418 15.4257Z" fill="black"/>
</svg>
