<svg width="24" height="27" viewBox="0 0 24 27" fill="none" xmlns="http://www.w3.org/2000/svg">
<path fill-rule="evenodd" clip-rule="evenodd" d="M18.2464 5.75976C17.8243 5.85113 17.2504 6.06492 16.4144 6.37842L9.75928 8.8741C8.68507 9.27692 7.90664 9.5692 7.34991 9.82715C6.77534 10.0934 6.53844 10.2804 6.44389 10.4236C6.11311 10.9248 6.11311 11.575 6.44389 12.0762C6.53844 12.2194 6.77534 12.4064 7.34991 12.6727C7.90664 12.9306 8.68507 13.2229 9.75928 13.6257L9.90414 13.68C9.91727 13.685 9.93022 13.6898 9.943 13.6946C10.2366 13.8046 10.4392 13.8806 10.6216 13.9866C11.0485 14.2348 11.3924 14.6039 11.6098 15.0472C11.7027 15.2366 11.7641 15.4442 11.8531 15.7447C11.857 15.7578 11.8609 15.7711 11.8649 15.7846C12.1437 16.7254 12.3475 17.4128 12.5216 17.9093C12.7036 18.4282 12.8258 18.6509 12.9065 18.7368C13.4989 19.3675 14.5007 19.3675 15.0931 18.7368C15.1738 18.6509 15.296 18.4282 15.478 17.9093C15.6521 17.4128 15.8559 16.7254 16.1347 15.7846L18.3793 8.20904C18.633 7.35298 18.8057 6.76548 18.867 6.3379C18.9289 5.90639 18.8502 5.81185 18.8113 5.77558C18.7723 5.7393 18.6725 5.66754 18.2464 5.75976ZM18.0349 4.78239C18.5422 4.67259 19.0789 4.65811 19.493 5.04391C19.9071 5.42971 19.9305 5.96609 19.8569 6.47986C19.7839 6.98887 19.5888 7.64721 19.3503 8.45187L19.3381 8.49313L17.0935 16.0687L17.0891 16.0837C16.8156 17.0065 16.6049 17.7176 16.4216 18.2402C16.2452 18.7433 16.0663 19.1614 15.822 19.4214C14.8346 20.4726 13.165 20.4726 12.1776 19.4214C11.9333 19.1614 11.7544 18.7433 11.578 18.2402C11.3947 17.7176 11.184 17.0065 10.9105 16.0836L10.9061 16.0687C10.8008 15.7133 10.7631 15.5919 10.7119 15.4875C10.5815 15.2215 10.3752 15 10.119 14.8511C10.0185 14.7927 9.90003 14.7465 9.55302 14.6164L9.40816 14.562L9.38638 14.5539C8.33844 14.1609 7.52455 13.8557 6.92952 13.58C6.34823 13.3107 5.87288 13.0264 5.60928 12.627C5.05798 11.7917 5.05798 10.7081 5.60928 9.8728C5.87288 9.4734 6.34823 9.18913 6.92952 8.91981C7.52455 8.64412 8.33844 8.33891 9.38638 7.94593L9.40815 7.93777L16.0633 5.44209L16.1036 5.42696C16.8894 5.13227 17.5323 4.89117 18.0349 4.78239Z" fill="black"/>
<path d="M16.4144 6.37842L16.2389 5.91025L16.4144 6.37842ZM18.2464 5.75976L18.1407 5.27107L18.1407 5.27107L18.2464 5.75976ZM9.75928 8.8741L9.58372 8.40593H9.58372L9.75928 8.8741ZM7.34991 9.82715L7.56011 10.2808L7.34991 9.82715ZM6.44389 10.4236L6.02658 10.1482H6.02658L6.44389 10.4236ZM6.44389 12.0762L6.02658 12.3516L6.02658 12.3516L6.44389 12.0762ZM7.34991 12.6727L7.13972 13.1263H7.13972L7.34991 12.6727ZM9.75928 13.6257L9.58372 14.0939L9.75928 13.6257ZM9.90414 13.68L10.0797 13.2119L10.0797 13.2119L9.90414 13.68ZM9.943 13.6946L10.1185 13.2264H10.1185L9.943 13.6946ZM10.6216 13.9866L10.873 13.5544L10.873 13.5544L10.6216 13.9866ZM11.6098 15.0472L11.1608 15.2673L11.1608 15.2673L11.6098 15.0472ZM11.8531 15.7447L11.3737 15.8867L11.3737 15.8867L11.8531 15.7447ZM11.8649 15.7846L12.3443 15.6425L12.3443 15.6425L11.8649 15.7846ZM12.5216 17.9093L12.9934 17.7438L12.9934 17.7438L12.5216 17.9093ZM12.9065 18.7368L12.542 19.0791L12.542 19.0791L12.9065 18.7368ZM15.0931 18.7368L15.4576 19.0791L15.4576 19.0791L15.0931 18.7368ZM15.478 17.9093L15.9498 18.0748L15.478 17.9093ZM16.1347 15.7846L16.6141 15.9266L16.1347 15.7846ZM18.3793 8.20904L18.8587 8.35109V8.35109L18.3793 8.20904ZM18.867 6.3379L18.372 6.26692V6.26693L18.867 6.3379ZM18.8113 5.77558L19.1521 5.40975L19.1521 5.40974L18.8113 5.77558ZM19.493 5.04391L19.1521 5.40974V5.40974L19.493 5.04391ZM18.0349 4.78239L17.9291 4.2937V4.2937L18.0349 4.78239ZM19.8569 6.47986L19.3619 6.40888V6.40888L19.8569 6.47986ZM19.3503 8.45187L19.8297 8.59394L19.8297 8.59393L19.3503 8.45187ZM19.3381 8.49313L18.8587 8.35107L18.8587 8.35109L19.3381 8.49313ZM17.0935 16.0687L16.6141 15.9266L16.6141 15.9266L17.0935 16.0687ZM17.0891 16.0837L17.5684 16.2257L17.5685 16.2257L17.0891 16.0837ZM16.4216 18.2402L16.8935 18.4057L16.8935 18.4057L16.4216 18.2402ZM15.822 19.4214L15.4576 19.0791L15.822 19.4214ZM12.1776 19.4214L12.542 19.0791L12.1776 19.4214ZM11.578 18.2402L12.0498 18.0748L12.0498 18.0747L11.578 18.2402ZM10.9105 16.0836L11.3899 15.9416L11.3899 15.9416L10.9105 16.0836ZM10.9061 16.0687L10.4267 16.2107L10.4267 16.2107L10.9061 16.0687ZM10.7119 15.4875L11.1608 15.2673L11.1608 15.2673L10.7119 15.4875ZM10.119 14.8511L10.3703 14.4189L10.3703 14.4189L10.119 14.8511ZM9.55302 14.6164L9.37746 15.0845H9.37746L9.55302 14.6164ZM9.40816 14.562L9.58372 14.0939L9.58371 14.0939L9.40816 14.562ZM9.38638 14.5539L9.21082 15.022L9.21082 15.022L9.38638 14.5539ZM6.92952 13.58L7.13972 13.1263H7.13972L6.92952 13.58ZM5.60928 12.627L5.19197 12.9024H5.19197L5.60928 12.627ZM5.60928 9.8728L6.02658 10.1482H6.02658L5.60928 9.8728ZM6.92952 8.91981L6.71932 8.46614H6.71932L6.92952 8.91981ZM9.38638 7.94593L9.56194 8.4141L9.56194 8.4141L9.38638 7.94593ZM9.40815 7.93777L9.23259 7.4696L9.40815 7.93777ZM16.0633 5.44209L16.2389 5.91025L16.2389 5.91025L16.0633 5.44209ZM16.1036 5.42696L16.2792 5.89512L16.2792 5.89512L16.1036 5.42696ZM16.59 6.84658C17.4423 6.52696 17.9746 6.33017 18.3522 6.24844L18.1407 5.27107C17.6739 5.3721 17.0586 5.60287 16.2389 5.91025L16.59 6.84658ZM9.93484 9.34226L16.59 6.84658L16.2389 5.91025L9.58372 8.40593L9.93484 9.34226ZM7.56011 10.2808C8.09561 10.0327 8.85268 9.74807 9.93484 9.34226L9.58372 8.40593C8.51746 8.80578 7.71766 9.1057 7.13972 9.37348L7.56011 10.2808ZM6.86119 10.6991C6.85962 10.7014 6.88573 10.662 6.9996 10.5839C7.11129 10.5073 7.28711 10.4073 7.56011 10.2808L7.13972 9.37348C6.56305 9.64066 6.206 9.87636 6.02658 10.1482L6.86119 10.6991ZM6.86119 11.8007C6.64067 11.4666 6.64067 11.0332 6.86119 10.6991L6.02658 10.1482C5.58554 10.8165 5.58554 11.6833 6.02658 12.3516L6.86119 11.8007ZM7.56011 12.219C7.28711 12.0925 7.11129 11.9925 6.9996 11.9159C6.88573 11.8378 6.85962 11.7984 6.86119 11.8007L6.02658 12.3516C6.206 12.6234 6.56305 12.8591 7.13972 13.1263L7.56011 12.219ZM9.93484 13.1575C8.85268 12.7517 8.09561 12.4671 7.56011 12.219L7.13972 13.1263C7.71767 13.3941 8.51746 13.694 9.58372 14.0939L9.93484 13.1575ZM10.0797 13.2119L9.93484 13.1575L9.58372 14.0939L9.72858 14.1482L10.0797 13.2119ZM10.1185 13.2264C10.1057 13.2216 10.0928 13.2168 10.0797 13.2119L9.72858 14.1482C9.74176 14.1531 9.75475 14.158 9.76753 14.1628L10.1185 13.2264ZM10.873 13.5544C10.6467 13.4228 10.4006 13.3321 10.1185 13.2264L9.76753 14.1628C10.0726 14.2771 10.2318 14.3383 10.3703 14.4189L10.873 13.5544ZM12.0587 14.8271C11.7978 14.295 11.3852 13.8522 10.873 13.5544L10.3703 14.4189C10.7118 14.6174 10.9869 14.9127 11.1608 15.2673L12.0587 14.8271ZM12.3325 15.6028C12.247 15.314 12.1739 15.062 12.0587 14.8271L11.1608 15.2673C11.2314 15.4113 11.2812 15.5744 11.3737 15.8867L12.3325 15.6028ZM12.3443 15.6425C12.3403 15.6291 12.3364 15.6159 12.3325 15.6028L11.3737 15.8867C11.3775 15.8998 11.3815 15.9131 11.3855 15.9266L12.3443 15.6425ZM12.9934 17.7438C12.8244 17.2618 12.6247 16.5888 12.3443 15.6425L11.3855 15.9266C11.6627 16.8621 11.8706 17.5637 12.0498 18.0748L12.9934 17.7438ZM13.2709 18.3945C13.2826 18.407 13.2582 18.3838 13.2023 18.268C13.1499 18.1596 13.0809 17.9932 12.9934 17.7438L12.0498 18.0747C12.1443 18.3443 12.2273 18.5487 12.3018 18.7028C12.3726 18.8495 12.4496 18.9807 12.542 19.0791L13.2709 18.3945ZM14.7287 18.3945C14.3337 18.815 13.6659 18.815 13.2709 18.3945L12.542 19.0791C13.3319 19.9201 14.6677 19.9201 15.4576 19.0791L14.7287 18.3945ZM15.0062 17.7438C14.9187 17.9932 14.8497 18.1596 14.7973 18.268C14.7414 18.3838 14.717 18.407 14.7287 18.3945L15.4576 19.0791C15.55 18.9807 15.627 18.8495 15.6978 18.7028C15.7722 18.5487 15.8553 18.3443 15.9498 18.0748L15.0062 17.7438ZM15.6553 15.6425C15.3749 16.5888 15.1752 17.2618 15.0062 17.7438L15.9498 18.0748C16.129 17.5637 16.3369 16.8621 16.6141 15.9266L15.6553 15.6425ZM17.8999 8.067L15.6553 15.6425L16.6141 15.9266L18.8587 8.35109L17.8999 8.067ZM18.372 6.26693C18.3172 6.64937 18.1585 7.19423 17.8999 8.067L18.8587 8.35109C19.1074 7.51172 19.2941 6.8816 19.3619 6.40888L18.372 6.26693ZM18.4705 6.1414C18.4658 6.13705 18.4553 6.127 18.4435 6.11274C18.4315 6.09839 18.4206 6.08295 18.4114 6.06689C18.3928 6.03444 18.3876 6.01144 18.3871 6.0087C18.3868 6.00733 18.3903 6.02427 18.3899 6.06795C18.3894 6.11128 18.3851 6.17559 18.372 6.26692L19.3619 6.40888C19.3967 6.16602 19.3999 5.97022 19.3668 5.80836C19.3278 5.61783 19.2427 5.4941 19.1521 5.40975L18.4705 6.1414ZM18.3522 6.24844C18.4424 6.22892 18.5062 6.22009 18.5494 6.21658C18.593 6.21305 18.6101 6.21538 18.6087 6.2152C18.6059 6.21483 18.5826 6.2113 18.549 6.19502C18.5323 6.18696 18.5161 6.17724 18.501 6.16632C18.4859 6.15546 18.4751 6.14577 18.4705 6.14141L19.1521 5.40974C19.0616 5.32539 18.9321 5.24917 18.7393 5.22376C18.5755 5.20218 18.3805 5.21917 18.1407 5.27107L18.3522 6.24844ZM19.8338 4.67808C19.2314 4.11681 18.4752 4.17551 17.9291 4.2937L18.1407 5.27107C18.6091 5.16968 18.9264 5.19942 19.1521 5.40974L19.8338 4.67808ZM20.3518 6.55083C20.4311 5.99777 20.4362 5.23936 19.8338 4.67808L19.1521 5.40974C19.3779 5.62007 19.43 5.93441 19.3619 6.40888L20.3518 6.55083ZM19.8297 8.59393C20.0638 7.80413 20.2724 7.10458 20.3518 6.55083L19.3619 6.40888C19.2953 6.87317 19.1138 7.4903 18.8709 8.30982L19.8297 8.59393ZM19.8175 8.6352L19.8297 8.59394L18.8709 8.30981L18.8587 8.35107L19.8175 8.6352ZM17.5729 16.2107L19.8175 8.63518L18.8587 8.35109L16.6141 15.9266L17.5729 16.2107ZM17.5685 16.2257L17.5729 16.2107L16.6141 15.9266L16.6096 15.9417L17.5685 16.2257ZM16.8935 18.4057C17.0818 17.8686 17.2966 17.1434 17.5684 16.2257L16.6097 15.9416C16.3347 16.8697 16.128 17.5666 15.9498 18.0748L16.8935 18.4057ZM16.1865 19.7637C16.5121 19.417 16.7194 18.902 16.8935 18.4057L15.9498 18.0747C15.771 18.5846 15.6204 18.9058 15.4576 19.0791L16.1865 19.7637ZM11.8131 19.7637C12.998 21.0252 15.0016 21.0252 16.1865 19.7637L15.4576 19.0791C14.6677 19.9201 13.3319 19.9201 12.542 19.0791L11.8131 19.7637ZM11.1061 18.4057C11.2802 18.902 11.4875 19.417 11.8131 19.7637L12.542 19.0791C12.3792 18.9058 12.2286 18.5846 12.0498 18.0748L11.1061 18.4057ZM10.4311 16.2257C10.703 17.1434 10.9178 17.8686 11.1061 18.4057L12.0498 18.0747C11.8715 17.5665 11.6649 16.8697 11.3899 15.9416L10.4311 16.2257ZM10.4267 16.2107L10.4311 16.2257L11.3899 15.9416L11.3855 15.9266L10.4267 16.2107ZM10.263 15.7076C10.2911 15.7651 10.3161 15.8373 10.4267 16.2107L11.3855 15.9266C11.2856 15.5893 11.2351 15.4187 11.1608 15.2673L10.263 15.7076ZM9.86772 15.2834C10.0385 15.3827 10.176 15.5303 10.263 15.7076L11.1608 15.2673C10.9869 14.9127 10.7118 14.6174 10.3703 14.4189L9.86772 15.2834ZM9.37746 15.0845C9.7421 15.2213 9.81241 15.2512 9.86773 15.2834L10.3703 14.4189C10.2246 14.3341 10.058 14.2717 9.72858 14.1482L9.37746 15.0845ZM9.23259 15.0302L9.37746 15.0845L9.72858 14.1482L9.58372 14.0939L9.23259 15.0302ZM9.21082 15.022L9.2326 15.0302L9.58371 14.0939L9.56194 14.0857L9.21082 15.022ZM6.71932 14.0337C7.33549 14.3192 8.17047 14.6319 9.21082 15.022L9.56194 14.0857C8.50642 13.6899 7.7136 13.3922 7.13972 13.1263L6.71932 14.0337ZM5.19197 12.9024C5.53988 13.4296 6.13387 13.7624 6.71932 14.0337L7.13972 13.1263C6.56259 12.8589 6.20588 12.6233 6.02658 12.3516L5.19197 12.9024ZM5.19197 9.59738C4.53041 10.5997 4.53041 11.9001 5.19197 12.9024L6.02658 12.3516C5.58554 11.6833 5.58554 10.8165 6.02658 10.1482L5.19197 9.59738ZM6.71932 8.46614C6.13387 8.73739 5.53988 9.07024 5.19197 9.59738L6.02658 10.1482C6.20588 9.87655 6.56259 9.64087 7.13972 9.37348L6.71932 8.46614ZM9.21082 7.47777C8.17047 7.8679 7.33549 8.18065 6.71932 8.46614L7.13972 9.37348C7.7136 9.10758 8.50641 8.80992 9.56194 8.4141L9.21082 7.47777ZM9.23259 7.4696L9.21082 7.47777L9.56194 8.4141L9.58372 8.40593L9.23259 7.4696ZM15.8877 4.97392L9.23259 7.4696L9.58372 8.40593L16.2389 5.91025L15.8877 4.97392ZM15.9281 4.9588L15.8877 4.97393L16.2389 5.91025L16.2792 5.89512L15.9281 4.9588ZM17.9291 4.2937C17.3824 4.41204 16.6993 4.66955 15.9281 4.9588L16.2792 5.89512C17.0795 5.59499 17.6822 5.37029 18.1407 5.27107L17.9291 4.2937Z" fill="#55FE3A"/>
<path d="M11 15.1875L19 5.625" stroke="#55FE3A"/>
</svg>
