<svg width="24" height="24" viewBox="0 0 24 24" fill="none" xmlns="http://www.w3.org/2000/svg">
<path fill-rule="evenodd" clip-rule="evenodd" d="M7.2352 6.75275L5.51493 7.18282C4.62459 7.4054 4 8.20537 4 9.12311V18C4 19.1046 4.89543 20 6 20H18C19.1046 20 20 19.1046 20 18V9.12311C20 8.20537 19.3754 7.4054 18.4851 7.18282L16.7648 6.75275L15.2265 4.4453C15.041 4.1671 14.7288 4 14.3944 4H9.60555C9.2712 4 8.95897 4.1671 8.7735 4.4453L7.2352 6.75275ZM6 5L5.02986 5.24254C3.24919 5.6877 2 7.28764 2 9.12311V18C2 20.2091 3.79086 22 6 22H18C20.2091 22 22 20.2091 22 18V9.12311C22 7.28763 20.7508 5.6877 18.9701 5.24254L18 5L16.8906 3.3359C16.3342 2.5013 15.3975 2 14.3944 2H9.60555C8.60249 2 7.6658 2.5013 7.1094 3.3359L6 5Z" fill="black"/>
<path fill-rule="evenodd" clip-rule="evenodd" d="M16 13C16 15.2091 14.2091 17 12 17C9.79086 17 8 15.2091 8 13C8 10.7909 9.79086 9 12 9C14.2091 9 16 10.7909 16 13ZM14 13C14 14.1046 13.1046 15 12 15C10.8954 15 10 14.1046 10 13C10 11.8954 10.8954 11 12 11C13.1046 11 14 11.8954 14 13Z" fill="black"/>
<path d="M17 11C17.5523 11 18 10.5523 18 10C18 9.44771 17.5523 9 17 9C16.4477 9 16 9.44771 16 10C16 10.5523 16.4477 11 17 11Z" fill="black"/>
</svg>
