<svg width="45" height="28" viewBox="0 0 45 28" fill="none" xmlns="http://www.w3.org/2000/svg">
<path d="M40.4596 6.55706C41.6509 7.75964 42.6592 9.00239 43.3427 10.576L43.6567 11.4101C43.9563 12.1788 44.1917 13.1337 44.2271 13.9597L44.2337 19.5347C44.2326 19.611 44.2423 19.7218 44.2198 19.795C43.9426 20.6946 42.1851 20.5728 41.5384 20.5785C39.8255 20.5937 38.1753 20.8978 36.5544 21.4488L28.3593 24.8843C22.4435 27.4467 19.0603 28.2075 12.8494 25.888L8.62108 24.1643C8.42571 24.0921 7.29255 23.6413 7.13294 23.6698C7.06282 23.6823 6.95444 23.7493 6.88741 23.7799L6.07113 24.165C4.9234 24.6855 3.74158 25.0458 2.47671 25.0453C1.57635 25.0449 0.45619 24.9201 0.128759 23.906C-0.135949 23.0862 0.239801 22.6468 0.873345 22.2405L1.48227 21.865C3.94671 20.409 7.60038 18.8802 10.3083 17.9708L10.9565 12.4119C11.8423 7.23835 16.4518 2.55638 21.5342 1.46564C22.3781 1.28452 24.1399 1.02534 25.0144 1.18659L25.1501 1.05413C25.4214 0.733689 25.6446 0.706829 26.0453 0.698767L27.457 0.692955C27.6206 0.693283 27.8945 0.662626 28.0449 0.721782L28.07 0.732236C28.2921 0.819189 28.4443 0.92447 28.5507 1.14497L28.5616 1.16794C28.6324 1.30331 28.6497 1.44258 28.6665 1.59183L32.6872 2.39438C33.3714 2.5575 36.7232 3.43931 37.0729 4.01761L37.0925 4.05075C37.2816 4.3628 37.1793 4.83178 36.8618 5.01966C36.4743 5.24892 36.0663 5.0085 35.6981 4.86413L34.7579 4.521C33.3783 4.06271 31.9745 3.71803 30.5551 3.41147L27.602 2.85858C27.3286 2.8208 27.0456 2.80238 26.7768 2.74008L29.3328 4.95675C31.1811 6.65395 33.5071 8.91998 34.4813 11.2927L34.956 12.7254C35.06 13.0298 35.0718 13.3557 35.1105 13.6717C35.2727 14.9961 33.849 14.9408 33.7178 14.1278L33.5841 13.1871C33.231 11.647 32.3299 10.2212 31.3175 9.02752L30.5532 8.19356C29.4476 6.99089 28.2469 5.88896 26.9989 4.83694C26.4557 4.37897 25.9273 3.83761 25.3237 3.45844L22.8416 16.3707C23.2569 16.2023 23.7942 16.1348 24.238 16.0613L26.49 15.7982L29.5136 15.7907C29.7427 15.8009 29.9696 15.8397 30.1982 15.8567L33.4657 16.0935L36.8517 16.466C38.8461 16.707 40.8441 16.9982 42.8049 17.4412C42.8749 16.4041 42.8552 14.5835 42.7208 13.5924C42.4403 11.5225 41.3076 9.50986 39.8868 8.01881C39.6837 7.80572 39.434 7.60364 39.2593 7.36894C38.9034 6.89063 39.3066 6.08944 39.9336 6.20785L39.9645 6.21408C40.1613 6.25149 40.3176 6.42628 40.4596 6.55706ZM23.6108 2.66649C23.0714 2.71097 22.5261 2.75841 21.9951 2.86599C17.3271 3.8115 13.3336 7.86197 12.413 12.5335C12.2476 13.3729 12.2896 14.2344 12.1749 15.0832C12.6288 15.2464 13.7052 15.6001 14.1539 15.6902C15.7336 16.2375 17.892 16.7448 19.508 17.0335C20.0946 17.1383 20.6194 17.2879 21.2055 17.1187L24.0463 2.65777L23.6108 2.66649ZM11.9563 16.5466L11.8428 17.4203C11.8211 17.563 11.7185 17.8403 11.7625 17.9709L14.7322 19.0351C19.3679 20.6228 20.8093 20.524 25.4316 19.6534L28.3998 19.1841L33.3035 18.7211L36.9186 18.7173C37.2062 18.7247 37.4844 18.7804 37.771 18.7902L40.8961 18.9102L42.4268 19.0797L42.7419 19.1106C42.7677 19.066 42.7648 19.0335 42.7516 18.9844L42.7301 18.9285C39.867 18.271 36.9626 17.9439 34.0466 17.636L31.3512 17.3806C30.8851 17.3385 30.3172 17.2854 29.8509 17.2662L28.8281 17.2508C27.2157 17.2459 23.7677 17.268 22.4252 18.072C21.4422 18.6607 21.3512 18.7586 20.0778 18.5976L18.5672 18.3351L14.3097 17.2395C13.5242 17.0156 12.7264 16.8206 11.9563 16.5466ZM11.0468 19.3008C9.40788 19.7524 7.25102 20.642 5.73119 21.3996C5.56816 21.4808 5.33079 21.5647 5.19312 21.678C7.27005 21.9697 9.90921 23.0206 11.802 23.8639C17.3594 26.34 20.484 26.4338 26.195 24.216L28.9056 23.0764L35.2184 20.3754C35.429 20.2984 35.6474 20.2615 35.858 20.1923L32.869 20.2049C32.6933 20.2141 32.5211 20.246 32.3461 20.2588L27.8708 20.7644L24.9967 21.2334C23.4565 21.5088 20.8857 21.9598 19.3206 21.7178L18.2025 21.5553C17.0406 21.3312 15.8662 20.9657 14.7462 20.5883L12.0761 19.6482C11.924 19.5937 11.1596 19.2752 11.0468 19.3008ZM3.28427 23.0748C2.69416 23.1261 2.18324 23.202 1.64248 23.457L1.62881 23.4922C1.90664 23.7176 2.84712 23.6093 3.17688 23.5797C3.77796 23.4936 4.26846 23.2825 4.83208 23.099L3.71566 23.0702C3.57593 23.0709 3.42119 23.0573 3.28427 23.0748Z" fill="black"/>
</svg>
