<svg width="330" height="190" viewBox="0 0 330 190" fill="none" xmlns="http://www.w3.org/2000/svg">
<path d="M0 10C0 4.47715 4.47715 0 10 0H320C325.523 0 330 4.47715 330 10V180C330 185.523 325.523 190 320 190H9.99999C4.47714 190 0 185.523 0 180V10Z" fill="#DCFBFF"/>
<path fill-rule="evenodd" clip-rule="evenodd" d="M330 180C330 182.761 328.881 185.261 327.071 187.071C325.261 188.881 322.761 190 320 190H10C9.97845 190 9.95691 190 9.93536 190C4.44226 189.965 3.05176e-05 185.501 3.05176e-05 180V10C3.05176e-05 6.04183 2.29971 2.62078 5.63583 1.00004C6.95462 0.359357 8.43536 0 10 0H82.593H320C325.523 0 330 4.47715 330 10L330 180Z" fill="url(#paint0_linear_667_644)"/>
<path d="M18.9119 38.152C19.4239 39.144 20.0319 39.896 20.7359 40.408C21.4559 40.92 22.2159 41.176 23.0159 41.176C24.1199 41.176 24.9759 40.928 25.5839 40.432C26.1919 39.92 26.4959 39.24 26.4959 38.392C26.4959 37.832 26.3279 37.36 25.9919 36.976C25.6719 36.592 25.2639 36.288 24.7679 36.064C24.2879 35.824 23.6159 35.544 22.7519 35.224C21.6479 34.824 20.7519 34.44 20.0639 34.072C19.3759 33.704 18.7919 33.184 18.3119 32.512C17.8319 31.84 17.5919 30.976 17.5919 29.92C17.5919 28.976 17.8319 28.152 18.3119 27.448C18.7919 26.744 19.4559 26.208 20.3039 25.84C21.1519 25.472 22.1199 25.288 23.2079 25.288C24.4399 25.288 25.5439 25.632 26.5199 26.32C27.5119 26.992 28.2479 28 28.7279 29.344L26.4479 30.16C26.1439 29.28 25.7119 28.624 25.1519 28.192C24.5919 27.744 23.9599 27.512 23.2559 27.496C22.3119 27.496 21.5519 27.72 20.9759 28.168C20.4159 28.6 20.1359 29.184 20.1359 29.92C20.1359 30.48 20.2959 30.952 20.6159 31.336C20.9519 31.72 21.3679 32.04 21.8639 32.296C22.3759 32.536 23.0559 32.816 23.9039 33.136C25.0079 33.568 25.8959 33.968 26.5679 34.336C27.2399 34.704 27.8159 35.224 28.2959 35.896C28.7759 36.552 29.0159 37.392 29.0159 38.416C29.0159 39.392 28.7759 40.256 28.2959 41.008C27.8159 41.76 27.1199 42.344 26.2079 42.76C25.3119 43.176 24.2559 43.384 23.0399 43.384C21.7439 43.384 20.5679 43.04 19.5119 42.352C18.4559 41.648 17.5519 40.64 16.7999 39.328L18.9119 38.152ZM34.9293 38.296C34.9293 39.16 35.1613 39.848 35.6253 40.36C36.0893 40.872 36.7053 41.128 37.4733 41.128C38.2893 41.128 38.9453 40.88 39.4413 40.384C39.9373 39.872 40.1773 39.184 40.1613 38.32V31.768L42.7293 31.768V43.216H40.1613V41.896C39.8093 42.328 39.3613 42.672 38.8173 42.928C38.2733 43.184 37.7133 43.312 37.1373 43.312C36.2253 43.312 35.4093 43.104 34.6893 42.688C33.9693 42.272 33.4013 41.696 32.9853 40.96C32.5853 40.208 32.3853 39.352 32.3853 38.392V31.768H34.9293V38.296ZM51.8579 41.128C52.7859 41.128 53.5219 40.8 54.0659 40.144C54.6259 39.472 54.9059 38.592 54.9059 37.504C54.9059 36.416 54.6259 35.544 54.0659 34.888C53.5219 34.216 52.7859 33.88 51.8579 33.88C51.2979 33.88 50.7699 34.04 50.2739 34.36C49.7939 34.68 49.4099 35.12 49.1219 35.68C48.8499 36.24 48.7139 36.848 48.7139 37.504C48.7139 38.16 48.8499 38.768 49.1219 39.328C49.4099 39.888 49.7939 40.328 50.2739 40.648C50.7699 40.968 51.2979 41.128 51.8579 41.128ZM46.1459 31.744H48.6899V33.424C49.1059 32.88 49.6339 32.464 50.2739 32.176C50.9139 31.888 51.4899 31.744 52.0019 31.744C53.0579 31.744 53.9939 31.992 54.8099 32.488C55.6419 32.968 56.2899 33.648 56.7539 34.528C57.2179 35.392 57.4499 36.384 57.4499 37.504C57.4499 38.624 57.2179 39.624 56.7539 40.504C56.2899 41.384 55.6419 42.072 54.8099 42.568C53.9939 43.048 53.0579 43.288 52.0019 43.288C51.4739 43.288 50.8899 43.144 50.2499 42.856C49.6259 42.568 49.1059 42.144 48.6899 41.584V48.28L46.1459 48.28V31.744ZM65.1753 43.264C64.1033 43.264 63.1513 43.024 62.3193 42.544C61.4873 42.048 60.8313 41.368 60.3513 40.504C59.8873 39.624 59.6553 38.632 59.6553 37.528C59.6553 36.408 59.8873 35.416 60.3513 34.552C60.8313 33.672 61.4873 32.992 62.3193 32.512C63.1513 32.016 64.1033 31.768 65.1753 31.768C66.6633 31.768 67.7753 32.144 68.5113 32.896C69.2473 33.632 69.7193 34.288 69.9273 34.864C70.2633 35.648 70.4313 36.584 70.4313 37.672C70.4313 37.96 70.4233 38.168 70.4073 38.296C70.4073 38.408 70.4073 38.48 70.4073 38.512L62.1513 38.512C62.2953 39.28 62.6553 39.904 63.2313 40.384C63.8073 40.864 64.4553 41.104 65.1753 41.104C65.9913 41.104 66.6233 40.944 67.0713 40.624C67.5193 40.304 67.8393 39.984 68.0313 39.664L70.0713 40.576C69.7513 41.312 69.1673 41.944 68.3193 42.472C67.4873 43 66.4393 43.264 65.1753 43.264ZM68.0073 36.496C67.8793 35.728 67.5833 35.112 67.1193 34.648C66.6553 34.168 66.0073 33.928 65.1753 33.928C64.4233 33.928 63.7673 34.168 63.2073 34.648C62.6473 35.128 62.2953 35.744 62.1513 36.496H68.0073ZM72.9991 31.768H75.5431V33.448C75.9271 32.904 76.4391 32.472 77.0791 32.152C77.7191 31.832 78.3751 31.688 79.0471 31.72V34.072C78.3911 34.04 77.7911 34.192 77.2471 34.528C76.7191 34.848 76.3031 35.28 75.9991 35.824C75.6951 36.368 75.5431 36.936 75.5431 37.528V43.216H72.9991V31.768ZM95.9868 43.384C94.2908 43.384 92.7788 43 91.4508 42.232C90.1388 41.464 89.1068 40.392 88.3548 39.016C87.6188 37.64 87.2508 36.08 87.2508 34.336C87.2508 32.576 87.6188 31.016 88.3548 29.656C89.1068 28.28 90.1388 27.208 91.4508 26.44C92.7788 25.672 94.2908 25.288 95.9868 25.288C97.1708 25.288 98.2908 25.52 99.3468 25.984C100.403 26.448 101.339 27.096 102.155 27.928L100.475 29.584C99.9308 28.944 99.2588 28.44 98.4588 28.072C97.6748 27.704 96.8428 27.52 95.9628 27.52C94.7468 27.52 93.6748 27.808 92.7468 28.384C91.8188 28.944 91.0988 29.744 90.5868 30.784C90.0748 31.808 89.8188 32.992 89.8188 34.336C89.8188 35.68 90.0748 36.872 90.5868 37.912C91.0988 38.936 91.8188 39.736 92.7468 40.312C93.6748 40.872 94.7468 41.152 95.9628 41.152C96.8588 41.152 97.6828 40.968 98.4348 40.6C99.1868 40.232 99.8348 39.744 100.379 39.136L102.155 40.744C100.395 42.52 98.3388 43.4 95.9868 43.384ZM109.657 43.312C108.617 43.312 107.681 43.064 106.849 42.568C106.033 42.072 105.393 41.392 104.929 40.528C104.465 39.648 104.233 38.656 104.233 37.552C104.233 36.448 104.465 35.464 104.929 34.6C105.393 33.72 106.033 33.032 106.849 32.536C107.681 32.04 108.617 31.792 109.657 31.792C110.249 31.792 110.833 31.928 111.409 32.2C111.985 32.472 112.497 32.872 112.945 33.4V31.768H115.489V43.216H112.945V41.68C112.513 42.224 112.009 42.632 111.433 42.904C110.857 43.176 110.265 43.312 109.657 43.312ZM106.777 37.552C106.777 38.624 107.057 39.496 107.617 40.168C108.177 40.824 108.913 41.152 109.825 41.152C110.385 41.152 110.905 41 111.385 40.696C111.865 40.376 112.249 39.944 112.537 39.4C112.825 38.84 112.969 38.224 112.969 37.552C112.969 36.88 112.825 36.272 112.537 35.728C112.249 35.168 111.865 34.736 111.385 34.432C110.905 34.112 110.385 33.952 109.825 33.952C108.913 33.952 108.177 34.28 107.617 34.936C107.057 35.592 106.777 36.464 106.777 37.552ZM118.491 31.768L121.035 31.768V33.448C121.419 32.904 121.931 32.472 122.571 32.152C123.211 31.832 123.867 31.688 124.539 31.72V34.072C123.883 34.04 123.283 34.192 122.739 34.528C122.211 34.848 121.795 35.28 121.491 35.824C121.187 36.368 121.035 36.936 121.035 37.528V43.216H118.491V31.768ZM131.291 43.312C130.251 43.312 129.315 43.064 128.483 42.568C127.651 42.072 127.003 41.392 126.539 40.528C126.075 39.648 125.843 38.648 125.843 37.528C125.843 36.408 126.075 35.416 126.539 34.552C127.003 33.672 127.651 32.984 128.483 32.488C129.315 31.992 130.251 31.744 131.291 31.744C131.835 31.744 132.411 31.88 133.019 32.152C133.643 32.424 134.179 32.856 134.627 33.448V26.056H137.171V43.216L134.627 43.216V41.608C134.163 42.184 133.619 42.616 132.995 42.904C132.387 43.176 131.819 43.312 131.291 43.312ZM128.387 37.552C128.387 38.64 128.667 39.52 129.227 40.192C129.787 40.848 130.531 41.176 131.459 41.176C132.035 41.176 132.563 41.016 133.043 40.696C133.523 40.376 133.907 39.944 134.195 39.4C134.483 38.84 134.627 38.224 134.627 37.552C134.627 36.896 134.483 36.288 134.195 35.728C133.907 35.168 133.515 34.728 133.019 34.408C132.539 34.088 132.019 33.928 131.459 33.928C130.531 33.928 129.787 34.264 129.227 34.936C128.667 35.592 128.387 36.464 128.387 37.552Z" fill="white"/>
<path d="M267.72 176.476C267.72 175.796 267.32 175.336 266.74 175.336C266.07 175.336 265.61 175.776 265.61 176.396V179.256H264.77V176.476C264.77 175.796 264.38 175.336 263.81 175.336C263.13 175.336 262.66 175.906 262.66 176.566V179.256H261.83V174.596H262.66V175.266C262.94 174.866 263.4 174.596 263.84 174.596C264.42 174.596 264.99 174.946 265.26 175.456C265.57 174.946 266.18 174.596 266.76 174.596C267.81 174.596 268.56 175.346 268.56 176.416V179.256H267.72V176.476ZM272.583 179.316C271.293 179.316 270.373 178.336 270.373 176.966C270.373 175.586 271.293 174.606 272.583 174.606C273.083 174.606 273.633 174.856 274.033 175.396V174.596H274.863V179.256H274.033V178.506C273.623 179.096 273.083 179.316 272.583 179.316ZM271.203 176.966C271.203 177.916 271.783 178.586 272.613 178.586C273.363 178.586 274.033 177.906 274.043 176.966C274.033 176.026 273.363 175.336 272.613 175.336C271.783 175.336 271.203 175.996 271.203 176.966ZM277.376 177.766C277.636 178.326 278.186 178.566 278.536 178.566C279.096 178.566 279.496 178.326 279.496 177.926C279.496 177.546 278.976 177.396 278.456 177.216C277.816 176.996 276.916 176.716 276.916 175.826C276.916 175.036 277.646 174.546 278.576 174.546C279.126 174.546 280.006 174.866 280.226 175.696L279.496 175.946C279.346 175.396 278.846 175.286 278.576 175.286C278.096 175.286 277.746 175.486 277.746 175.826C277.746 176.206 278.226 176.336 278.786 176.526C279.456 176.756 280.326 177.036 280.326 177.926C280.326 178.756 279.566 179.296 278.536 179.296C277.826 179.296 277.086 178.896 276.706 178.166L277.376 177.766ZM282.606 179.256V175.326H281.756V174.586H282.606V172.976H283.446V174.586H284.546V175.326H283.446V179.256H282.606ZM288.036 179.296C286.726 179.296 285.806 178.316 285.806 176.946C285.806 175.566 286.726 174.596 288.036 174.596C289.476 174.596 289.916 175.756 289.956 175.866C290.236 176.586 290.146 177.276 290.146 177.306H286.646C286.766 178.046 287.346 178.566 288.036 178.566C288.956 178.566 289.296 177.986 289.366 177.876L290.026 178.216C289.796 178.736 289.136 179.296 288.036 179.296ZM286.646 176.596L289.336 176.586C289.246 175.876 288.896 175.326 288.036 175.326C287.326 175.326 286.766 175.846 286.646 176.596ZM291.858 179.256V174.596H292.688V175.366C292.998 174.866 293.628 174.526 294.248 174.556V175.356C293.398 175.326 292.688 176.066 292.688 176.886V179.256H291.858ZM297.554 178.506C297.964 178.506 298.444 178.306 298.714 177.996L299.314 178.556C298.904 178.996 298.174 179.306 297.594 179.306C296.204 179.306 295.224 178.316 295.224 176.946C295.224 175.566 296.204 174.586 297.594 174.586C298.184 174.586 298.894 174.906 299.314 175.346L298.714 175.896C298.444 175.586 297.964 175.386 297.554 175.386C296.674 175.386 296.054 176.016 296.054 176.946C296.054 177.876 296.674 178.506 297.554 178.506ZM302.814 179.316C301.524 179.316 300.604 178.336 300.604 176.966C300.604 175.586 301.524 174.606 302.814 174.606C303.314 174.606 303.864 174.856 304.264 175.396V174.596H305.094V179.256H304.264V178.506C303.854 179.096 303.314 179.316 302.814 179.316ZM301.434 176.966C301.434 177.916 302.014 178.586 302.844 178.586C303.594 178.586 304.264 177.906 304.274 176.966C304.264 176.026 303.594 175.336 302.844 175.336C302.014 175.336 301.434 175.996 301.434 176.966ZM306.91 179.256V174.596H307.74V175.366C308.05 174.866 308.68 174.526 309.3 174.556V175.356C308.45 175.326 307.74 176.066 307.74 176.886V179.256H306.91ZM312.706 179.316C311.406 179.316 310.486 178.336 310.486 176.946C310.486 175.566 311.406 174.586 312.706 174.586C313.206 174.586 313.796 174.816 314.186 175.406V172.196H315.016V179.256H314.186V178.496C313.786 179.066 313.206 179.316 312.706 179.316ZM311.316 176.946C311.316 177.916 311.896 178.586 312.746 178.586C313.516 178.586 314.186 177.856 314.186 176.946C314.186 176.056 313.516 175.316 312.746 175.316C311.896 175.316 311.316 175.986 311.316 176.946ZM317.525 178.306C317.835 178.306 318.055 178.526 318.055 178.846C318.055 179.166 317.835 179.396 317.525 179.396C317.205 179.396 316.975 179.166 316.975 178.846C316.975 178.526 317.205 178.306 317.525 178.306Z" fill="white"/>
<circle cx="300.387" cy="152.613" r="17.6129" fill="#F79E1B"/>
<circle cx="279.613" cy="152.613" r="17.6129" fill="#EB001B"/>
<defs>
<linearGradient id="paint0_linear_667_644" x1="335" y1="49.219" x2="81.4251" y2="49.219" gradientUnits="userSpaceOnUse">
<stop stop-color="#9193D5"/>
<stop offset="0.5" stop-color="#20BDFF" stop-opacity="0.69"/>
<stop offset="1" stop-color="#A5FECB" stop-opacity="0.27"/>
</linearGradient>
</defs>
</svg>
