<svg width="327" height="191" viewBox="0 0 327 191" fill="none" xmlns="http://www.w3.org/2000/svg">
<rect width="327" height="191" rx="14" fill="url(#paint0_linear_667_692)"/>
<path fill-rule="evenodd" clip-rule="evenodd" d="M253.775 191L237.035 73C207.267 100.926 177.602 115.154 147.871 114.528C135.902 114.275 124.962 110.326 114.045 106.385C99.3261 101.071 84.65 95.7728 67.5538 99.5732C47.5186 104.027 34.104 119.404 21.3009 134.08C15.0375 141.26 8.92043 148.272 2.24623 153.755C1.50581 154.364 0.757051 154.961 0 155.548V177.918C0 185.143 6.36487 191 14.2163 191H253.775Z" fill="url(#paint1_linear_667_692)"/>
<path fill-rule="evenodd" clip-rule="evenodd" d="M327 41.0812C323.372 40.0513 319.777 38.8935 316.185 37.7365C301.293 32.9403 286.444 28.1581 269.499 32.563C249.639 37.7254 236.78 53.5817 224.506 68.7151C218.502 76.1186 212.638 83.3491 206.163 89.07C201.768 92.9536 197.292 97.1638 192.674 101.508C164.815 127.713 131.783 158.783 80 152.389L87.3633 191H312.784C320.635 191 327 185.143 327 177.918V41.0812Z" fill="url(#paint2_linear_667_692)"/>
<path d="M185.71 15.6664C186.689 16.5631 187.4 17.7524 187.752 19.084C188.104 20.4157 188.081 21.8298 187.687 23.1476C187.292 24.4653 186.544 25.6276 185.536 26.4873C184.528 27.3469 183.306 27.8653 182.025 27.9771C180.743 28.0889 179.46 27.7891 178.337 27.1154C177.214 26.4416 176.301 25.4242 175.715 24.192C175.129 22.9598 174.895 21.568 175.043 20.1927C175.192 18.8174 175.715 17.5204 176.548 16.4656C177.665 15.0513 179.257 14.1728 180.975 14.0229C182.693 13.873 184.396 14.4641 185.71 15.6664Z" fill="url(#paint3_linear_667_692)"/>
<path fill-rule="evenodd" clip-rule="evenodd" d="M327 65.3528C308.393 76.3437 289.802 81.7859 271.185 81.3941C259.245 81.1421 248.33 77.2051 237.44 73.2767C222.756 67.9799 208.116 62.6988 191.061 66.4867C171.074 70.9261 157.692 86.2535 144.92 100.882C138.672 108.039 132.569 115.029 125.911 120.494C96.4564 144.672 53.7884 151.697 0 145.01V177.918C0 185.143 6.36487 191 14.2163 191H312.784C320.635 191 327 185.143 327 177.918V65.3528Z" fill="url(#paint4_linear_667_692)"/>
<path d="M112.834 82.1663C115.471 84.4079 117.384 87.3811 118.332 90.7101C119.279 94.0392 119.218 97.5746 118.156 100.869C117.094 104.163 115.079 107.068 112.366 109.218C109.653 111.367 106.363 112.663 102.913 112.943C99.4635 113.222 96.0081 112.472 92.9843 110.788C89.9604 109.104 87.5041 106.561 85.9256 103.481C84.3472 100.4 83.7177 96.9209 84.1167 93.4827C84.5157 90.0446 85.9252 86.8021 88.1671 84.1651C91.1732 80.6293 95.4606 78.4321 100.086 78.0572C104.712 77.6824 109.298 79.1606 112.834 82.1663Z" fill="url(#paint5_linear_667_692)"/>
<path d="M189.912 159.152C190.944 161.168 192.408 162.176 193.944 162.176C196.224 162.2 197.496 161.096 197.496 159.392C197.496 155.36 188.592 157.088 188.592 150.92C188.592 147.992 190.992 146.264 194.28 146.288C196.56 146.312 198.744 147.584 199.728 150.344L197.448 151.16C196.824 149.312 195.576 148.52 194.256 148.496C192.36 148.496 191.136 149.432 191.136 150.92C191.136 154.904 200.016 153.392 200.016 159.416C200.016 162.392 197.688 164.432 193.92 164.384C191.328 164.36 189.264 162.872 187.8 160.328L189.912 159.152ZM205.929 159.296C205.929 161.048 206.961 162.128 208.473 162.128C210.081 162.128 211.185 161.072 211.161 159.32V152.768H213.729V164.216H211.161V162.896C210.441 163.784 209.265 164.312 208.137 164.312C205.377 164.312 203.385 162.32 203.385 159.392V152.768H205.929V159.296ZM222.858 162.128C224.706 162.128 225.906 160.688 225.906 158.504C225.906 156.32 224.706 154.88 222.858 154.88C221.13 154.88 219.714 156.488 219.714 158.504C219.714 160.52 221.13 162.128 222.858 162.128ZM217.146 169.28V152.744H219.69V154.424C220.602 153.224 222.114 152.744 223.002 152.744C226.194 152.744 228.45 155.12 228.45 158.504C228.45 161.912 226.194 164.288 223.002 164.288C222.09 164.288 220.602 163.784 219.69 162.584V169.28H217.146ZM236.175 164.264C232.935 164.264 230.655 161.888 230.655 158.528C230.655 155.144 232.935 152.768 236.175 152.768C239.727 152.768 240.855 155.672 240.927 155.864C241.623 157.496 241.407 159.32 241.407 159.512H233.151C233.439 161.048 234.735 162.104 236.175 162.104C238.071 162.104 238.839 161 239.031 160.664L241.071 161.576C240.519 162.872 238.911 164.264 236.175 164.264ZM233.151 157.496H239.007C238.767 156.08 237.951 154.928 236.175 154.928C234.639 154.928 233.439 156.008 233.151 157.496ZM243.999 164.216V152.768H246.543V154.448C247.311 153.368 248.703 152.648 250.047 152.72V155.072C248.007 154.976 246.543 156.776 246.543 158.528V164.216H243.999ZM266.987 164.384C261.851 164.384 258.251 160.64 258.251 155.336C258.251 150.008 261.851 146.288 266.987 146.288C269.411 146.288 271.571 147.32 273.155 148.928L271.475 150.584C270.419 149.336 268.739 148.52 266.963 148.52C263.291 148.52 260.819 151.256 260.819 155.336C260.819 159.416 263.291 162.152 266.963 162.152C268.859 162.152 270.371 161.288 271.379 160.136L273.155 161.744C271.571 163.352 269.531 164.408 266.987 164.384ZM280.658 164.312C277.49 164.312 275.234 161.912 275.234 158.552C275.234 155.192 277.49 152.792 280.658 152.792C281.786 152.792 283.034 153.32 283.946 154.4V152.768H286.49V164.216L283.946 164.216V162.68C283.034 163.832 281.786 164.312 280.658 164.312ZM277.778 158.552C277.778 160.712 279.002 162.152 280.826 162.152C282.506 162.152 283.946 160.64 283.97 158.552C283.946 156.464 282.506 154.952 280.826 154.952C279.002 154.952 277.778 156.368 277.778 158.552ZM289.491 164.216V152.768H292.035V154.448C292.803 153.368 294.195 152.648 295.539 152.72V155.072C293.499 154.976 292.035 156.776 292.035 158.528V164.216H289.491ZM302.291 164.312C299.123 164.312 296.843 161.912 296.843 158.528C296.843 155.144 299.123 152.744 302.291 152.744C303.227 152.744 304.643 153.152 305.627 154.448V147.056H308.171V164.216H305.627V162.608C304.619 163.832 303.227 164.312 302.291 164.312ZM299.387 158.552C299.387 160.736 300.611 162.176 302.459 162.176C304.187 162.176 305.627 160.592 305.627 158.552C305.627 156.536 304.187 154.928 302.459 154.928C300.611 154.928 299.387 156.368 299.387 158.552Z" fill="#4B0000"/>
<path d="M265.72 50.4758C265.72 49.7958 265.32 49.3358 264.74 49.3358C264.07 49.3358 263.61 49.7758 263.61 50.3958V53.2558H262.77V50.4758C262.77 49.7958 262.38 49.3358 261.81 49.3358C261.13 49.3358 260.66 49.9058 260.66 50.5658V53.2558H259.83V48.5958H260.66V49.2658C260.94 48.8658 261.4 48.5958 261.84 48.5958C262.42 48.5958 262.99 48.9458 263.26 49.4558C263.57 48.9458 264.18 48.5958 264.76 48.5958C265.81 48.5958 266.56 49.3458 266.56 50.4158V53.2558H265.72V50.4758ZM270.583 53.3158C269.293 53.3158 268.373 52.3358 268.373 50.9658C268.373 49.5858 269.293 48.6058 270.583 48.6058C271.083 48.6058 271.633 48.8558 272.033 49.3958V48.5958H272.863V53.2558H272.033V52.5058C271.623 53.0958 271.083 53.3158 270.583 53.3158ZM269.203 50.9658C269.203 51.9158 269.783 52.5858 270.613 52.5858C271.363 52.5858 272.033 51.9058 272.043 50.9658C272.033 50.0258 271.363 49.3358 270.613 49.3358C269.783 49.3358 269.203 49.9958 269.203 50.9658ZM275.376 51.7658C275.636 52.3258 276.186 52.5658 276.536 52.5658C277.096 52.5658 277.496 52.3258 277.496 51.9258C277.496 51.5458 276.976 51.3958 276.456 51.2158C275.816 50.9958 274.916 50.7158 274.916 49.8258C274.916 49.0358 275.646 48.5458 276.576 48.5458C277.126 48.5458 278.006 48.8658 278.226 49.6958L277.496 49.9458C277.346 49.3958 276.846 49.2858 276.576 49.2858C276.096 49.2858 275.746 49.4858 275.746 49.8258C275.746 50.2058 276.226 50.3358 276.786 50.5258C277.456 50.7558 278.326 51.0358 278.326 51.9258C278.326 52.7558 277.566 53.2958 276.536 53.2958C275.826 53.2958 275.086 52.8958 274.706 52.1658L275.376 51.7658ZM280.606 53.2558V49.3258H279.756V48.5858H280.606V46.9758H281.446V48.5858H282.546V49.3258H281.446V53.2558H280.606ZM286.036 53.2958C284.726 53.2958 283.806 52.3158 283.806 50.9458C283.806 49.5658 284.726 48.5958 286.036 48.5958C287.476 48.5958 287.916 49.7558 287.956 49.8658C288.236 50.5858 288.146 51.2758 288.146 51.3058H284.646C284.766 52.0458 285.346 52.5658 286.036 52.5658C286.956 52.5658 287.296 51.9858 287.366 51.8758L288.026 52.2158C287.796 52.7358 287.136 53.2958 286.036 53.2958ZM284.646 50.5958L287.336 50.5858C287.246 49.8758 286.896 49.3258 286.036 49.3258C285.326 49.3258 284.766 49.8458 284.646 50.5958ZM289.858 53.2558V48.5958H290.688V49.3658C290.998 48.8658 291.628 48.5258 292.248 48.5558V49.3558C291.398 49.3258 290.688 50.0658 290.688 50.8858V53.2558H289.858ZM295.554 52.5058C295.964 52.5058 296.444 52.3058 296.714 51.9958L297.314 52.5558C296.904 52.9958 296.174 53.3058 295.594 53.3058C294.204 53.3058 293.224 52.3158 293.224 50.9458C293.224 49.5658 294.204 48.5858 295.594 48.5858C296.184 48.5858 296.894 48.9058 297.314 49.3458L296.714 49.8958C296.444 49.5858 295.964 49.3858 295.554 49.3858C294.674 49.3858 294.054 50.0158 294.054 50.9458C294.054 51.8758 294.674 52.5058 295.554 52.5058ZM300.814 53.3158C299.524 53.3158 298.604 52.3358 298.604 50.9658C298.604 49.5858 299.524 48.6058 300.814 48.6058C301.314 48.6058 301.864 48.8558 302.264 49.3958V48.5958H303.094V53.2558H302.264V52.5058C301.854 53.0958 301.314 53.3158 300.814 53.3158ZM299.434 50.9658C299.434 51.9158 300.014 52.5858 300.844 52.5858C301.594 52.5858 302.264 51.9058 302.274 50.9658C302.264 50.0258 301.594 49.3358 300.844 49.3358C300.014 49.3358 299.434 49.9958 299.434 50.9658ZM304.91 53.2558V48.5958H305.74V49.3658C306.05 48.8658 306.68 48.5258 307.3 48.5558V49.3558C306.45 49.3258 305.74 50.0658 305.74 50.8858V53.2558H304.91ZM310.706 53.3158C309.406 53.3158 308.486 52.3358 308.486 50.9458C308.486 49.5658 309.406 48.5858 310.706 48.5858C311.206 48.5858 311.796 48.8158 312.186 49.4058V46.1958H313.016V53.2558H312.186V52.4958C311.786 53.0658 311.206 53.3158 310.706 53.3158ZM309.316 50.9458C309.316 51.9158 309.896 52.5858 310.746 52.5858C311.516 52.5858 312.186 51.8558 312.186 50.9458C312.186 50.0558 311.516 49.3158 310.746 49.3158C309.896 49.3158 309.316 49.9858 309.316 50.9458ZM315.525 52.3058C315.835 52.3058 316.055 52.5258 316.055 52.8458C316.055 53.1658 315.835 53.3958 315.525 53.3958C315.205 53.3958 314.975 53.1658 314.975 52.8458C314.975 52.5258 315.205 52.3058 315.525 52.3058Z" fill="#450000"/>
<circle cx="298.387" cy="26.6129" r="17.6129" fill="#F79E1B"/>
<circle cx="277.613" cy="26.6129" r="17.6129" fill="#EB001B"/>
<defs>
<linearGradient id="paint0_linear_667_692" x1="0" y1="95.5" x2="327" y2="95.5" gradientUnits="userSpaceOnUse">
<stop stop-color="white"/>
<stop offset="1" stop-color="white"/>
<stop offset="1" stop-color="#F2C94C"/>
</linearGradient>
<linearGradient id="paint1_linear_667_692" x1="-137" y1="228" x2="278" y2="228" gradientUnits="userSpaceOnUse">
<stop offset="0.302083" stop-color="#F7E1C5"/>
<stop offset="1" stop-color="white"/>
</linearGradient>
<linearGradient id="paint2_linear_667_692" x1="80" y1="161" x2="489" y2="161" gradientUnits="userSpaceOnUse">
<stop stop-color="#EE6E27" stop-opacity="0.15"/>
<stop offset="1" stop-color="white" stop-opacity="0.06"/>
</linearGradient>
<linearGradient id="paint3_linear_667_692" x1="175" y1="21" x2="188" y2="21" gradientUnits="userSpaceOnUse">
<stop stop-color="#C21500" stop-opacity="0.18"/>
<stop offset="1" stop-color="#FFC500"/>
</linearGradient>
<linearGradient id="paint4_linear_667_692" x1="-13" y1="194.5" x2="401" y2="194.5" gradientUnits="userSpaceOnUse">
<stop stop-color="#FFDAB6"/>
<stop offset="0.822917" stop-color="white"/>
</linearGradient>
<linearGradient id="paint5_linear_667_692" x1="84" y1="95.5" x2="119" y2="95.5" gradientUnits="userSpaceOnUse">
<stop stop-color="#C21500" stop-opacity="0.28"/>
<stop offset="1" stop-color="#FFC500"/>
</linearGradient>
</defs>
</svg>
