<svg width="330" height="190" viewBox="0 0 330 190" fill="none" xmlns="http://www.w3.org/2000/svg">
<path d="M0 10C0 4.47715 4.47715 0 10 0H320C325.523 0 330 4.47715 330 10V180C330 185.523 325.523 190 320 190H9.99999C4.47714 190 0 185.523 0 180V10Z" fill="black"/>
<path d="M33.248 171.4C36.16 169.864 37.152 168.008 37.152 166.312C37.152 163.336 35.776 161.928 33.76 161.928C28.96 161.928 31.072 173.704 22.72 173.704C18.656 173.704 16.192 170.44 16.224 165.832C16.224 162.952 17.92 159.688 21.888 158.216L23.2 161.864C20.576 162.856 19.776 164.456 19.744 165.864C19.744 168.232 20.992 169.576 22.72 169.576C27.456 169.576 25.824 157.832 33.792 157.832C37.888 157.832 40.704 161.064 40.672 166.344C40.672 169.864 38.592 172.744 35.168 174.76L33.248 171.4Z" fill="#8BFE6B"/>
<rect x="256" width="74" height="190" rx="10" fill="url(#paint0_linear_667_612)" fill-opacity="0.17"/>
<path d="M309.25 168.28C308.57 168.28 308.11 168.68 308.11 169.26C308.11 169.93 308.55 170.39 309.17 170.39L312.03 170.39L312.03 171.23L309.25 171.23C308.57 171.23 308.11 171.62 308.11 172.19C308.11 172.87 308.68 173.34 309.34 173.34L312.03 173.34L312.03 174.17L307.37 174.17L307.37 173.34L308.04 173.34C307.64 173.06 307.37 172.6 307.37 172.16C307.37 171.58 307.72 171.01 308.23 170.74C307.72 170.43 307.37 169.82 307.37 169.24C307.37 168.19 308.12 167.44 309.19 167.44L312.03 167.44L312.03 168.28L309.25 168.28ZM312.09 163.417C312.09 164.707 311.11 165.627 309.74 165.627C308.36 165.627 307.38 164.707 307.38 163.417C307.38 162.917 307.63 162.367 308.17 161.967L307.37 161.967L307.37 161.137L312.03 161.137L312.03 161.967L311.28 161.967C311.87 162.377 312.09 162.917 312.09 163.417ZM309.74 164.797C310.69 164.797 311.36 164.217 311.36 163.387C311.36 162.637 310.68 161.967 309.74 161.957C308.8 161.967 308.11 162.637 308.11 163.387C308.11 164.217 308.77 164.797 309.74 164.797ZM310.54 158.624C311.1 158.364 311.34 157.814 311.34 157.464C311.34 156.904 311.1 156.504 310.7 156.504C310.32 156.504 310.17 157.024 309.99 157.544C309.77 158.184 309.49 159.084 308.6 159.084C307.81 159.084 307.32 158.354 307.32 157.424C307.32 156.874 307.64 155.994 308.47 155.774L308.72 156.504C308.17 156.654 308.06 157.154 308.06 157.424C308.06 157.904 308.26 158.254 308.6 158.254C308.98 158.254 309.11 157.774 309.3 157.214C309.53 156.544 309.81 155.674 310.7 155.674C311.53 155.674 312.07 156.434 312.07 157.464C312.07 158.174 311.67 158.914 310.94 159.294L310.54 158.624ZM312.03 153.394L308.1 153.394L308.1 154.244L307.36 154.244L307.36 153.394L305.75 153.394L305.75 152.554L307.36 152.554L307.36 151.454L308.1 151.454L308.1 152.554L312.03 152.554L312.03 153.394ZM312.07 147.964C312.07 149.274 311.09 150.194 309.72 150.194C308.34 150.194 307.37 149.274 307.37 147.964C307.37 146.524 308.53 146.084 308.64 146.044C309.36 145.764 310.05 145.854 310.08 145.854L310.08 149.354C310.82 149.234 311.34 148.654 311.34 147.964C311.34 147.044 310.76 146.704 310.65 146.634L310.99 145.974C311.51 146.204 312.07 146.864 312.07 147.964ZM309.37 149.354L309.36 146.664C308.65 146.754 308.1 147.104 308.1 147.964C308.1 148.674 308.62 149.234 309.37 149.354ZM312.03 144.142L307.37 144.142L307.37 143.312L308.14 143.312C307.64 143.002 307.3 142.372 307.33 141.752L308.13 141.752C308.1 142.602 308.84 143.312 309.66 143.312L312.03 143.312L312.03 144.142ZM311.28 138.446C311.28 138.036 311.08 137.556 310.77 137.286L311.33 136.686C311.77 137.096 312.08 137.826 312.08 138.406C312.08 139.796 311.09 140.776 309.72 140.776C308.34 140.776 307.36 139.796 307.36 138.406C307.36 137.816 307.68 137.106 308.12 136.686L308.67 137.286C308.36 137.556 308.16 138.036 308.16 138.446C308.16 139.326 308.79 139.946 309.72 139.946C310.65 139.946 311.28 139.326 311.28 138.446ZM312.09 133.186C312.09 134.476 311.11 135.396 309.74 135.396C308.36 135.396 307.38 134.476 307.38 133.186C307.38 132.686 307.63 132.136 308.17 131.736L307.37 131.736L307.37 130.906L312.03 130.906L312.03 131.736L311.28 131.736C311.87 132.146 312.09 132.686 312.09 133.186ZM309.74 134.566C310.69 134.566 311.36 133.986 311.36 133.156C311.36 132.406 310.68 131.736 309.74 131.726C308.8 131.736 308.11 132.406 308.11 133.156C308.11 133.986 308.77 134.566 309.74 134.566ZM312.03 129.09L307.37 129.09L307.37 128.26L308.14 128.26C307.64 127.95 307.3 127.32 307.33 126.7L308.13 126.7C308.1 127.55 308.84 128.26 309.66 128.26L312.03 128.26L312.03 129.09ZM312.09 123.294C312.09 124.594 311.11 125.514 309.72 125.514C308.34 125.514 307.36 124.594 307.36 123.294C307.36 122.794 307.59 122.204 308.18 121.814L304.97 121.814L304.97 120.984L312.03 120.984L312.03 121.814L311.27 121.814C311.84 122.214 312.09 122.794 312.09 123.294ZM309.72 124.684C310.69 124.684 311.36 124.104 311.36 123.254C311.36 122.484 310.63 121.814 309.72 121.814C308.83 121.814 308.09 122.484 308.09 123.254C308.09 124.104 308.76 124.684 309.72 124.684ZM311.08 118.475C311.08 118.165 311.3 117.945 311.62 117.945C311.94 117.945 312.17 118.165 312.17 118.475C312.17 118.795 311.94 119.025 311.62 119.025C311.3 119.025 311.08 118.795 311.08 118.475Z" fill="white"/>
<circle cx="285.387" cy="135.613" r="17.6129" transform="rotate(-90 285.387 135.613)" fill="#F79E1B"/>
<circle cx="285.387" cy="156.387" r="17.6129" transform="rotate(-90 285.387 156.387)" fill="#EB001B"/>
<defs>
<linearGradient id="paint0_linear_667_612" x1="330" y1="86.5" x2="256" y2="86.5" gradientUnits="userSpaceOnUse">
<stop stop-color="#8BFE6B"/>
<stop offset="1" stop-color="#AFFE6B" stop-opacity="0"/>
</linearGradient>
</defs>
</svg>
