<svg width="368" height="223" viewBox="0 0 368 223" fill="none" xmlns="http://www.w3.org/2000/svg">
<g filter="url(#filter0_f_667_692)">
<rect x="30" y="30" width="308" height="163" rx="10.8" fill="#ABA9A7"/>
</g>
<rect x="20" y="6" width="327" height="191" rx="14" fill="url(#paint0_linear_667_692)"/>
<mask id="mask0_667_692" style="mask-type:alpha" maskUnits="userSpaceOnUse" x="20" y="6" width="327" height="191">
<path d="M332.784 6H34.2163C26.3649 6 20 11.8571 20 19.0822V183.918C20 191.143 26.3649 197 34.2163 197H332.784C340.635 197 347 191.143 347 183.918V19.0822C347 11.8571 340.635 6 332.784 6Z" fill="url(#paint1_linear_667_692)"/>
</mask>
<g mask="url(#mask0_667_692)">
<path d="M257.035 79C227.267 106.926 197.602 121.154 167.871 120.528C139.764 119.934 117.329 98.9542 87.5538 105.573C57.7172 112.205 42.5632 143.064 22.2462 159.755C-9.62007 185.934 -56.9144 192.068 -117 182.498L-79.7553 389L298 367.751L257.035 79Z" fill="url(#paint2_linear_667_692)"/>
<path d="M457.884 6C429.129 34.9864 399.993 50.2665 370.269 50.6892C342.167 51.0891 319.013 30.8909 289.499 38.5631C259.923 46.2511 245.873 77.6554 226.163 95.0701C195.25 122.383 160.367 165.843 100 158.389L132.346 328L509 293.414L457.884 6Z" fill="url(#paint3_linear_667_692)"/>
<path d="M205.71 21.6664C206.689 22.5631 207.4 23.7524 207.752 25.084C208.104 26.4157 208.081 27.8298 207.687 29.1476C207.292 30.4653 206.544 31.6276 205.536 32.4873C204.528 33.3469 203.306 33.8653 202.025 33.9771C200.743 34.0889 199.46 33.7891 198.337 33.1154C197.214 32.4416 196.301 31.4242 195.715 30.192C195.129 28.9598 194.895 27.568 195.043 26.1927C195.192 24.8174 195.715 23.5204 196.548 22.4656C197.665 21.0513 199.257 20.1728 200.975 20.0229C202.693 19.873 204.396 20.4641 205.71 21.6664Z" fill="url(#paint4_linear_667_692)"/>
<path d="M380.134 46C350.437 73.8356 320.843 88.0182 291.185 87.3941C263.145 86.8023 240.765 65.8894 211.061 72.4867C181.296 79.0979 166.179 109.857 145.911 126.494C114.122 152.588 66.9408 158.703 7 149.163L44.1555 355L421 333.82L380.134 46Z" fill="url(#paint5_linear_667_692)"/>
<path d="M132.834 88.1663C135.471 90.4079 137.384 93.3811 138.332 96.7101C139.279 100.039 139.218 103.575 138.156 106.869C137.094 110.163 135.079 113.068 132.366 115.218C129.653 117.367 126.363 118.663 122.913 118.943C119.464 119.222 116.008 118.472 112.984 116.788C109.96 115.104 107.504 112.561 105.926 109.481C104.347 106.4 103.718 102.921 104.117 99.4827C104.516 96.0446 105.925 92.8021 108.167 90.1651C111.173 86.6293 115.461 84.4321 120.086 84.0572C124.712 83.6824 129.298 85.1606 132.834 88.1663Z" fill="url(#paint6_linear_667_692)"/>
</g>
<path d="M209.912 165.152C210.944 167.168 212.408 168.176 213.944 168.176C216.224 168.2 217.496 167.096 217.496 165.392C217.496 161.36 208.592 163.088 208.592 156.92C208.592 153.992 210.992 152.264 214.28 152.288C216.56 152.312 218.744 153.584 219.728 156.344L217.448 157.16C216.824 155.312 215.576 154.52 214.256 154.496C212.36 154.496 211.136 155.432 211.136 156.92C211.136 160.904 220.016 159.392 220.016 165.416C220.016 168.392 217.688 170.432 213.92 170.384C211.328 170.36 209.264 168.872 207.8 166.328L209.912 165.152ZM225.929 165.296C225.929 167.048 226.961 168.128 228.473 168.128C230.081 168.128 231.185 167.072 231.161 165.32V158.768H233.729V170.216H231.161V168.896C230.441 169.784 229.265 170.312 228.137 170.312C225.377 170.312 223.385 168.32 223.385 165.392V158.768H225.929V165.296ZM242.858 168.128C244.706 168.128 245.906 166.688 245.906 164.504C245.906 162.32 244.706 160.88 242.858 160.88C241.13 160.88 239.714 162.488 239.714 164.504C239.714 166.52 241.13 168.128 242.858 168.128ZM237.146 175.28V158.744H239.69V160.424C240.602 159.224 242.114 158.744 243.002 158.744C246.194 158.744 248.45 161.12 248.45 164.504C248.45 167.912 246.194 170.288 243.002 170.288C242.09 170.288 240.602 169.784 239.69 168.584V175.28H237.146ZM256.175 170.264C252.935 170.264 250.655 167.888 250.655 164.528C250.655 161.144 252.935 158.768 256.175 158.768C259.727 158.768 260.855 161.672 260.927 161.864C261.623 163.496 261.407 165.32 261.407 165.512H253.151C253.439 167.048 254.735 168.104 256.175 168.104C258.071 168.104 258.839 167 259.031 166.664L261.071 167.576C260.519 168.872 258.911 170.264 256.175 170.264ZM253.151 163.496H259.007C258.767 162.08 257.951 160.928 256.175 160.928C254.639 160.928 253.439 162.008 253.151 163.496ZM263.999 170.216V158.768H266.543V160.448C267.311 159.368 268.703 158.648 270.047 158.72V161.072C268.007 160.976 266.543 162.776 266.543 164.528V170.216H263.999ZM286.987 170.384C281.851 170.384 278.251 166.64 278.251 161.336C278.251 156.008 281.851 152.288 286.987 152.288C289.411 152.288 291.571 153.32 293.155 154.928L291.475 156.584C290.419 155.336 288.739 154.52 286.963 154.52C283.291 154.52 280.819 157.256 280.819 161.336C280.819 165.416 283.291 168.152 286.963 168.152C288.859 168.152 290.371 167.288 291.379 166.136L293.155 167.744C291.571 169.352 289.531 170.408 286.987 170.384ZM300.658 170.312C297.49 170.312 295.234 167.912 295.234 164.552C295.234 161.192 297.49 158.792 300.658 158.792C301.786 158.792 303.034 159.32 303.946 160.4V158.768H306.49V170.216L303.946 170.216V168.68C303.034 169.832 301.786 170.312 300.658 170.312ZM297.778 164.552C297.778 166.712 299.002 168.152 300.826 168.152C302.506 168.152 303.946 166.64 303.97 164.552C303.946 162.464 302.506 160.952 300.826 160.952C299.002 160.952 297.778 162.368 297.778 164.552ZM309.491 170.216V158.768H312.035V160.448C312.803 159.368 314.195 158.648 315.539 158.72V161.072C313.499 160.976 312.035 162.776 312.035 164.528V170.216H309.491ZM322.291 170.312C319.123 170.312 316.843 167.912 316.843 164.528C316.843 161.144 319.123 158.744 322.291 158.744C323.227 158.744 324.643 159.152 325.627 160.448V153.056H328.171V170.216H325.627V168.608C324.619 169.832 323.227 170.312 322.291 170.312ZM319.387 164.552C319.387 166.736 320.611 168.176 322.459 168.176C324.187 168.176 325.627 166.592 325.627 164.552C325.627 162.536 324.187 160.928 322.459 160.928C320.611 160.928 319.387 162.368 319.387 164.552Z" fill="#4B0000"/>
<path d="M285.72 56.4758C285.72 55.7958 285.32 55.3358 284.74 55.3358C284.07 55.3358 283.61 55.7758 283.61 56.3958V59.2558H282.77V56.4758C282.77 55.7958 282.38 55.3358 281.81 55.3358C281.13 55.3358 280.66 55.9058 280.66 56.5658V59.2558H279.83V54.5958H280.66V55.2658C280.94 54.8658 281.4 54.5958 281.84 54.5958C282.42 54.5958 282.99 54.9458 283.26 55.4558C283.57 54.9458 284.18 54.5958 284.76 54.5958C285.81 54.5958 286.56 55.3458 286.56 56.4158V59.2558H285.72V56.4758ZM290.583 59.3158C289.293 59.3158 288.373 58.3358 288.373 56.9658C288.373 55.5858 289.293 54.6058 290.583 54.6058C291.083 54.6058 291.633 54.8558 292.033 55.3958V54.5958H292.863V59.2558H292.033V58.5058C291.623 59.0958 291.083 59.3158 290.583 59.3158ZM289.203 56.9658C289.203 57.9158 289.783 58.5858 290.613 58.5858C291.363 58.5858 292.033 57.9058 292.043 56.9658C292.033 56.0258 291.363 55.3358 290.613 55.3358C289.783 55.3358 289.203 55.9958 289.203 56.9658ZM295.376 57.7658C295.636 58.3258 296.186 58.5658 296.536 58.5658C297.096 58.5658 297.496 58.3258 297.496 57.9258C297.496 57.5458 296.976 57.3958 296.456 57.2158C295.816 56.9958 294.916 56.7158 294.916 55.8258C294.916 55.0358 295.646 54.5458 296.576 54.5458C297.126 54.5458 298.006 54.8658 298.226 55.6958L297.496 55.9458C297.346 55.3958 296.846 55.2858 296.576 55.2858C296.096 55.2858 295.746 55.4858 295.746 55.8258C295.746 56.2058 296.226 56.3358 296.786 56.5258C297.456 56.7558 298.326 57.0358 298.326 57.9258C298.326 58.7558 297.566 59.2958 296.536 59.2958C295.826 59.2958 295.086 58.8958 294.706 58.1658L295.376 57.7658ZM300.606 59.2558V55.3258H299.756V54.5858H300.606V52.9758H301.446V54.5858H302.546V55.3258H301.446V59.2558H300.606ZM306.036 59.2958C304.726 59.2958 303.806 58.3158 303.806 56.9458C303.806 55.5658 304.726 54.5958 306.036 54.5958C307.476 54.5958 307.916 55.7558 307.956 55.8658C308.236 56.5858 308.146 57.2758 308.146 57.3058H304.646C304.766 58.0458 305.346 58.5658 306.036 58.5658C306.956 58.5658 307.296 57.9858 307.366 57.8758L308.026 58.2158C307.796 58.7358 307.136 59.2958 306.036 59.2958ZM304.646 56.5958L307.336 56.5858C307.246 55.8758 306.896 55.3258 306.036 55.3258C305.326 55.3258 304.766 55.8458 304.646 56.5958ZM309.858 59.2558V54.5958H310.688V55.3658C310.998 54.8658 311.628 54.5258 312.248 54.5558V55.3558C311.398 55.3258 310.688 56.0658 310.688 56.8858V59.2558H309.858ZM315.554 58.5058C315.964 58.5058 316.444 58.3058 316.714 57.9958L317.314 58.5558C316.904 58.9958 316.174 59.3058 315.594 59.3058C314.204 59.3058 313.224 58.3158 313.224 56.9458C313.224 55.5658 314.204 54.5858 315.594 54.5858C316.184 54.5858 316.894 54.9058 317.314 55.3458L316.714 55.8958C316.444 55.5858 315.964 55.3858 315.554 55.3858C314.674 55.3858 314.054 56.0158 314.054 56.9458C314.054 57.8758 314.674 58.5058 315.554 58.5058ZM320.814 59.3158C319.524 59.3158 318.604 58.3358 318.604 56.9658C318.604 55.5858 319.524 54.6058 320.814 54.6058C321.314 54.6058 321.864 54.8558 322.264 55.3958V54.5958H323.094V59.2558H322.264V58.5058C321.854 59.0958 321.314 59.3158 320.814 59.3158ZM319.434 56.9658C319.434 57.9158 320.014 58.5858 320.844 58.5858C321.594 58.5858 322.264 57.9058 322.274 56.9658C322.264 56.0258 321.594 55.3358 320.844 55.3358C320.014 55.3358 319.434 55.9958 319.434 56.9658ZM324.91 59.2558V54.5958H325.74V55.3658C326.05 54.8658 326.68 54.5258 327.3 54.5558V55.3558C326.45 55.3258 325.74 56.0658 325.74 56.8858V59.2558H324.91ZM330.706 59.3158C329.406 59.3158 328.486 58.3358 328.486 56.9458C328.486 55.5658 329.406 54.5858 330.706 54.5858C331.206 54.5858 331.796 54.8158 332.186 55.4058V52.1958H333.016V59.2558H332.186V58.4958C331.786 59.0658 331.206 59.3158 330.706 59.3158ZM329.316 56.9458C329.316 57.9158 329.896 58.5858 330.746 58.5858C331.516 58.5858 332.186 57.8558 332.186 56.9458C332.186 56.0558 331.516 55.3158 330.746 55.3158C329.896 55.3158 329.316 55.9858 329.316 56.9458ZM335.525 58.3058C335.835 58.3058 336.055 58.5258 336.055 58.8458C336.055 59.1658 335.835 59.3958 335.525 59.3958C335.205 59.3958 334.975 59.1658 334.975 58.8458C334.975 58.5258 335.205 58.3058 335.525 58.3058Z" fill="#450000"/>
<circle cx="318.387" cy="32.6129" r="17.6129" fill="#F79E1B"/>
<circle cx="297.613" cy="32.6129" r="17.6129" fill="#EB001B"/>
<defs>
<filter id="filter0_f_667_692" x="0.642557" y="0.642557" width="366.715" height="221.715" filterUnits="userSpaceOnUse" color-interpolation-filters="sRGB">
<feFlood flood-opacity="0" result="BackgroundImageFix"/>
<feBlend mode="normal" in="SourceGraphic" in2="BackgroundImageFix" result="shape"/>
<feGaussianBlur stdDeviation="14.6787" result="effect1_foregroundBlur_667_692"/>
</filter>
<linearGradient id="paint0_linear_667_692" x1="20" y1="101.5" x2="347" y2="101.5" gradientUnits="userSpaceOnUse">
<stop stop-color="white"/>
<stop offset="1" stop-color="white"/>
<stop offset="1" stop-color="#F2C94C"/>
</linearGradient>
<linearGradient id="paint1_linear_667_692" x1="20" y1="101.5" x2="347" y2="101.5" gradientUnits="userSpaceOnUse">
<stop stop-color="white"/>
<stop offset="1" stop-color="white"/>
</linearGradient>
<linearGradient id="paint2_linear_667_692" x1="-117" y1="234" x2="298" y2="234" gradientUnits="userSpaceOnUse">
<stop offset="0.302083" stop-color="#F7E1C5"/>
<stop offset="1" stop-color="white"/>
</linearGradient>
<linearGradient id="paint3_linear_667_692" x1="100" y1="167" x2="509" y2="167" gradientUnits="userSpaceOnUse">
<stop stop-color="#EE6E27" stop-opacity="0.15"/>
<stop offset="1" stop-color="white" stop-opacity="0.06"/>
</linearGradient>
<linearGradient id="paint4_linear_667_692" x1="195" y1="27" x2="208" y2="27" gradientUnits="userSpaceOnUse">
<stop stop-color="#C21500" stop-opacity="0.18"/>
<stop offset="1" stop-color="#FFC500"/>
</linearGradient>
<linearGradient id="paint5_linear_667_692" x1="7" y1="200.5" x2="421" y2="200.5" gradientUnits="userSpaceOnUse">
<stop stop-color="#FFDAB6"/>
<stop offset="0.822917" stop-color="white"/>
</linearGradient>
<linearGradient id="paint6_linear_667_692" x1="104" y1="101.5" x2="139" y2="101.5" gradientUnits="userSpaceOnUse">
<stop stop-color="#C21500" stop-opacity="0.28"/>
<stop offset="1" stop-color="#FFC500"/>
</linearGradient>
</defs>
</svg>
