<svg width="26" height="26" viewBox="0 0 26 26" fill="none" xmlns="http://www.w3.org/2000/svg">
<path d="M20.9363 6.25918L21.352 5.98139V5.98139L20.9363 6.25918ZM20.9363 17.5741L21.352 17.8519V17.8519L20.9363 17.5741ZM19.7407 18.7697L19.4629 18.3539L19.7407 18.7697ZM15.1666 19.4985L15.1644 18.9985C14.8891 18.9997 14.6666 19.2232 14.6666 19.4985H15.1666ZM15.1666 19.5L15.6138 19.7236C15.6485 19.6542 15.6666 19.5776 15.6666 19.5H15.1666ZM13.8943 22.0445L13.4471 21.8209L13.8943 22.0445ZM12.1055 22.0445L12.5527 21.8209L12.1055 22.0445ZM10.8333 19.5H10.3333C10.3333 19.5776 10.3513 19.6542 10.386 19.7236L10.8333 19.5ZM10.8333 19.4985H11.3333C11.3333 19.2232 11.1107 18.9997 10.8354 18.9985L10.8333 19.4985ZM6.25911 18.7697L6.5369 18.3539H6.5369L6.25911 18.7697ZM5.06355 17.5741L4.64782 17.8519H4.64782L5.06355 17.5741ZM5.06355 6.25918L4.64782 5.98139L4.64782 5.98139L5.06355 6.25918ZM6.25911 5.06361L5.98133 4.64788L5.98133 4.64788L6.25911 5.06361ZM19.7407 5.06361L19.4629 5.47935L19.7407 5.06361ZM22.1666 11.9166C22.1666 10.4056 22.1672 9.23459 22.0727 8.30605C21.9774 7.36914 21.7812 6.62372 21.352 5.98139L20.5206 6.53696C20.8217 6.9876 20.9906 7.54941 21.0779 8.40725C21.166 9.27344 21.1666 10.3847 21.1666 11.9166H22.1666ZM21.352 17.8519C21.7812 17.2096 21.9774 16.4642 22.0727 15.5272C22.1672 14.5987 22.1666 13.4277 22.1666 11.9166H21.1666C21.1666 13.4486 21.166 14.5598 21.0779 15.426C20.9906 16.2839 20.8217 16.8457 20.5206 17.2963L21.352 17.8519ZM20.0185 19.1854C20.5463 18.8328 20.9994 18.3797 21.352 17.8519L20.5206 17.2963C20.2409 17.7149 19.8815 18.0743 19.4629 18.3539L20.0185 19.1854ZM15.1688 19.9985C16.3351 19.9934 17.2713 19.9711 18.0406 19.8648C18.818 19.7573 19.4574 19.5603 20.0185 19.1854L19.4629 18.3539C19.0692 18.617 18.5903 18.7793 17.9037 18.8742C17.2091 18.9702 16.3355 18.9934 15.1644 18.9985L15.1688 19.9985ZM15.6666 19.5V19.4985H14.6666V19.5H15.6666ZM14.3416 22.2681L15.6138 19.7236L14.7194 19.2764L13.4471 21.8209L14.3416 22.2681ZM11.6583 22.2681C12.2111 23.3736 13.7888 23.3736 14.3416 22.2681L13.4471 21.8209C13.2629 22.1894 12.737 22.1894 12.5527 21.8209L11.6583 22.2681ZM10.386 19.7236L11.6583 22.2681L12.5527 21.8209L11.2805 19.2764L10.386 19.7236ZM10.3333 19.4985V19.5H11.3333V19.4985H10.3333ZM5.98133 19.1854C6.54239 19.5603 7.18182 19.7573 7.9592 19.8648C8.72854 19.9711 9.66469 19.9934 10.8311 19.9985L10.8354 18.9985C9.6643 18.9934 8.79078 18.9702 8.09613 18.8742C7.40951 18.7793 6.93064 18.617 6.5369 18.3539L5.98133 19.1854ZM4.64782 17.8519C5.00045 18.3797 5.45358 18.8328 5.98133 19.1854L6.5369 18.3539C6.11834 18.0743 5.75896 17.7149 5.47928 17.2963L4.64782 17.8519ZM3.83325 11.9166C3.83325 13.4277 3.83265 14.5987 3.92711 15.5272C4.02242 16.4642 4.21862 17.2096 4.64782 17.8519L5.47929 17.2963C5.17818 16.8457 5.00924 16.2839 4.92197 15.426C4.83386 14.5598 4.83325 13.4486 4.83325 11.9166H3.83325ZM4.64782 5.98139C4.21862 6.62372 4.02242 7.36914 3.92711 8.30605C3.83265 9.23459 3.83325 10.4056 3.83325 11.9166H4.83325C4.83325 10.3847 4.83386 9.27344 4.92197 8.40725C5.00924 7.54941 5.17818 6.9876 5.47929 6.53696L4.64782 5.98139ZM5.98133 4.64788C5.45358 5.00051 5.00045 5.45364 4.64782 5.98139L5.47929 6.53696C5.75896 6.1184 6.11834 5.75902 6.5369 5.47935L5.98133 4.64788ZM11.9166 3.83331C10.4055 3.83331 9.23453 3.83271 8.30598 3.92717C7.36908 4.02248 6.62366 4.21868 5.98133 4.64788L6.5369 5.47935C6.98753 5.17824 7.54935 5.0093 8.40719 4.92203C9.27338 4.83392 10.3847 4.83331 11.9166 4.83331V3.83331ZM14.0833 3.83331H11.9166V4.83331H14.0833V3.83331ZM20.0185 4.64788C19.3762 4.21868 18.6308 4.02248 17.6939 3.92717C16.7653 3.83271 15.5943 3.83331 14.0833 3.83331V4.83331C15.6152 4.83331 16.7265 4.83392 17.5926 4.92203C18.4505 5.0093 19.0123 5.17824 19.4629 5.47935L20.0185 4.64788ZM21.352 5.98139C20.9994 5.45364 20.5463 5.00051 20.0185 4.64788L19.4629 5.47935C19.8815 5.75902 20.2409 6.1184 20.5206 6.53696L21.352 5.98139Z" fill="#55FE3A"/>
<ellipse cx="17.3333" cy="11.9166" rx="1.08333" ry="1.08333" fill="#55FE3A"/>
<ellipse cx="13.0001" cy="11.9166" rx="1.08333" ry="1.08333" fill="#55FE3A"/>
<ellipse cx="8.66658" cy="11.9166" rx="1.08333" ry="1.08333" fill="#55FE3A"/>
</svg>
