<svg width="38" height="46" viewBox="0 0 38 46" fill="none" xmlns="http://www.w3.org/2000/svg">
<path d="M20.318 45.3868C19.2715 45.5185 18.2759 45.5743 17.2526 45.209C16.2369 44.8464 15.565 44.3791 14.4283 44.6857C13.9968 44.802 13.6153 45.0163 13.1976 45.165C12.1549 45.536 11.4251 45.4441 10.3694 45.4808C10.0779 45.4909 9.83146 45.6099 9.54839 45.4658C8.13539 44.7465 8.96099 42.7546 7.08974 41.8181C6.10823 41.3269 5.66184 41.5631 4.8712 42.0936C3.34293 43.1191 1.47796 42.3849 0.97837 40.6482C0.788245 39.9874 0.995573 39.3876 1.24523 38.7796L1.7197 37.6716C2.68729 35.3955 3.8946 33.2055 5.23321 31.1286L7.80154 27.4697L10.646 23.8317C11.8435 22.1137 13.2275 19.6937 13.2775 17.5391C13.2947 16.7991 13.0629 15.4706 12.7795 14.8316C12.2609 13.6626 11.5181 12.9848 11.1605 11.6253L11.0563 11.1641C10.9609 10.6631 10.6792 10.3913 10.4159 9.9648C10.148 9.53093 9.90435 9.04146 9.74418 8.55705C9.54942 7.96793 9.41198 6.67235 9.58804 6.1638C10.0175 4.9233 10.5241 3.92777 11.9671 3.59254C13.0943 3.3307 13.8307 3.71276 15.1262 3.17339C15.924 2.84122 16.5429 2.3073 16.8877 1.5022C17.084 1.04387 17.0329 0.745883 17.5729 0.527544C18.2894 0.483631 19.0249 0.517006 19.7434 0.517316L20.3195 0.517541C21.0295 0.524075 21.0021 1.30925 21.3002 1.80077C21.9587 2.88615 23.1762 3.47216 24.4267 3.50787C24.9278 3.52219 25.4923 3.448 25.9808 3.54994C26.9576 3.75373 27.8332 4.56138 28.1882 5.48046L28.2629 5.69271C28.8628 7.88491 28.1547 9.24513 26.9324 11.0733C27.0817 11.8079 26.1855 12.9153 25.8202 13.5702C24.9029 15.2151 24.5135 17.5773 25.2022 19.393L25.4454 20.1406C26.2377 22.8116 28.5865 25.2674 30.2047 27.4608C32.1339 30.0756 33.9253 32.8349 35.3496 35.7592C35.6646 36.406 36.0168 37.0723 36.2637 37.7479L36.6978 38.832C36.8242 39.2631 36.9916 39.6704 37.1026 40.1089C37.5276 41.7873 35.3785 43.3524 33.7992 42.2919C33.6732 42.2072 33.5681 42.0938 33.4505 41.9982C31.9371 40.7687 29.7654 42.0336 29.5784 43.8785C29.556 44.0989 29.5916 44.3282 29.5566 44.5465C29.481 45.0173 29.1598 45.4776 28.6469 45.479L28.1469 45.48C26.7538 45.4815 26.0624 45.547 24.7261 44.976C24.1592 44.7337 23.699 44.5504 23.067 44.5524C22.1117 44.5554 21.2468 45.1804 20.318 45.3868ZM18.2924 1.97587C17.4827 3.64829 16.5618 4.3863 14.6842 4.83752C14.517 4.87765 14.2597 4.89766 14.1153 4.98073L14.4393 6.52938C16.058 6.4466 17.444 6.4924 18.7615 7.68359L19.0018 7.91974L19.3807 7.58271C20.4831 6.7421 21.868 6.30776 23.2556 6.49638L23.5806 6.54705L23.8651 4.98977C23.466 4.86658 23.0537 4.80002 22.6566 4.66905C21.5137 4.29218 20.5109 3.4666 19.9452 2.40163C19.7642 2.06089 19.9109 1.97722 19.4389 1.97683L18.2924 1.97587ZM12.4717 4.98462C11.2254 5.29371 10.8313 6.4526 11.0217 7.6151C11.0859 8.00754 11.2536 8.64058 11.4985 8.94251L11.5355 8.92718C11.8236 8.40363 12.1458 7.89944 12.617 7.52046C12.6592 7.48657 13.0476 7.22416 13.0504 7.21301C13.0985 7.02068 12.6768 5.3193 12.619 4.98827C12.5685 4.98316 12.5222 4.98176 12.4717 4.98462ZM25.3845 4.96765L25.0084 7.21863C25.7202 7.66394 26.0752 8.19255 26.4417 8.90309L26.498 8.97265L26.5473 8.89394C26.9129 8.13368 27.22 7.09952 26.9372 6.27185C26.6942 5.5609 26.1584 4.99877 25.3845 4.96765ZM15.3516 7.96305C13.4446 8.08169 12.028 9.91929 12.7677 11.7734L12.9102 12.1207C13.0866 12.6055 13.4815 13.0553 13.7614 13.486C14.2385 14.22 14.4532 15.02 14.5943 15.875C14.6383 16.1411 14.6483 16.6062 14.7164 16.8335L23.4291 16.834L23.5306 15.8514C23.7275 14.7691 24.0141 13.8009 24.5276 12.8175C25.2075 11.5154 26.0375 10.8016 24.9791 9.22709C23.9729 7.73023 21.9839 7.61758 20.564 8.59319C20.0683 8.93374 19.3869 9.83538 18.8831 9.75555C18.3033 9.66368 17.6412 8.01274 15.3516 7.96305ZM22.5186 18.3351L14.6687 18.3554C14.621 18.5436 14.6031 18.7235 14.5664 18.912L14.3667 19.7422C13.7762 21.9236 12.3737 24.1203 10.9846 25.8909L8.76093 28.6386C6.53095 31.5566 4.4534 34.9381 3.03778 38.3286L2.72779 39.0707C2.58342 39.4024 2.35607 39.7818 2.37998 40.1526C2.41349 40.673 2.98274 41.0975 3.47296 41.0989L3.50606 41.0997C3.75689 41.1006 4.1332 40.7176 4.34854 40.5914C5.85496 39.7091 7.45814 39.9999 8.70637 41.1923C9.42417 41.8781 9.76129 42.7074 10.0366 43.636C10.0654 43.733 10.0638 43.8714 10.12 43.9528C11.8142 43.9586 11.9008 44.0157 13.4028 43.4279C14.097 43.1562 14.9798 43.0107 15.7191 43.1358L16.4514 43.2865C17.0361 43.4681 17.6321 43.8588 18.2405 43.925C19.117 44.0204 19.5772 44.0971 20.4643 43.7857C20.8113 43.6639 21.1345 43.4793 21.4826 43.354C22.1528 43.1126 23.4047 42.9322 24.1214 43.1575L24.1956 43.1742C24.8085 43.312 25.2941 43.6524 25.8742 43.8441C26.501 44.0513 27.4405 44.0293 28.1136 43.9868C28.1877 40.8014 31.9555 38.8577 34.3636 40.8014C34.4882 40.902 34.6952 41.1477 34.8445 41.1833C35.1484 41.2555 35.4965 40.9927 35.6068 40.7278L35.6515 40.6008C35.7996 40.1942 34.5707 37.525 34.305 36.9749C33.151 34.5853 31.8088 32.2982 30.3022 30.1133L28.3323 27.4121C26.2749 24.824 24.4156 22.5609 23.666 19.2548C23.6282 19.0881 23.5435 18.4094 23.4904 18.3264L22.5186 18.3351Z" fill="black"/>
</svg>
