<svg width="40" height="40" viewBox="0 0 40 40" fill="none" xmlns="http://www.w3.org/2000/svg">

<g clip-path="url(#clip0_1_44)">
<path d="M33 20.0792C33 12.855 27.1805 7 20 7C12.8195 7 7 12.855 7 20.0792C7 26.6086 11.7531 32.0191 17.9688 33V23.8599H14.668V20.0792H17.9688V17.1977C17.9688 13.9202 19.9086 12.1091 22.8793 12.1091C24.3012 12.1091 25.7891 12.3645 25.7891 12.3645V15.5832H24.1488C22.534 15.5832 22.0312 16.5923 22.0312 17.6268V20.0792H25.6367L25.0604 23.8599H22.0312V33C28.2469 32.0191 33 26.6086 33 20.0792Z" fill="white"/>
</g>
<defs>
<clipPath id="clip0_1_44">
<rect width="26" height="26" fill="white" transform="translate(7 7)"/>
</clipPath>
</defs>
</svg>
