<svg width="36" height="26" viewBox="0 0 36 26" fill="none" xmlns="http://www.w3.org/2000/svg">
<path d="M7.52684 25.2825L7.41777 25.3026C6.81195 25.4139 6.4955 24.9855 6.49241 24.4354L6.48345 23.7587C6.45027 23.2319 6.29952 22.691 6.16564 22.1817C5.53794 22.0534 4.99953 21.593 4.82867 20.965C4.68416 20.4339 4.78719 19.8696 4.66578 19.339L4.53678 19.289C3.92783 19.0413 3.51631 18.578 3.26445 17.9733L0.673204 11.2471C0.38436 10.4896 0.0202356 9.78456 0.0195324 8.95937C0.0177512 6.77879 2.00839 5.13934 4.12194 5.72584C4.36503 5.79329 4.59552 5.90096 4.82534 6.00334C4.95917 3.08171 6.94339 0.945478 9.90224 0.657431C10.013 0.625181 10.199 0.649369 10.3167 0.648806C12.8096 0.637415 14.9405 2.19938 15.8055 4.52293C16.066 5.22268 16.0591 5.97742 16.1392 6.7066L16.8891 16.0341C16.903 16.1873 16.9375 16.3371 16.9439 16.4916L16.9515 19.3684C16.9191 20.0498 16.6842 19.6575 16.944 20.4293L16.9696 20.5113C17.125 20.8833 17.2377 21.2625 17.3723 21.6408C17.8515 22.988 17.8443 23.3249 16.47 23.6303L9.62305 24.9651L7.52684 25.2825ZM10.1732 1.85331C9.75744 1.88912 9.34217 1.93731 8.9412 2.05778C6.81125 2.69771 5.55753 4.99088 6.08356 7.14831L6.09341 7.18965C6.15299 7.41976 6.39519 7.89381 6.50769 8.15143L8.17367 12.3233C8.47944 13.0298 7.57405 13.5595 7.19342 12.9058C6.9545 12.4956 6.79423 11.9977 6.61138 11.5578L5.66281 9.25046C5.39595 8.55709 5.22697 7.69595 4.58183 7.23999C4.1518 6.93606 3.5968 6.72404 3.06331 6.81582C2.1838 6.96709 1.28652 7.61176 1.20725 8.56988L1.20378 8.60827C1.16652 9.06835 1.20781 9.38551 1.36147 9.81207L2.8078 13.5187L3.75936 15.9762C3.78711 16.0669 3.82855 16.1554 3.85967 16.2457L4.26758 17.3121C4.62552 18.1894 4.71547 18.2123 5.57792 18.0864L9.73808 17.4849L14.7102 16.6152C15.044 16.5519 15.4202 16.5329 15.7415 16.425C15.6759 15.9561 15.6836 15.4861 15.6482 15.0152L15.0213 7.37452C14.9688 6.54535 14.9504 5.69476 14.686 4.90004C14.0561 3.00638 12.1453 1.78538 10.1732 1.85331ZM15.7603 17.6519L6.38089 19.1855C5.66347 19.3021 5.83756 19.1384 5.89297 19.7979L5.9472 20.4337C5.96689 20.6428 5.97074 20.693 6.12205 20.8518C6.79625 21.3301 8.66389 20.919 9.42688 20.8085L13.6081 20.0939L14.9225 19.7405C15.1828 19.6574 15.4575 19.5691 15.6985 19.4383L15.7865 19.3826C15.7612 18.9885 15.8423 17.9389 15.7782 17.6539L15.7603 17.6519ZM15.7809 20.6988C14.4306 21.1962 13.0143 21.4333 11.6014 21.6776L7.79516 22.2347C7.65917 22.2509 7.50453 22.2431 7.37338 22.2716C7.47163 22.7395 7.60372 23.2202 7.64005 23.6988C7.65552 23.9027 7.57508 24.2191 7.92725 24.032L16.4339 22.4253L16.051 21.3791C15.979 21.1659 15.9407 20.9065 15.8318 20.711L15.7809 20.6988Z" fill="black"/>
<path d="M29.2104 25.1696L29.1645 25.196C28.8955 25.3513 28.6415 25.3055 28.3418 25.2787L25.3524 24.9613L23.9769 24.7176L19.184 23.5688C18.2723 23.2959 18.2409 22.9202 18.4994 22.0355C18.651 21.5166 18.8087 21.0024 19.0038 20.4977C19.1343 20.1605 19.2269 20.2045 19.123 19.8537C18.9626 19.3121 19.0252 18.7681 19.0313 18.2112L19.0443 16.4736C19.0527 16.3203 19.0823 16.1712 19.0967 16.0189L19.3377 12.5076L19.77 7.4275C19.823 6.63381 19.8286 5.83131 20.013 5.05319C20.5931 2.60435 22.7132 0.892705 25.2068 0.657721C25.5729 0.636439 25.9644 0.626408 26.3257 0.691705L26.7074 0.74458C29.0443 1.17531 30.9266 3.13145 31.1622 5.50446C31.1796 5.67935 31.183 5.84327 31.2146 6.01839C33.0434 5.06055 35.0883 5.9133 35.8147 7.85524C36.2757 9.08763 35.6914 10.2985 35.2538 11.4295L33.0956 16.9841C32.8168 17.7067 32.6225 18.5453 31.9391 19.0014L31.3542 19.3607C31.2895 19.3927 31.2904 19.5766 31.2877 19.6443C31.2424 20.7968 31.3356 21.9347 29.8442 22.1736C29.7191 22.7707 29.5742 23.3859 29.5197 23.9942C29.4758 24.4831 29.6037 24.7882 29.2104 25.1696ZM25.4704 1.85369C23.276 2.02666 21.6158 3.23969 21.1061 5.48833C21.0223 5.85799 21.02 6.25961 20.9895 6.63649L20.4096 14.2595C20.3562 14.9839 20.2579 15.7072 20.2366 16.4339C20.5108 16.5149 20.8062 16.5476 21.0877 16.5974L30.4223 18.0896C31.5397 18.2784 31.4682 17.9431 31.8292 17.008L33.3285 13.1818L34.3274 10.6012C34.4911 10.1752 34.7033 9.73671 34.7744 9.283C35.1331 6.99583 31.9954 5.80919 30.8746 7.85369C30.7766 8.03247 30.7097 8.23694 30.6337 8.42608L29.1568 12.1209C29.0431 12.3809 28.9619 12.7034 28.8127 12.9412C28.4402 13.5348 27.5947 13.0696 27.797 12.4112C28.0213 11.681 28.3686 10.9601 28.6567 10.2513L29.6359 7.78305C29.9506 7.02461 30.0013 7.08292 30.0025 6.15761C30.0059 3.66508 27.9711 1.71475 25.4704 1.85369ZM20.1836 17.6488L20.1597 19.3385C20.7732 19.9765 28.6658 21.5772 29.9551 20.8554C30.1458 20.7172 30.1373 19.6173 30.1935 19.268L20.1836 17.6488ZM20.2147 20.7288L19.5833 22.4479C20.4514 22.7539 21.3513 22.9641 22.2485 23.1624L24.2933 23.5923L28.0963 24.0774L28.3318 24.0872L28.6405 22.2281C27.1575 22.198 25.6463 21.9286 24.1906 21.6736L21.514 21.1159C21.0767 21.0035 20.6356 20.8941 20.2147 20.7288Z" fill="black"/>
</svg>
