<svg width="38" height="36" viewBox="0 0 38 36" fill="none" xmlns="http://www.w3.org/2000/svg">
<path d="M28.3767 33.2829C27.6599 34.9607 25.4354 35.4248 23.8074 35.4367L14.1641 35.4359C13.9206 35.4329 13.66 35.4387 13.4203 35.3916L12.2737 35.2251C11.3448 35.0194 10.336 34.4259 9.82448 33.6106C9.0922 32.4434 9.20667 30.7148 9.37153 29.3816L10.1999 22.9045L10.1337 19.6105C10.0376 19.8543 9.96703 20.1359 9.87628 20.3899L7.87049 26.2618C7.30476 27.9305 6.67289 29.9253 5.28323 31.1082C5.16239 31.2111 5.06774 31.2395 5.01651 31.3933L4.5637 32.8243C4.37573 33.4346 4.06106 33.4565 3.53264 33.4057C2.93526 33.3482 1.16639 33.0648 0.660417 32.6929C0.100073 32.281 0.461386 31.7317 0.665573 31.246C0.789417 30.9514 0.901963 30.6489 1.04639 30.3634C1.4009 29.6627 1.11965 30.125 1.01667 29.3781L1.01198 29.3419C0.894792 28.4812 1.24443 27.1672 1.50079 26.3245L3.84618 19.4111L5.33821 13.9394C5.48001 13.369 5.61178 12.7828 5.6759 12.1983L5.80917 10.4731C6.02123 8.39497 7.20023 6.46958 9.14859 5.61341C9.60754 5.41175 10.1006 5.26808 10.5802 5.1245L11.7432 4.78986L11.7046 4.53781C11.5688 3.36566 11.8487 0.700109 13.4027 0.523438C14.1864 0.559859 14.8221 1.36231 14.9576 2.10148L15.3453 3.62534C16.0512 5.55233 18.0764 7.05795 20.1445 6.25916C21.5273 5.72506 22.4487 4.46469 22.8299 3.06388C22.9605 2.58383 22.9894 2.10177 23.1955 1.64075C23.8744 0.122562 25.4129 0.177313 25.951 1.82877C26.2164 2.64341 26.4781 3.90448 26.2739 4.76994L26.2651 4.80495C26.5464 4.91389 26.8763 4.96489 27.1693 5.04397C30.4054 5.91758 31.9604 7.5028 32.2247 11.0398L32.4083 12.8005C32.4612 13.1463 32.5573 13.4866 32.637 13.8261L32.8759 14.8595C32.9533 15.1873 33.0718 15.5126 33.1395 15.8423L33.3277 16.5429C33.3506 16.6655 33.3989 16.7798 33.4241 16.9027L35.3859 23.1564C35.4828 23.51 35.6417 23.8614 35.7686 24.2068L36.3586 25.882L36.824 27.6543C37.036 28.3313 37.0809 29.2878 36.8069 29.9415C36.7693 30.0314 36.8669 30.1686 36.9028 30.2579L37.4705 31.547C37.5265 31.6903 37.6096 31.8003 37.6339 31.9572L37.6388 31.9923C37.7976 33.0801 35.2501 33.3944 34.5018 33.4028C33.8999 33.4096 33.6242 33.2389 33.4154 32.6595L33.1568 31.8378C33.0093 31.3433 33.0099 31.3427 32.6244 31.0021C30.663 29.2692 29.7567 24.995 28.9417 22.564C28.6074 21.5669 28.1302 20.5996 27.8732 19.581C27.7376 20.1583 27.7902 20.8497 27.7886 21.4399L27.8101 23.1448C27.8194 23.3052 27.8503 23.4636 27.8655 23.6235L28.6682 30.0028C28.7694 31.0858 28.841 32.2695 28.3767 33.2829ZM24.5066 1.88684L24.4938 1.9063C24.3361 2.15441 24.2906 2.55936 24.229 2.84778L24.0276 3.63472C23.4818 5.49491 22.0316 7.18142 20.1018 7.64319C17.2532 8.32484 14.7699 6.29539 13.9919 3.61836L13.7721 2.7965C13.6984 2.48352 13.6391 2.15666 13.4879 1.871C13.0381 2.49594 12.9464 3.58142 12.9784 4.31848C13.0229 5.36506 15.0164 7.13764 15.7925 7.68322L17.0901 8.50747C17.7202 8.90286 18.3676 9.31255 19.0352 9.64227C19.3979 9.44427 19.7278 9.19555 20.0815 8.9832L21.5639 8.11902C22.6053 7.46206 24.5504 5.81867 24.9555 4.59388L24.9687 4.55727C25.148 4.04253 24.9354 2.24103 24.5399 1.88844L24.5066 1.88684ZM12.3046 5.98841C11.9425 6.11295 11.5604 6.19569 11.1904 6.29638L10.2877 6.58981C7.92178 7.39925 7.22662 8.92466 7.04779 11.2251C6.92287 12.8323 6.57074 14.3571 6.16542 15.916L5.56059 18.1537L3.7776 23.7392C3.53053 24.4395 1.91339 28.7259 2.30662 29.3462C2.5815 29.7799 4.07709 30.043 4.51907 30.0248C5.43403 29.1753 5.96812 27.8147 6.38095 26.6726L8.2656 20.9704L9.61706 17.3974C9.82387 16.778 9.86282 15.3778 10.5581 15.4216C11.0431 15.4522 11.1712 15.8356 11.1907 16.2538L11.4204 19.6161C11.4322 19.8013 11.473 19.9834 11.4821 20.1681L11.4942 21.9154C11.493 22.3741 11.5045 22.8432 11.4673 23.3001L10.7966 28.5697C10.6643 29.3884 10.5371 30.2015 10.5398 31.0325C10.5497 34.0512 12.5175 34.1378 14.8895 34.1406L21.7696 34.1401C23.2642 34.1396 25.2717 34.3508 26.5599 33.4326C27.4857 32.7728 27.4657 31.7561 27.4621 30.7443C27.4436 30.1687 27.3591 29.6023 27.2842 29.0325L26.5655 23.2358C26.5147 22.6759 26.5169 22.1354 26.5168 21.5717L26.5232 19.9572L26.7757 16.6632C26.7894 16.3873 26.7126 16.0115 26.868 15.769L26.8892 15.735C27.1747 15.288 27.7481 15.3276 27.9603 15.7946L27.972 15.8198C27.996 15.8729 28.0052 15.922 28.0148 15.979L28.0331 16.0559C28.1992 16.6504 28.2739 17.0734 28.4871 17.6916L30.473 23.0822L31.7061 26.9298C31.875 27.3434 32.0163 27.7602 32.2072 28.1661C32.3634 28.4986 33.1638 29.8909 33.4964 30.0394C33.7128 30.0278 33.9272 29.977 34.1391 29.9347C35.8829 29.587 35.9289 29.489 35.5871 27.9826C35.2223 26.3755 34.6031 24.869 34.0733 23.314L32.2809 17.603L31.6553 15.2111C31.4557 14.4116 31.2534 13.609 31.1263 12.7939C30.7807 10.5792 31.1488 8.99666 29.2116 7.33564C28.642 6.8473 26.5544 6.10803 25.6953 5.97261L25.1007 6.75627C23.849 8.31228 22.3038 9.2022 20.6162 10.2063C19.0307 11.1497 19.3829 11.3227 17.8091 10.4543C16.0502 9.48383 14.1523 8.399 12.8969 6.78519C12.7979 6.65787 12.403 6.02684 12.3046 5.98841ZM35.7275 30.8024L35.3362 30.988C34.9961 31.1238 34.6585 31.1649 34.3009 31.2203L34.5883 32.0978C34.6433 32.1098 34.6771 32.1081 34.7323 32.0971C35.1999 32.04 35.7324 31.955 36.1736 31.7855L35.7275 30.8024ZM2.28684 30.8322L2.27864 30.8567C1.812 32.221 1.40484 31.6359 3.34031 32.1178L3.41137 32.1212C3.48576 32.012 3.52382 31.8332 3.55893 31.705L3.71114 31.2132C3.36918 31.1603 3.04734 31.0956 2.71729 30.9902C2.59893 30.9524 2.40314 30.8294 2.28684 30.8322Z" fill="black"/>
</svg>
