<svg width="24" height="34" viewBox="0 0 24 34" fill="none" xmlns="http://www.w3.org/2000/svg">
<path d="M13.1177 23.8821L12.3095 19.0446C12.193 18.3872 12.1492 17.6563 11.9252 17.0282L11.9106 17.0926C11.7726 17.581 11.7463 18.1265 11.6718 18.6289L10.9384 23.3713L9.49103 32.0937C9.23575 33.2899 9.14683 33.4249 8.04109 33.3193L1.11353 32.3851C-0.0860934 32.2536 0.0655935 31.8063 0.171906 30.8398L1.05897 20.6786L2.18153 10.1914L2.55569 7.07418L3.25038 2.14059C3.3167 1.79587 3.33527 1.37507 3.47214 1.05276L3.48855 1.01559C3.62191 0.707526 3.85047 0.64415 4.17264 0.62976L19.9683 0.62915C20.5168 0.64626 20.5386 1.15143 20.625 1.55465L20.8121 2.57418C20.9428 3.20259 21.0094 3.83474 21.0976 4.46995L21.6336 9.09824C21.6495 9.23859 21.6433 9.38043 21.6591 9.52054L21.8965 11.1119L22.6463 17.8474L23.8231 30.8338C23.8542 31.1721 23.9943 31.681 23.8262 31.9992L23.7656 32.1012C23.5432 32.3918 23.2623 32.336 22.9443 32.3774L16.7173 33.2732C16.4321 33.3166 15.5869 33.4329 15.3153 33.3482L15.2808 33.3368C14.5706 33.1096 14.5487 32.1306 14.4268 31.5168L13.1177 23.8821ZM4.97927 1.81082L4.50245 1.80942C4.42436 2.01435 4.41128 2.20738 4.38053 2.42184L4.29653 2.92279C4.27497 3.08985 4.26367 3.26868 4.20611 3.42703L6.46248 3.45379C6.58267 3.48928 6.77392 3.46856 6.90677 3.46959C6.93278 3.27388 6.95655 3.07762 6.99831 2.88449L7.16983 2.15334C7.19373 2.05528 7.25008 1.91137 7.24567 1.81288L4.97927 1.81082ZM13.5103 1.81082C12.7531 1.8749 11.6125 2.30367 11.2787 3.02006C11.1705 3.25218 11.2835 3.31748 11.484 3.38338L11.5098 3.39224C11.7289 3.46298 12.0451 3.42562 12.2788 3.42604L13.7457 3.42665L15.9593 3.42782L15.658 1.81148L13.5103 1.81082ZM16.8463 1.81537C16.8664 2.02284 17.0623 3.24646 17.1664 3.42374L19.8119 3.42665L19.5092 1.82409L16.8463 1.81537ZM8.4767 1.81434C8.30987 2.31656 8.17717 2.90859 8.14722 3.42529L9.88216 3.43012L9.9272 3.09154C10.0669 2.60053 10.3023 2.22745 10.617 1.83112L8.4767 1.81434ZM12.2162 4.60303L12.3154 10.7945C12.5129 10.6142 12.5786 10.5996 12.7936 10.3558C13.0242 10.0585 13.1572 9.72168 13.2078 9.34762L13.213 9.31153C13.2816 8.79285 13.238 8.21756 13.2384 7.69209L13.2389 4.60059L12.566 4.59899C12.4537 4.59876 12.3266 4.58676 12.2162 4.60303ZM17.4285 4.59121C17.3956 6.10785 18.3741 7.81945 19.8008 8.41176C19.9764 8.4847 20.1906 8.57938 20.3814 8.59762C20.3776 7.58174 20.203 6.55087 20.092 5.54179L20.0274 4.86149C20.0178 4.77707 20.0178 4.65988 19.98 4.58526L17.4285 4.59121ZM4.02194 4.60303L3.59861 8.62129C4.20592 8.48217 4.83944 8.16702 5.28888 7.73123C6.07759 6.93379 6.48808 5.71842 6.60217 4.61071L4.02194 4.60303ZM7.82317 4.60298L7.59634 5.55074C7.32934 6.87792 6.77809 8.19234 5.61217 8.97796C4.96998 9.41067 4.20161 9.7762 3.42311 9.86554L1.28331 31.2456L5.16128 31.7475L8.31695 32.1549L8.52128 31.0947L10.6785 17.2812L11.0827 14.2163C11.1499 13.6859 11.1543 13.472 11.1515 12.925L11.1013 4.61024L7.82317 4.60298ZM14.3918 4.60303L14.3476 8.92204C14.3461 10.0532 14.0644 11.1326 12.9957 11.7509L12.5213 12.0022L12.6108 13.0005C12.6441 13.4683 12.6981 13.9224 12.7492 14.3877L14.1094 22.7773L15.5161 31.0156C15.5934 31.3776 15.6015 31.7866 15.7314 32.1324L20.2515 31.5381L22.7321 31.2278L21.5416 18.4012L20.7489 11.323C20.6817 10.8242 20.6644 10.307 20.5519 9.81651C18.0316 9.45407 16.7839 7.64526 16.3422 5.29199C16.2994 5.0639 16.2868 4.82967 16.2337 4.60326L14.3918 4.60303Z" fill="black"/>
</svg>
