<svg width="38" height="33" viewBox="0 0 38 33" fill="none" xmlns="http://www.w3.org/2000/svg">
<path d="M25.2641 31.3488C24.8981 31.532 24.728 31.5173 24.3552 31.5625L21.4261 31.8851C21.1613 31.907 20.8989 31.9483 20.6328 31.9587L17.3123 31.9518L14.2893 31.6105C13.4546 31.4622 12.6435 31.3053 11.9214 30.8323C10.5025 29.9026 10.164 28.8199 10.1632 27.2619L10.1695 25.1259C10.1736 24.8288 10.2843 24.4338 10.1561 24.158C9.94534 23.7049 9.81385 23.1684 9.67374 22.6875L9.29148 21.3357C8.95027 19.9253 8.71951 18.472 8.49746 17.0391C8.40474 16.4407 8.24645 15.8441 8.16798 15.2443L8.1654 15.2234C7.41019 16.4403 6.97627 18.1446 6.8664 19.587L6.72085 21.4805C6.70027 21.7446 6.70018 22.0125 6.66704 22.2756L5.21659 31.4759C5.11998 32.323 5.13648 32.5972 4.23385 32.5997L1.30055 32.5988C0.800867 32.5746 0.738055 32.1865 0.737305 31.8032L0.73857 22.6509C0.739273 21.3858 0.985601 20.2507 1.27857 19.0196L2.9798 12.5903C3.4352 11.0236 3.8731 10.1744 4.74526 8.76324L5.65079 7.40063C6.60943 5.99119 7.76143 4.62061 9.3668 3.93178C9.9849 3.66657 11.8125 3.41442 12.0624 3.23377C12.3735 3.00886 12.6119 2.64385 12.8225 2.32824L13.3973 1.50277C13.5727 1.26314 13.6778 1.0598 13.9829 0.98766C14.3591 0.958035 14.9822 1.5608 15.3534 1.7745C17.8934 3.23705 19.9717 3.28955 22.5478 1.81407L23.1017 1.46789C23.8295 0.962347 23.9633 0.633425 24.6427 1.53305L25.1943 2.30499C25.8054 3.21328 25.679 3.21957 26.6635 3.42127C29.9422 4.09289 31.0564 5.42457 32.7946 8.04853C33.6383 9.32213 34.5665 10.7181 34.9221 12.2256L35.1074 12.8672C35.1669 13.1758 35.3273 13.7843 35.4212 14.0716L36.2375 17.1026C36.3535 17.7101 36.6267 18.3523 36.7079 18.957L37.1683 21.129C37.2251 21.3708 37.2242 21.612 37.2278 21.8596L37.2349 32.0626C37.2125 32.5844 36.6678 32.6005 36.2907 32.5998L34.1003 32.6006C32.9191 32.6011 32.9609 32.6544 32.7861 31.3889L31.3279 22.2313C31.2301 21.5182 31.2434 20.802 31.1758 20.115C31.0276 18.6086 30.6062 16.518 29.7993 15.1894C29.6651 15.6655 29.6299 16.167 29.547 16.6524L28.7446 21.2688C28.6106 21.9405 28.3231 23.6586 27.9763 24.1875C27.6665 24.6601 27.7921 24.6503 27.7917 25.2526L27.791 27.0273C27.7906 27.5715 27.852 28.2003 27.687 28.7247L27.5603 29.0873C27.1512 30.1242 26.2369 30.8687 25.2641 31.3488ZM23.8286 2.58066L23.1517 2.99236C21.6531 3.75975 20.1152 4.38718 18.3857 4.21172C16.9314 4.06416 15.3905 3.41086 14.1973 2.59678C13.9576 3.01233 13.6946 3.42399 13.3718 3.78089L12.9679 4.18749C12.7857 4.36566 12.8546 4.49944 12.9186 4.74614L12.9448 4.82278C13.3169 5.84738 14.116 6.8086 14.887 7.56807C15.8907 8.49924 16.9253 9.26954 18.262 9.67716C19.0025 9.90296 19.1138 9.86639 19.8466 9.61622C21.8348 8.93733 24.4178 6.87122 25.085 4.7678C25.1273 4.63425 25.1865 4.48941 25.2041 4.35052C24.6564 3.85027 24.1876 3.22758 23.8286 2.58066ZM11.5561 4.74614C8.51152 5.14533 7.30168 7.13119 5.7698 9.59199C4.97635 10.8666 4.60487 11.5641 4.19584 13L2.53356 19.3243C2.42476 19.7685 2.29946 20.2213 2.2217 20.6719L2.08421 21.6144C1.96637 22.4001 2.00424 22.9192 2.00349 23.7086L2.00171 30.8129C2.00195 30.9439 1.99065 31.0872 2.0056 31.217L3.9743 31.283L5.29412 22.7194L5.52784 19.6816C5.63504 18.2429 5.97216 16.9473 6.54709 15.6261L7.74249 13.1525C7.86231 12.9192 7.93468 12.5926 8.14205 12.4282C8.47726 12.1624 8.9244 12.3057 9.0638 12.7032L9.07482 12.7286C9.12685 12.8508 9.1223 12.9733 9.14223 13.1018L9.86096 17.3907C9.96427 17.8973 10.0016 18.423 10.1057 18.9303L10.4424 20.5115C10.5748 21.0764 10.6859 21.6832 10.883 22.2266L11.249 23.3587C11.525 23.4209 11.7921 23.5274 12.0667 23.5996L13.7162 23.9568C13.9374 23.999 14.1607 24.06 14.3831 24.092L17.3015 24.3756L20.447 24.375L22.2677 24.2313C23.4711 24.1176 24.663 23.9651 25.8323 23.6491L26.6292 23.4374C26.7273 23.4081 26.8457 23.3861 26.935 23.3363L27.7761 19.3648C27.8917 18.841 27.9513 18.2946 28.0381 17.7645L28.8441 13.1719C28.9241 12.712 29.0262 12.1804 29.6325 12.3399C30.0645 12.4535 30.4594 13.564 30.6499 13.9432C30.9091 14.459 31.2002 14.9871 31.4035 15.5274L31.705 16.3008C32.0277 17.2307 32.2667 18.2279 32.3664 19.2077L32.4957 21.1827L34.0611 31.2675L35.9697 31.2509L35.9715 25.5372C35.9713 24.1688 36.002 22.8041 35.8886 21.4396C35.8274 20.7042 35.6304 19.979 35.461 19.2636L34.5005 15.6058C34.1148 14.196 33.8394 12.7102 33.2407 11.3714C32.8557 10.5106 32.3424 9.72769 31.8281 8.94146C30.431 6.80602 29.2158 5.09447 26.4679 4.74164C26.0754 6.04177 25.3983 7.07278 24.464 8.06124C23.1367 9.46566 20.6644 11.2928 18.7374 11.1307C18.5027 11.111 18.2587 11.0415 18.0341 10.9733C15.3802 10.1676 12.316 7.54514 11.5972 4.75847L11.5561 4.74614ZM11.4331 24.8321C11.3907 25.2012 11.451 25.568 11.4537 25.9383C11.4653 27.565 11.0888 28.7993 12.7307 29.7983L12.7359 25.1293C12.6065 25.0902 12.4725 25.0727 12.3414 25.0398L11.7357 24.8798C11.6419 24.8554 11.5285 24.8112 11.4331 24.8321ZM26.4811 24.8555L25.2307 25.1461L25.2399 29.8494L25.4668 29.7042C26.373 29.1175 26.5265 28.4321 26.5286 27.478L26.5315 25.1916C26.5321 25.082 26.5469 24.9605 26.5321 24.8528L26.4811 24.8555ZM14.0148 25.3946L14.0056 30.2198C14.8635 30.4895 16.6632 30.5785 17.576 30.634C17.8268 30.6492 18.0903 30.6297 18.3383 30.6625L18.3644 26.9094C18.3645 26.7261 18.4053 25.7967 18.3488 25.6835L16.8557 25.6656C16.6472 25.6593 16.4404 25.6223 16.232 25.6093L14.5003 25.4612C14.3486 25.4371 14.1678 25.3848 14.0148 25.3946ZM23.9072 25.3946L19.6486 25.6821C19.601 25.9347 19.624 26.2182 19.6238 26.475L19.6236 29.657C19.6237 29.831 19.5673 30.6958 19.6904 30.6585L23.9849 30.296L23.9799 26.05C23.9785 25.8384 23.9858 25.6152 23.9573 25.4054L23.9072 25.3946Z" fill="black"/>
</svg>
