<svg width="48" height="48" viewBox="0 0 48 48" fill="none" xmlns="http://www.w3.org/2000/svg">
<path d="M24.7562 33.9429L24.0786 27.4714C24.0484 27.1721 24.0019 26.9751 23.9633 26.7035C23.8855 26.8657 23.902 27.1289 23.8968 27.307L23.5822 31.1103L22.9255 36.6967C22.8826 37.0545 22.8563 37.395 22.8394 37.757L22.7995 38.3879C22.7618 39.5699 22.5239 40.4473 21.5539 41.265C21.245 41.5254 21.2805 41.3539 21.2798 41.7918L21.2769 42.9874C21.2733 43.9476 21.2165 44.292 20.1559 44.5316C18.5462 44.8953 16.9009 44.9569 15.2692 44.7318C14.3769 44.6087 14.3637 44.4266 14.3627 43.5503L14.3553 41.8884C14.3248 41.8576 14.3367 41.8628 14.3026 41.8491C13.2355 41.4205 12.5374 40.354 12.281 39.2695C12.1758 38.8242 12.206 38.401 12.2066 37.945L12.3012 33.9164C12.3112 33.4984 12.3721 33.0844 12.3744 32.6661L12.3813 25.535C12.3839 25.2476 12.4394 24.9659 12.4431 24.6823L12.501 20.0106L12.5833 17.9179L12.968 14.3089C13.1037 13.3262 13.3102 12.3289 13.579 11.3738L14.7327 7.94121C14.8259 7.68363 14.923 7.70965 15.1406 7.59921C15.5758 7.37824 15.5878 6.22568 15.5866 5.83005L15.5865 4.17999C15.5869 4.00246 15.5552 3.72143 15.6159 3.55861L15.6333 3.51555C15.7267 3.26679 15.8716 3.13569 16.141 3.07516C16.7829 3.03179 17.4479 3.06539 18.0925 3.06536L31.6286 3.06736C32.5144 3.08093 32.4148 3.82325 32.4148 4.45796L32.4143 5.71727C32.4139 7.86082 33.1467 7.43341 33.2721 7.98762L34.0321 10.2187C34.1287 10.4845 34.2352 10.7652 34.2972 11.0409L34.7143 12.7382C34.7961 13.0601 34.8368 13.4013 34.8873 13.7299L35.0764 15.3633C35.0843 15.4448 35.1081 15.5209 35.1141 15.6056L35.3433 19.3181C35.3507 19.7978 35.4155 20.2615 35.4248 20.7421L35.4455 22.3504C35.4502 22.5029 35.4788 22.6525 35.4843 22.8046L35.5381 25.4934C35.5473 25.7457 35.5934 25.9938 35.5983 26.2471L35.7211 33.8703C35.7277 34.164 35.7795 34.4513 35.7867 34.7456L35.7885 37.8351C35.7885 38.261 35.8596 38.7514 35.7558 39.1669C35.4963 40.2052 34.9816 41.1385 34.0287 41.6898C33.6653 41.9002 33.6269 41.7435 33.6271 42.1633L33.6276 43.5472C33.6274 43.7621 33.6698 44.1006 33.5855 44.2934L33.5731 44.3202C33.262 45.0019 32.6565 44.8864 32.0401 44.8873L30.4486 44.8804C29.6165 44.8404 27.5516 44.6702 27.0632 44.2324C26.6891 43.897 26.7387 43.4841 26.738 43.0346L26.731 41.5601L26.4996 41.3658C24.7681 39.8906 25.301 38.3229 25.0542 36.4101L24.7562 33.9429ZM21.5093 4.33268L16.837 4.33692L16.8533 5.61316C16.8535 6.32876 16.8456 6.96236 16.5763 7.6383L26.4958 7.64458L31.4437 7.65607C31.2268 7.1141 31.1929 6.62111 31.1927 6.04708L31.1928 4.83874C31.1929 4.71827 31.2258 4.43868 31.1789 4.33683L21.5093 4.33268ZM16.515 8.90885L15.7281 8.91635C15.6632 9.03663 15.6488 9.14585 15.6036 9.27002L15.3664 9.90808C14.6509 11.9092 14.0987 14.0578 14.0101 16.1932C15.4833 16.3248 17.7246 15.9976 18.1844 14.3437C18.2834 13.9874 18.2594 13.6164 18.7263 13.5483C19.0797 13.4967 19.3311 13.6792 19.4337 14.0038L19.4461 14.0368C19.5036 14.2112 19.4556 14.3748 19.4073 14.5429C19.0331 15.846 18.0972 16.7924 16.7765 17.1767L15.5673 17.4029C15.0729 17.478 14.3696 17.4753 13.8701 17.4225C13.8257 17.696 13.8238 18.0147 13.804 18.296L13.7774 19.1462C13.7733 19.2724 13.7504 19.3962 13.748 19.5229L13.74 20.8743C13.732 21.0754 13.6961 21.2721 13.6922 21.4745L13.6603 26.8895C13.6553 27.1577 13.5951 27.4191 13.5925 27.6913L13.585 33.6864C13.5813 34.1649 13.5063 34.6419 13.4896 35.1193L13.4776 38.5796C13.4802 39.7515 14.2334 40.6772 15.3996 40.9127L15.5233 40.9368C15.7533 40.981 16.023 40.9572 16.2573 40.9573L18.8188 40.957C20.0367 40.9562 20.9435 40.613 21.4271 39.351C21.5441 39.0455 21.591 38.7742 21.5936 38.4476L21.6041 37.4765C21.6165 37.2268 21.657 36.9634 21.6853 36.7141L22.7727 26.8549L23.3793 19.2341C23.4037 18.9172 23.4046 18.5225 23.7536 18.3772C24.3703 18.1202 24.5314 18.6691 24.5956 19.1081L25.6819 31.1426L26.3657 37.0798C26.4916 37.807 26.3081 38.568 26.523 39.2803C26.9015 40.5354 27.9842 40.9504 29.1596 40.9531L31.6121 40.9525C32.1357 40.9512 32.6485 40.9627 33.1408 40.7475C34.618 40.1017 34.5819 38.8503 34.5773 37.5426L34.5625 35.8478C34.5523 35.6574 34.5103 35.4748 34.5064 35.2824L34.4969 32.2402C34.4912 32.0379 34.4335 31.8448 34.4275 31.6395L34.4182 27.9709C34.4158 27.5317 34.3518 27.0968 34.3425 26.6591L34.3246 23.9652C34.3152 23.6604 34.2549 23.3671 34.2481 23.0609L34.2277 20.7656C34.2178 20.5866 34.1688 20.414 34.1577 20.2399L34.0428 17.4847C31.4547 17.4767 29.2335 17.2002 28.5575 14.3538C28.4271 13.8046 29.0175 13.3584 29.4958 13.654L29.5219 13.6698C30.1589 14.0812 29.4029 16.2065 33.2584 16.2137C33.4817 16.2141 33.7141 16.2262 33.9353 16.1981L33.7439 14.2616C33.6137 13.3149 33.406 12.3921 33.1461 11.4727L32.77 10.2974C32.7062 10.1239 32.3323 8.97696 32.2709 8.90604L24.6337 8.90632C24.6116 9.10169 24.628 9.2989 24.6282 9.49511L24.6252 14.9167C24.6249 15.3686 24.5761 16.0093 23.8982 15.9111C23.7328 15.8871 23.6325 15.7942 23.5347 15.6679L23.5091 15.6353C23.3382 15.4121 23.4041 15.0559 23.4038 14.7901L23.3928 8.91447L16.515 8.90885ZM28.0019 42.1134L28.0093 43.3043C28.8805 43.5023 29.7985 43.6052 30.691 43.6088L32.4141 43.6128L32.4134 42.205C32.0656 42.1641 31.6901 42.1887 31.3396 42.188L29.282 42.1871C28.8735 42.1868 28.4467 42.2155 28.0472 42.119C28.0137 42.1109 28.0277 42.1116 28.0019 42.1134ZM20.0069 42.1288C19.4006 42.2426 18.7659 42.1925 18.1657 42.1909L15.5751 42.1871L15.5802 42.9781C15.578 43.164 15.5524 43.3555 15.5973 43.5367L15.68 43.5677C16.2597 43.636 17.7888 43.6658 18.3208 43.5557L20.0678 43.2893C20.0857 42.9125 20.1115 42.4957 20.0654 42.1227L20.0069 42.1288Z" fill="black"/>
</svg>
