<svg width="32" height="46" viewBox="0 0 32 46" fill="none" xmlns="http://www.w3.org/2000/svg">
<path d="M3.96415 43.132L3.49606 43.109C2.00276 42.9556 0.777685 41.5706 1.00981 40.0471C1.05289 39.7643 1.1607 39.4812 1.25468 39.2125L2.72647 34.3914L3.08272 32.8167C3.73475 30.0859 4.55412 27.9027 5.82092 25.4064L8.59887 19.9962C9.48439 18.1352 9.64695 17.3652 8.99164 15.3828C8.35728 13.4637 6.854 11.4582 6.80961 9.56632C6.77867 8.24824 6.88512 7.09695 7.89875 6.09992C8.11283 5.88935 8.11709 5.94368 8.06708 5.66796L7.65561 2.86718C7.5994 2.52026 7.54151 2.14994 7.59237 1.79692C7.88047 -0.202348 10.9574 -0.528514 11.4908 1.40979L11.5014 1.44921C11.5215 1.50571 11.5423 1.54742 11.5527 1.60714L11.5586 1.64219C11.6184 1.97132 11.5879 2.31523 11.6115 2.64914L11.8495 5.09257C11.8669 5.21131 12.0709 5.26479 12.1762 5.31471C13.0008 5.70588 13.6727 6.28507 14.3078 6.92688L15.1421 7.78578C15.4159 8.07992 15.6882 8.41929 16.0158 8.65296C16.234 8.44976 16.428 8.21637 16.6325 7.99915L17.3099 7.31004C17.866 6.72392 18.431 6.12664 19.1207 5.69496C19.4261 5.50385 20.1545 5.29807 20.1778 5.04298L20.3393 3.13671C20.3526 2.98398 20.3767 2.83324 20.3832 2.67968L20.3933 1.95587C20.3948 1.81485 20.384 1.63135 20.4428 1.50141L20.5947 1.15624C20.9401 0.50013 21.5411 0.175352 22.2498 0.0872598C22.2878 0.0608504 22.5442 0.0850286 22.5924 0.0918583L22.9016 0.138185C23.9665 0.337577 24.5795 1.56608 24.3856 2.56844C24.3405 2.80153 24.3324 3.04031 24.3009 3.27528L23.9581 5.72346C23.9355 5.94354 23.918 5.89259 24.0806 6.04718C25.0216 6.9416 25.3356 8.65395 25.1728 9.92187C24.967 11.5253 24.0474 12.8266 23.4075 14.2695C22.9299 15.3466 22.3777 16.9536 22.6504 18.1582C22.8032 18.8331 23.1361 19.4664 23.4335 20.0842L25.6917 24.2767L27.66 28.205L28.5738 30.4197C28.6872 30.687 28.7635 30.9784 28.8602 31.2528L29.5354 33.4589C29.6341 33.8227 29.6957 34.1994 29.7814 34.5664L30.3051 37.108C30.3739 37.4119 30.438 37.7498 30.5469 38.0414L30.8135 38.8789C30.9873 39.3578 31.1113 40.0583 31.0642 40.5668C30.9403 41.9039 29.7188 43.0561 28.3826 43.1273C27.9975 43.1478 27.6054 43.1074 27.2214 43.1394C25.8861 43.2506 24.59 43.8401 23.3608 44.3299L20.3948 45.4054C19.0173 45.8314 17.7668 45.8261 16.3366 45.8262C13.5159 45.8265 12.6763 45.8185 10.094 44.8475L9.08403 44.5041C7.15634 43.8149 6.08201 43.1319 3.96415 43.132ZM22.358 1.46491C22.1868 1.50664 22.0768 1.54213 21.9335 1.65043L21.9126 1.66556C21.853 1.71123 21.803 1.7929 21.7923 1.86701L21.6288 5.01396C21.8947 5.03131 22.1636 5.0411 22.423 5.1071L22.6406 5.15932L22.9661 2.85736C23.0319 2.3559 23.2246 1.41078 22.358 1.46491ZM9.45819 1.48772C9.25822 1.53472 9.15453 1.60831 9.03373 1.77734L9.01489 1.80279C8.85162 2.03218 9.12748 3.68255 9.19353 3.96068L9.36861 5.15173L9.84176 5.06088C10.0329 5.0299 10.2245 5.00384 10.4187 5.01078L10.306 3.60546C10.28 3.34651 10.2282 1.97392 10.1505 1.83136L10.1312 1.79528C9.98529 1.52868 9.74703 1.44472 9.45819 1.48772ZM10.218 6.41356C8.58922 6.65806 8.19336 7.87184 8.195 9.27523C8.19687 10.872 8.99112 11.8551 9.63912 13.2434C9.93092 13.8684 10.1018 14.5195 10.3584 15.152C11.1726 14.9402 12.0387 15.007 12.8752 15.0068L15.5901 15.0076L17.6852 14.9744C17.6165 14.8997 17.5876 14.7966 17.529 14.7143C16.8357 13.7405 16.2524 12.5498 15.8555 11.4219L15.6017 10.6002C15.456 10.0975 15.3468 10.1057 14.9939 9.71768L13.9589 8.6097C12.9902 7.56012 12.2047 6.53848 10.6936 6.41412L10.218 6.41356ZM21.3096 6.4152C20.4132 6.53009 19.825 6.84171 19.1686 7.44738L16.8203 9.78814C16.8467 9.97953 16.9192 10.1978 16.9853 10.3789L17.407 11.5535C17.8138 12.6199 18.4846 13.6398 19.1327 14.5695C19.2342 14.7152 19.3162 14.8991 19.4338 15.0284L19.5335 15.0319L20.5575 15.0133C20.9753 15.016 21.2622 15.0385 21.6501 15.1839C21.7011 15.0614 21.7146 14.9069 21.7542 14.7766C22.3925 12.6706 24.1895 10.7119 23.7649 8.5039C23.6438 7.87395 23.3876 7.1599 22.834 6.77815L22.6917 6.69415C22.2777 6.46432 21.7842 6.34953 21.3096 6.4152ZM18.1569 16.4339L11.8204 16.4347C11.4876 16.4349 10.7201 16.2657 10.7558 16.7831L10.7813 17.1913C10.7995 17.5139 10.7901 17.8217 10.776 18.1438L13.9026 18.1429L21.2465 18.1171C21.1857 17.7371 21.212 17.3384 21.2265 16.9552C21.2554 16.193 20.9385 16.4261 20.2168 16.4321L18.1569 16.4339ZM10.3781 19.5215C10.1503 20.0763 9.86276 20.604 9.60261 21.1484L8.4139 23.8944C7.50148 26.3091 6.93551 28.871 6.48922 31.4089L5.87126 35.6153C5.81351 36.2101 5.0382 36.4486 4.66076 35.9605L4.63981 35.9337C4.31426 35.5019 4.97487 31.8222 5.08958 31.2556L5.34059 30.0681C5.36464 29.9438 5.42197 29.7641 5.39815 29.643L2.42806 39.9864C2.37922 40.1399 2.35447 40.3368 2.37251 40.4961L2.3765 40.5333C2.53451 41.9179 4.06793 41.6872 5.00722 41.7638C6.52784 41.8877 7.68551 42.4668 9.07011 43.0278C9.52887 43.2136 10.0042 43.3312 10.469 43.4961L11.9633 44.0699C12.7182 44.3189 13.424 44.4045 14.2093 44.4066L17.1367 44.409C17.5802 44.4089 18.035 44.4266 18.4767 44.3863C19.6695 44.2776 20.7818 43.7302 21.9093 43.3731C23.738 42.8649 25.0078 41.8693 27.1323 41.7591C27.6229 41.7337 28.1381 41.7975 28.6119 41.6391C29.4876 41.3464 29.8697 40.5365 29.6201 39.6596L28.8817 37.1532L28.2936 34.2409C28.0148 33.0051 27.6053 31.7863 27.1482 30.6062L26.8571 29.8074C26.714 29.4532 26.5424 29.1141 26.372 28.7727L27.3741 33.327C27.4587 33.6594 27.6441 35.2855 27.602 35.6459C27.5163 36.3786 26.3527 36.4402 26.22 35.6262L26.0208 33.8893L24.6844 27.6379C24.1665 25.5225 23.5333 23.3486 22.5317 21.404L21.9459 20.2928C21.8167 20.0465 21.6751 19.8001 21.5897 19.5345L10.3781 19.5215Z" fill="black"/>
</svg>
