<svg width="33" height="48" viewBox="0 0 33 48" fill="none" xmlns="http://www.w3.org/2000/svg">
<path d="M5.38799 45.8065C5.26312 46.0378 5.13618 46.2951 4.93002 46.4647C4.40127 46.8997 3.74132 46.3643 3.85991 45.7549C3.91307 45.4818 4.12672 45.2108 4.24485 44.9569C4.43774 44.5424 4.5876 44.0971 4.68922 43.6517L3.0801 43.3236C2.90718 43.9459 2.49524 44.6101 2.08162 45.101C1.6386 45.6267 0.825646 45.3912 0.822271 44.697C0.820771 44.3847 1.10722 44.0714 1.27068 43.818C2.10997 42.5169 1.87508 40.9444 1.91526 39.4772C1.96724 37.5777 2.15244 35.187 2.68091 33.3988C3.91026 29.2391 7.26496 26.5325 10.1986 23.5775L16.0069 17.625L17.9441 15.8442C18.3841 15.4621 18.8638 15.0928 19.2738 14.6802C18.7292 14.4858 18.1054 14.4573 17.5382 14.3268C15.9898 13.9706 14.4273 13.3758 13.1324 12.4428C9.98394 10.1745 9.80272 6.38141 12.5498 3.59249C12.9913 3.14423 13.4872 2.78174 13.9723 2.3855C14.3056 2.11336 14.6028 1.78791 14.9659 1.554C15.8776 0.966739 17.0041 0.827173 18.0612 0.740366L19.7279 0.652344L21.1921 0.656319C21.853 0.662736 22.3753 0.724953 23.023 0.773483L23.8222 0.872328C26.765 1.25438 30.7936 2.67106 31.8792 5.75427L32.1756 6.67307L32.3008 7.36429C32.6582 9.35671 31.643 11.0608 30.4788 12.5598C29.36 14.0004 28.0777 15.3172 26.7674 16.5831L20.8092 22.1678L16.7728 25.7599L13.5924 29.0004C11.0781 31.7507 9.97194 33.3011 9.77404 37.0668L9.69341 39.3442C9.60294 41.8568 9.39922 44.0033 8.32893 46.3212C8.21024 46.5783 8.11977 46.8815 7.87443 47.0465C7.32782 47.4144 6.66487 46.8004 6.7926 46.3683L6.80277 46.3363C7.02524 45.5979 7.46577 44.8896 7.70751 44.0503L6.12908 43.8348C5.93887 44.5356 5.70154 45.1521 5.38799 45.8065ZM19.3326 2.06617L17.5786 2.21579C16.9423 2.29188 16.2721 2.40336 15.7197 2.75195C14.6275 3.4411 14.1278 5.18526 15.0819 6.1814C16.9595 5.47925 18.3976 5.09732 20.4565 4.99424L21.5399 4.98608C23.5861 4.98547 25.8014 5.1914 27.4716 6.49827C27.6127 6.60866 27.7341 6.72154 27.8069 6.88954L27.8224 6.92193C27.9083 7.10638 27.9126 7.34544 27.8429 7.53786L27.8102 7.61914C27.6412 8.0354 27.3543 8.40983 27.0992 8.77771C25.5616 10.9956 23.4354 12.6812 21.4911 14.5187C20.679 15.2862 20.6439 14.8978 20.4309 16.0261C20.3156 16.6371 20.3002 17.0893 20.2155 17.6668C20.1799 18.6085 20.2071 19.6207 20.388 20.5501C20.8164 20.2022 21.2097 19.8008 21.6182 19.4289L23.9807 17.2642C25.4065 15.9248 26.8503 14.6107 28.1508 13.1454C29.613 11.4979 31.1919 9.60805 30.878 7.2545C30.4251 3.86066 26.2059 2.54097 23.3171 2.21889L21.9332 2.07972L19.3326 2.06617ZM13.1694 4.95913C12.2034 6.24097 11.593 8.0083 12.342 9.53507C13.6478 12.1966 17.9775 13.301 20.6607 13.3167C20.7371 13.2638 20.8124 13.2139 20.8778 13.1473L21.6097 12.4729L23.2442 10.9853C23.3533 10.8803 23.5581 10.7245 23.623 10.5913L21.5847 10.4648C19.3236 10.2335 17.1013 9.78327 15.2543 8.35354C14.1775 7.51996 13.2143 6.39055 13.1694 4.95913ZM21.3061 6.38235C19.5613 6.45186 17.8122 6.66111 16.1585 7.24246C17.2243 8.20143 18.6911 8.59677 20.0669 8.84802L21.5021 9.05389L24.9215 9.24482L26.3233 7.36377C24.582 6.49011 23.2709 6.37311 21.3061 6.38235ZM18.8084 16.9867C18.55 17.173 18.3309 17.404 18.1007 17.6227L16.5887 19.1078C16.5282 19.1707 16.456 19.2306 16.4185 19.3096L16.4258 19.3516C16.5794 20.2911 16.5306 21.5255 16.4351 22.4697L16.1568 24.3661L16.4234 24.153L19.2456 21.6502C18.824 20.4498 18.7319 19.042 18.761 17.7764L18.8084 16.9867ZM14.9381 20.7131C14.5722 21.0609 14.2483 21.461 13.9163 21.8362L11.4033 24.4714C10.8404 25.0275 10.8747 24.9555 10.6218 25.7113C10.1811 27.0282 9.48547 30.1775 9.77371 31.5776C10.1043 30.9872 10.5211 30.4464 10.9368 29.9172L13.6377 26.8586C13.9315 26.5605 14.1421 26.3978 14.2396 25.9851L14.3506 25.5333C14.7549 23.8808 14.9288 22.4124 14.9381 20.7131ZM8.73341 26.9816C8.36277 27.3101 8.05143 27.6985 7.71065 28.0563C5.77841 30.0847 3.94963 32.6603 3.66257 35.5338L4.54869 35.6409L8.47804 36.133C8.52341 36.0628 8.73416 34.2796 8.67627 34.0161C8.29372 32.2746 8.17808 30.6625 8.40201 28.8884L8.73341 26.9816ZM3.49541 36.9496C3.39777 37.1691 3.3291 38.7483 3.31832 39.2066L3.27369 41.9883L8.0113 42.7114C8.02935 42.6782 8.03469 42.6705 8.03441 42.6314C8.17077 41.997 8.1801 41.3479 8.22004 40.7037L8.37697 37.5096L3.49541 36.9496Z" fill="black"/>
</svg>
