<svg width="26" height="20" viewBox="0 0 38 34" fill="none" xmlns="http://www.w3.org/2000/svg">
<path d="M21.1862 31.3023L19.407 21.9681C19.3337 21.5188 19.2928 21.008 19.1424 20.5781L18.9577 20.0876C18.6065 20.7859 18.6023 21.6036 18.5042 22.3658L16.758 32.2653C16.7304 32.3899 16.7169 32.5179 16.6837 32.6412L16.6763 32.6678C16.601 32.9487 16.4264 33.1651 16.1261 33.2231C14.9064 33.4587 13.683 33.4818 12.4452 33.4808L10.8694 33.4762C7.66098 33.3694 4.04748 32.6116 1.71512 30.2688C1.44751 30 1.13368 29.6573 1.00393 29.2952L0.992591 29.262C0.95495 29.1558 0.950544 29.0665 0.958278 28.9555L2.6094 14.4774C2.67803 13.868 2.68281 13.454 2.71604 12.8462L2.87617 10.681L2.91667 9.30147C2.92853 9.04286 2.97282 8.78734 2.97765 8.52714L3.20261 4.44728L3.22661 1.63263C3.22707 1.45591 3.20828 1.23283 3.26903 1.06502L3.27934 1.03886C3.4435 0.612485 3.75808 0.594251 4.14212 0.593173L6.51859 0.518735C6.99343 0.448329 7.48014 0.605173 7.94692 0.677032L9.64276 0.847938C10.2603 0.92786 10.924 0.885204 11.5482 0.885298L13.749 0.878922C13.9605 0.869172 14.1581 0.800126 14.3793 0.793563L23.6997 0.793844C23.8562 0.798907 23.9894 0.875313 24.1411 0.881173L27.4868 0.883563C28.0428 0.880891 28.6064 0.826845 29.1606 0.77847L30.7658 0.558391C30.9034 0.533501 31.0474 0.496141 31.1879 0.50636L32.8989 0.589563C33.7322 0.601422 34.7459 0.313282 34.7508 1.50869L34.749 4.27323C34.7388 4.50344 34.6134 4.58917 34.682 4.84061C34.8225 5.35614 34.8758 5.93613 34.9413 6.46464L35.0783 7.50761L35.288 11.7534C35.2764 12.8106 35.1369 13.5242 35.2853 14.5978L37.1861 28.543C37.2397 28.9616 37.355 29.2106 37.1337 29.5963C35.4878 32.4651 31.6146 33.2586 28.5908 33.4688C28.057 33.5059 27.5063 33.4819 26.9707 33.4814L24.9104 33.475L22.9341 33.3336C21.9079 33.244 21.6064 33.2721 21.3839 32.2342L21.1862 31.3023ZM31.3373 1.9502L29.0462 2.20038C28.8238 2.22138 28.6035 2.26 28.3799 2.27064L24.9707 2.28081C24.8748 2.28072 24.763 2.26811 24.6704 2.29272C24.7385 2.97677 24.7423 3.99306 24.6714 4.67828C24.6683 4.70823 24.6685 4.73697 24.6699 4.76702L24.7172 4.75998C25.3814 4.66577 26.0712 4.7635 26.7407 4.69769L33.4056 3.93798L33.3718 1.99159L31.3373 1.9502ZM6.02087 1.97209L4.63942 1.98452C4.58457 2.10166 4.63248 2.40766 4.63342 2.54697L4.63103 3.85502L7.2955 4.3382C7.43443 4.35995 7.57572 4.36019 7.71531 4.37547L11.6344 4.69389C11.739 4.7027 11.8487 4.69727 11.9516 4.71555L12.8688 4.73153C12.9994 4.73434 13.1684 4.75839 13.2927 4.73125L13.2994 2.2825L6.02087 1.97209ZM14.894 2.19283L14.77 2.22724C14.519 2.45031 14.6384 3.415 14.6394 3.73319C14.6404 4.09956 14.5262 4.58388 14.9087 4.7957L23.0069 4.78769C23.3964 4.61491 23.2972 4.19852 23.2977 3.8553L23.2968 2.91836C23.2958 2.71244 23.3528 2.34044 23.1606 2.20206L14.894 2.19283ZM4.49734 5.22559L4.11522 13.0352C5.17839 12.8254 6.06658 12.2122 6.80401 11.4386C8.07695 9.91103 8.60331 7.86798 8.73986 5.91236L4.49734 5.22559ZM33.3289 5.40995L29.7175 5.90233C29.5745 5.91667 29.4245 5.91489 29.2851 5.9485C29.2847 7.98836 29.8151 10.1831 31.3137 11.6523C32.1977 12.5519 32.7588 12.6938 33.8353 13.073L33.8798 11.7676C33.8885 10.0535 33.8033 8.35633 33.5625 6.65898L33.4549 5.9058C33.433 5.74436 33.4243 5.58203 33.3794 5.42477L33.3289 5.40995ZM10.1228 6.02289C10.0644 6.2312 10.0862 6.46844 10.0704 6.6873C9.83593 9.92542 8.01958 13.5921 4.61556 14.3642C3.81536 14.5457 4.06431 14.2491 3.94858 15.1754L2.91372 24.2887L2.38586 28.5904C2.34081 29.0007 2.63486 29.1984 2.90472 29.464C4.83348 31.3627 8.37545 32.0205 11.039 32.0594L12.8275 32.0642C13.0952 32.063 13.3922 32.0297 13.6559 32.0649L15.4226 31.9269C15.5467 30.8185 15.8073 29.709 16.007 28.6113L17.206 21.6203C17.3302 20.6242 17.4062 19.7356 18.0167 18.8984C18.4221 18.3423 18.2117 18.6576 18.4161 18.0276C18.865 16.6436 19.4268 16.3663 20.4866 15.6554C21.357 15.0715 21.3474 14.3608 21.3478 13.4453L21.3451 6.23594C21.0821 6.20172 20.8075 6.21784 20.5423 6.21775L14.3742 6.21611C13.9662 6.21152 13.5736 6.15503 13.1704 6.14008L11.5239 6.11181C11.0574 6.08777 10.5919 6.00489 10.1228 6.02289ZM27.9126 6.08964L22.737 6.21691C22.6916 6.95256 22.725 7.70852 22.7255 8.44623L22.7264 13.8212C22.7251 14.9747 22.3719 16.0351 21.3953 16.7519C20.7034 17.2598 20.0247 17.4459 19.7979 18.4295C19.7264 18.7399 20.3917 19.7264 20.514 20.2227C20.5566 20.3956 20.5855 20.5716 20.6284 20.7437L22.5262 30.8729C22.7548 32.0441 22.4773 31.8202 23.4452 31.9403C24.2129 32.0356 24.632 32.0592 25.423 32.0626L27.7404 32.0649C28.125 32.0573 28.5198 32.0608 28.9028 32.0253L29.6308 31.9376C31.92 31.6974 34.492 31.0114 35.8514 28.9885L33.9301 14.9842C33.9114 14.84 33.9144 14.6181 33.8447 14.4906C30.6321 13.9467 28.6326 11.2215 28.0936 8.11422C28.0316 7.7567 28.0305 7.37959 27.9547 7.03033C27.9248 6.89256 27.9366 6.10834 27.9126 6.08964Z" fill="black"/>
</svg>
