<svg width="20" height="20" viewBox="0 0 20 20" fill="none" xmlns="http://www.w3.org/2000/svg">
<path d="M15 2.50001V2.50001C16.3807 2.50001 17.5 3.61929 17.5 5.00001L17.5 6.78572C17.5 6.98521 17.5 7.08495 17.4719 7.16514C17.4217 7.30876 17.3088 7.42169 17.1651 7.47194C17.085 7.5 16.9852 7.5 16.7857 7.5L12.5 7.5M15 2.50001V2.50001C13.6193 2.50001 12.5 3.61929 12.5 5.00001L12.5 7.5M15 2.50001L6.5 2.50001C4.61438 2.50001 3.67157 2.50001 3.08579 3.08579C2.5 3.67158 2.5 4.61439 2.5 6.50001L2.5 17.5L5 16.6667L7.5 17.5L10 16.6667L12.5 17.5L12.5 7.5" stroke="black"/>
<path d="M5.83334 5.83331L9.16668 5.83331" stroke="black" stroke-linecap="round"/>
<path d="M6.66666 9.16669H5.83332" stroke="black" stroke-linecap="round"/>
<path d="M5.83334 12.5L8.33334 12.5" stroke="black" stroke-linecap="round"/>
</svg>
