<svg width="41" height="41" viewBox="0 0 41 41" fill="none" xmlns="http://www.w3.org/2000/svg">
<path d="M41 20.4999C41 31.8218 31.8218 40.9999 20.5 40.9999C9.17816 40.9999 0 31.8218 0 20.4999C0 9.17809 9.17816 -6.89587e-05 20.5 -6.89587e-05C31.8218 -6.89587e-05 41 9.17809 41 20.4999Z" fill="black"/>
<path d="M22.256 21.288C24.248 21.288 25.64 19.896 25.64 17.904C25.64 15.936 24.224 14.544 22.232 14.544H18.248V21.288H22.256ZM15.992 30.12V12.552H22.328C25.592 12.552 27.872 14.76 27.872 17.904C27.872 21.072 25.592 23.28 22.328 23.28H18.248V30.12H15.992Z" fill="#8BFE6B"/>
</svg>
