<svg width="12" height="20" viewBox="0 0 12 20" fill="none" xmlns="http://www.w3.org/2000/svg">
<path d="M4.12986 12.3H5.5V16.7299L5.5 16.762C5.49998 17.18 5.49997 17.5357 5.52739 17.7907C5.5412 17.9191 5.56604 18.0698 5.6263 18.2046C5.69158 18.3507 5.82995 18.5404 6.08868 18.5974C6.3474 18.6544 6.55268 18.5403 6.67329 18.4352C6.78461 18.3382 6.87045 18.2119 6.93691 18.1012C7.06895 17.8813 7.21839 17.5585 7.39398 17.1791L7.40747 17.15L10.1388 11.2503L10.1559 11.2134C10.4372 10.6058 10.672 10.0988 10.7935 9.6859C10.92 9.25645 10.9625 8.80465 10.699 8.39231C10.4356 7.97997 10.0077 7.82878 9.56485 7.7631C9.13908 7.69995 8.58035 7.69997 7.91085 7.7L7.87014 7.7H6.5V3.27013L6.5 3.23804C6.50002 2.82003 6.50003 2.4643 6.47261 2.20926C6.4588 2.08088 6.43396 1.93022 6.3737 1.79539C6.30842 1.64932 6.17005 1.4596 5.91132 1.40262C5.6526 1.34563 5.44732 1.45966 5.32671 1.56479C5.21538 1.66183 5.12955 1.78811 5.06309 1.89881C4.93105 2.11873 4.78161 2.44155 4.60601 2.82089L4.59253 2.85L1.8612 8.74969L1.8441 8.78662C1.5628 9.39417 1.32804 9.90119 1.20647 10.3141C1.08003 10.7436 1.03747 11.1954 1.30095 11.6077C1.56444 12.02 1.99231 12.1712 2.43515 12.2369C2.86092 12.3 3.41965 12.3 4.08915 12.3L4.12986 12.3Z" stroke="black"/>
</svg>
