<svg width="32" height="40" viewBox="0 0 32 40" fill="none" xmlns="http://www.w3.org/2000/svg">
<path d="M15.1735 37.5366L11.733 38.7558C10.0363 39.3365 7.89636 39.54 6.14243 39.188C1.43853 38.244 -1.02808 32.9171 1.08537 28.6811C2.28696 26.2727 3.78673 25.3572 6.14909 24.4182L13.7596 21.2849C14.0487 21.1628 14.0475 21.2425 14.0494 20.9108L14.0544 2.00384C14.0544 1.84953 14.0364 1.65856 14.0946 1.51395L14.1049 1.48953C14.2347 1.16609 14.4868 0.965979 14.8334 0.902791L28.8811 0.895994C29.6159 0.895666 31.3132 0.580141 31.3334 1.67393L31.327 24.9445C31.3155 25.4593 31.2525 25.9819 31.1585 26.489C30.4639 30.2373 28.5224 32.5296 24.9296 33.9888L15.1735 37.5366ZM17.5993 2.50048L15.6775 2.51234L15.6762 3.89543L27.8479 3.89351L29.1693 3.89342C29.319 3.89337 29.5602 3.92356 29.6975 3.88015L29.7001 2.50807L17.5993 2.50048ZM27.7084 5.49195L15.6907 5.495L15.6905 8.32264L17.7181 8.32507L28.494 8.32498C28.8857 8.32587 29.3105 8.363 29.6969 8.32231L29.6932 5.50048L27.7084 5.49195ZM15.6972 9.96804L15.6909 11.1104L29.6865 11.1249L29.6922 9.96884L15.6972 9.96804ZM17.0681 12.7422L15.7124 12.7474C15.6778 12.7884 15.6786 12.8599 15.6772 12.9129L15.6787 21.3127C15.6781 22.4523 15.4492 22.3849 14.4024 22.8086L5.63267 26.407C6.1235 26.6383 6.64325 26.7865 7.12723 27.0421C8.98334 28.0221 10.6798 29.7448 11.3834 31.7579L11.6591 32.5514C12.1146 34.077 12.0258 35.5442 11.6158 37.0535L16.8733 35.1976L21.6997 33.4541C20.7771 31.3359 20.5491 29.0031 21.4146 26.8086C22.5657 23.8902 25.5566 21.6592 28.7328 21.6245L29.6882 21.6231L29.6892 12.7414L17.0681 12.7422ZM28.697 23.2657C25.5595 23.4464 22.8911 25.9021 22.5513 29.038C22.4602 29.8788 22.4888 30.9032 22.7881 31.7033L23.1246 32.6569C23.1506 32.7293 23.1915 32.819 23.2479 32.8716L23.4449 32.7967C28.1082 31.3174 30.0165 27.9435 29.6705 23.2749L28.697 23.2657ZM3.87542 27.6087C3.21767 28.3547 2.6614 29.0494 2.32817 30.0054C1.14453 33.4014 3.24471 37.2762 6.96256 37.6276C7.46539 37.6752 7.98701 37.6491 8.49209 37.6477C8.89048 37.6369 9.30284 37.6385 9.69504 37.5652C10.0264 36.7157 10.2926 35.9079 10.3159 34.9946C10.3954 31.8747 8.33501 29.2318 5.50025 28.1144L3.87542 27.6087Z" fill="black"/>
</svg>
