<svg width="34" height="22" viewBox="0 0 34 22" fill="none" xmlns="http://www.w3.org/2000/svg">
<path d="M29.486 19.5435L21.5768 20.5112L19.6212 20.8673C18.6849 21.0548 18.5195 21.3493 17.9488 20.4607C17.7878 20.2099 17.6259 19.9601 17.5081 19.6848C17.3846 19.3961 17.2892 19.0191 17.1155 18.7642L17.0046 18.6048C16.5718 19.2429 16.1683 20.8601 15.3752 21.0725C15.0815 21.1512 14.7077 21.0033 14.4177 20.9399L7.97375 19.8638L1.42292 19.2888C0.938655 19.2577 0.383655 19.3727 0.218702 18.7838L0.209233 18.7485C0.140796 18.5013 0.188984 18.2823 0.209749 18.0332L0.757531 11.3946L1.00653 7.24144C1.03123 6.87722 1.06466 6.50077 1.12325 6.14053L1.199 5.74599C1.24742 5.54297 1.20167 5.49769 1.1473 5.29449C0.902936 4.38146 0.85428 3.04828 0.851233 2.11388C0.849265 1.49935 0.842046 0.938486 1.56036 0.768002C1.81836 0.745689 2.07866 0.895736 2.32142 0.966799C3.36762 1.27308 4.98491 1.43944 6.12303 1.47731L12.7975 1.46785L15.0129 1.37396C15.3137 1.35713 15.599 1.29891 15.9065 1.29614L18.5688 1.2991C18.8067 1.30936 19.0346 1.36711 19.273 1.37916L20.7326 1.40156C20.9856 1.4101 21.2357 1.45575 21.4871 1.46667L27.8231 1.47549L30.0228 1.29328C30.4647 1.25091 30.9484 1.1587 31.3748 1.03495C31.6798 0.946454 32.16 0.701486 32.483 0.778408L32.5152 0.786704C32.7448 0.840095 32.9281 0.954564 33.0507 1.16288L33.0682 1.19911C33.209 1.48378 33.1501 3.07528 33.1221 3.43692L32.9481 4.89141C32.9157 5.17439 32.8244 5.45939 32.728 5.7262C32.8034 5.88924 32.8138 6.03835 32.852 6.2063L32.8618 6.24867C32.9555 6.66417 32.9117 7.13611 32.9504 7.56239L33.5053 15.0975L33.7769 17.7513C33.8491 18.2504 33.987 19.1494 33.3101 19.272L29.486 19.5435ZM2.24047 2.39442C2.25191 3.07936 2.30122 3.79566 2.42206 4.46864C2.48961 4.84481 2.38859 4.8457 2.79251 4.84603L6.57055 4.8451C6.65717 4.84472 6.76836 4.85808 6.84973 4.83155L6.9567 4.43944L7.4374 2.89552C6.61981 2.81888 5.8017 2.88385 4.98003 2.8028L2.47142 2.42789C2.39492 2.409 2.31781 2.37431 2.24047 2.39442ZM31.6792 2.41786C30.6168 2.66831 29.4568 2.83805 28.3599 2.86547L27.1167 2.87522C26.9758 2.87531 26.7155 2.84156 26.5884 2.88919L27.0463 4.47352L27.0602 4.51584C27.095 4.62534 27.1017 4.74614 27.1435 4.85222L31.5382 4.84453C31.7061 4.04391 31.7085 3.22922 31.7323 2.41538L31.6792 2.41786ZM15.8168 2.69245C15.3805 2.72925 14.9716 2.83899 14.48 2.86378L8.92742 2.88436C8.66169 3.50236 8.56639 4.19227 8.40097 4.83858L18.2535 4.8458L25.6531 4.84336C25.6191 4.56136 25.5368 4.30838 25.4579 4.03692L25.0954 2.89256L15.8168 2.69245ZM7.94469 6.09778L7.59533 7.38661C6.8218 9.82753 4.78339 11.3009 2.25312 11.2749C2.23076 11.4107 2.2377 11.5397 2.22884 11.6757L1.96316 14.811C1.94834 15.0186 1.87892 15.259 1.92233 15.4634C2.11334 15.5652 4.64155 15.4972 5.06544 15.5276L8.57422 15.8482L11.6202 16.3328C13.2395 16.6391 14.3331 17.204 15.8112 17.6788C15.9798 17.2839 16.1163 16.8628 16.353 16.5045C16.4442 16.3664 16.3677 16.0981 16.3673 15.9395L16.3687 6.99778C16.3687 6.71283 16.3899 6.41095 16.3638 6.12867L9.03903 6.13795C8.6847 6.13763 8.29152 6.16941 7.94469 6.09778ZM17.6328 6.14344L17.6357 12.3318C18.0355 12.2227 18.4549 12.0974 18.7841 11.8358C19.0727 11.566 19.247 11.2335 19.2613 10.8349L19.2545 6.14616L17.6328 6.14344ZM23.8429 6.14203L20.7264 6.15131L20.7274 10.3053C20.7263 11.4323 20.4258 12.5089 19.3653 13.1199C19.1862 13.2231 17.7348 13.8101 17.7066 13.8868C17.6737 13.976 17.7055 14.2318 17.7051 14.3353L17.6999 16.0592C17.6997 16.2844 17.6871 16.4299 17.7983 16.6327L18.0505 17.2023C18.1253 17.3656 18.1597 17.5283 18.2564 17.6847C19.4608 17.1949 20.6679 16.7132 21.9332 16.3984L24.2704 15.9524L26.6558 15.6663C27.3471 15.5975 28.0281 15.5527 28.7213 15.519L32.18 15.4132L31.8304 11.2853C29.2235 11.2647 27.1257 9.84699 26.3694 7.27631C26.3352 7.16006 26.1312 6.174 26.1002 6.14991C26.0805 6.13453 25.8265 6.1433 25.7758 6.14283L23.8429 6.14203ZM2.59541 6.14203L2.31116 9.86063C3.3897 9.81933 4.26228 9.55481 5.08705 8.84128C5.94214 7.97752 6.17731 7.27763 6.4429 6.15661L2.59541 6.14203ZM27.5585 6.14203C27.5919 6.38152 27.6447 6.65039 27.7256 6.85913L27.8295 7.18739C28.494 8.8762 29.9494 9.87675 31.7433 9.86063L31.558 6.80517C31.5493 6.66197 31.5655 6.26963 31.4913 6.17175C31.1044 6.11189 30.6798 6.14386 30.2872 6.14395L27.5585 6.14203ZM31.1563 16.8292C27.7229 16.8533 23.361 17.2961 20.1474 18.4626C19.6849 18.6305 19.1858 18.77 18.7543 19.0096C18.8062 19.1643 18.8954 19.423 18.9923 19.5533L19.8729 19.3823L28.2339 18.1886L29.8297 18.0548C30.088 18.0329 30.3434 17.9885 30.6029 17.9786L31.7335 17.97C31.9373 17.9687 32.149 17.9787 32.3505 17.9464L32.256 16.8273L31.1563 16.8292ZM1.78737 16.8784L1.7172 18.0431C2.35709 18.1018 3.00969 18.0476 3.65192 18.071C3.90106 18.0801 4.14256 18.1335 4.3902 18.155L6.08061 18.2797L10.8515 18.846L14.9209 19.6123L15.0335 19.4457L15.2389 18.9953C12.7119 17.805 9.91372 17.4374 7.16183 17.1908L4.6168 16.9837C3.66645 16.9177 2.69291 16.9707 1.78737 16.8784Z" fill="black"/>
</svg>
