<svg width="32" height="40" viewBox="0 0 32 40" fill="none" xmlns="http://www.w3.org/2000/svg">
<path d="M29.8866 36.4663L24.0296 38.3339L21.4488 38.8123L18.0693 39.1369L14.0894 39.132L11.3472 38.913C9.03157 38.6435 6.75063 38.0946 4.53893 37.3671L2.24487 36.491C0.977414 35.9822 0.73343 35.9204 0.974602 34.5564C1.08959 33.906 1.24371 33.2688 1.42873 32.6349L2.17193 30.1989C3.19062 27.2609 4.55262 24.4595 6.05904 21.7434L6.87551 20.315C7.17232 19.8003 7.47171 19.279 7.82534 18.8009C7.78629 18.6445 7.70304 18.5035 7.66952 18.3424C7.51891 17.6179 7.71316 17.1165 8.11221 16.4991C7.96709 16.1099 7.95991 15.928 7.57821 15.737L4.9136 14.4023C4.48427 14.1962 3.99241 14.0327 3.60991 13.7457C2.37495 12.8189 2.5428 11.8378 2.85945 10.5931L4.6331 3.08829C5.03412 1.52001 6.37413 0.522098 7.96507 0.51733L8.90027 0.515699C9.06138 0.495712 9.28502 0.493462 9.4444 0.514987L9.4722 0.519154C9.73577 0.554952 9.99382 0.771182 10.08 1.0196L10.0942 1.06245C10.3478 1.73712 8.77727 3.56311 9.64404 5.30755L9.67704 5.38213C9.90902 6.01194 10.2757 6.51359 10.9664 6.57388C12.8187 6.73559 14.5762 7.52042 15.9783 8.73439C17.8363 7.25703 19.2155 6.77586 21.4978 6.5173C22.8741 5.32709 22.7516 3.58316 22.0933 2.08198C21.9841 1.83289 21.7981 1.52038 21.8496 1.24076C22.0048 0.399116 22.7069 0.514686 23.3159 0.51411L24.1243 0.514705C25.5524 0.517907 26.7075 1.38354 27.2147 2.7148C27.4904 3.43852 27.5933 4.44336 27.8126 5.22261L27.9947 6.01827C28.0887 6.5113 28.2641 6.99097 28.3578 7.48194L28.4511 7.84761C28.4876 8.06356 28.556 8.29053 28.6102 8.50386L28.8784 9.61949C29.0537 10.2612 29.4694 11.6419 29.3497 12.2682L29.3444 12.2949C29.1257 13.4289 28.2899 13.835 27.3433 14.282L24.905 15.4954C24.5847 15.6545 24.1674 15.7766 23.9876 16.1117C23.8262 16.4127 24.063 17.3829 24.1692 17.7106L24.9026 19.5078L27.9377 25.6953C28.2119 26.2325 28.4261 26.799 28.6642 27.352L29.9684 30.746C30.3326 31.7328 31.3882 35.0566 31.0743 35.7631C30.8864 36.1858 30.279 36.3082 29.8866 36.4663ZM23.9186 2.13693L24.1103 2.96089C24.3294 4.09381 24.1249 5.37866 23.608 6.39828C23.5573 6.49822 23.4929 6.59394 23.4521 6.69824C26.3745 7.68158 27.2497 10.1637 25.7506 12.737L25.4002 13.3806C25.5174 13.3258 25.6494 13.2755 25.7597 13.2091L26.7402 12.7212C27.3598 12.4383 27.8965 12.335 27.6768 11.5003L26.1559 5.30136C25.8889 4.13286 25.8896 2.46756 24.4157 2.18136L23.9186 2.13693ZM7.74879 2.17301C7.11973 2.2439 6.57457 2.57159 6.31995 3.17183L6.30166 3.21403C6.14698 3.57596 6.09157 4.00048 6.00345 4.38425L4.28252 11.5859C4.09455 12.4241 4.99793 12.5679 5.5759 12.8448C5.90023 13.0001 6.2037 13.1889 6.51654 13.3653L6.61952 13.4064C6.62623 13.284 6.43671 13.0502 6.37301 12.9404C5.92282 12.1641 5.52105 11.3303 5.51909 10.4201C5.51515 8.59592 6.7609 7.1667 8.52462 6.71384C7.73524 5.31664 7.58716 3.92267 8.01832 2.3861L8.08362 2.16387C7.97492 2.16584 7.85585 2.15777 7.74879 2.17301ZM9.96851 8.17433C8.90051 8.25402 7.91763 8.51258 7.34913 9.52053C6.75448 10.5749 7.46473 11.4724 7.93315 12.4032L9.34282 15.1953C9.45537 15.4179 9.47773 15.6671 9.76357 15.6645L10.1561 15.6628C11.4107 15.6993 12.1986 16.9137 13.2808 17.2126L13.3214 17.2243C13.7397 17.3396 14.075 17.0923 14.4527 16.953C16.2593 16.2867 17.0307 16.4666 18.8736 16.347C20.0248 16.2724 21.1693 16.0552 22.3242 16.0598C22.421 15.8218 22.4696 15.5726 22.576 15.3298L24.108 12.3202C24.5064 11.5499 25.1104 10.7743 24.7933 9.86535C24.5485 9.16334 23.9201 8.60249 23.2196 8.37678C21.0534 7.67886 18.4397 8.7275 16.7836 10.169C16.0717 10.7887 15.9509 10.8061 15.1891 10.1719C13.7853 9.00331 11.8489 8.08034 9.97713 8.17274L9.96851 8.17433ZM9.77702 17.2858C9.22329 17.4643 9.09963 18.0732 9.69968 18.3074C9.95262 18.4062 10.5097 18.2453 10.7682 18.1728L11.3816 18.0114L10.6696 17.5906C10.3909 17.4367 10.107 17.2644 9.77702 17.2858ZM21.6727 17.7319L18.2753 17.8439C17.3829 17.8949 16.3007 18.0253 15.4993 18.3905L16.3942 18.7444C17.1548 18.9725 17.4334 18.9755 18.2027 18.9029C19.4005 18.7898 22.4616 18.1655 22.2925 17.7315L21.6727 17.7319ZM13.4979 19.1581C13.2999 19.5912 13.1806 20.0592 13.0094 20.5035L11.7347 23.5628C11.5261 24.0318 11.274 24.4392 10.6675 24.3436L10.6267 24.3373C9.75968 24.1927 10.0265 23.3529 10.2472 22.8353L11.5516 19.6569C10.7149 19.8335 10.0084 20.0921 9.1683 19.8041L8.40916 21.0195L5.35441 26.8671C4.75362 28.16 4.18587 29.4826 3.72602 30.8329L2.56076 34.8122C2.74704 34.9293 2.96754 35.0067 3.17135 35.089L5.85874 36.0686C7.20049 36.4805 8.58673 36.7823 9.97221 36.999L12.7095 37.3503L14.1845 37.444L17.3322 37.4505C17.6088 37.4499 17.8991 37.4642 18.1735 37.4327L21.1324 37.152C23.5474 36.8425 25.907 36.1872 28.1846 35.3367C28.3986 35.2568 29.2719 34.9849 29.4027 34.8507C29.2713 33.9628 28.9635 33.0591 28.6922 32.205C27.7458 29.226 26.4327 26.3761 25.048 23.5792L23.0266 19.4339C22.7142 19.5639 22.3891 19.6543 22.0667 19.7547C20.084 20.3721 17.5759 21.0163 15.5709 20.1994L16.1812 23.1947C16.2193 23.3825 16.28 23.555 16.2787 23.7518C16.2745 24.3494 15.4163 24.7156 14.951 24.371C14.6294 24.1328 14.5779 23.5794 14.5052 23.218L13.6311 19.4252C13.607 19.3254 13.5554 19.2421 13.4979 19.1581Z" fill="black"/>
</svg>
