<svg width="25" height="31" viewBox="0 0 25 31" fill="none" xmlns="http://www.w3.org/2000/svg">
<path d="M22.4876 26.3457C22.4421 26.4965 22.1395 27.061 22.1933 27.1918C22.4827 27.8954 22.6224 27.9073 22.6257 28.6932C22.6266 28.8921 22.6562 29.1585 22.5928 29.3477L22.5848 29.3708C22.3407 30.2513 21.6772 30.9288 20.7192 30.9758L5.93689 30.9811C4.73815 30.982 3.90997 30.8121 3.42218 29.4794C3.34067 29.2567 3.30683 28.2264 3.40119 27.9696C3.58376 27.4726 3.88765 27.4038 3.72645 26.9635L2.84459 24.4769C2.57042 23.4776 2.40125 22.4552 2.21065 21.4382L1.3662 17.0602C1.25065 16.4679 1.10501 15.8601 1.03245 15.2614C0.847904 13.7386 1.24503 13.4138 2.41104 12.822C4.76923 11.6251 5.99178 8.82937 5.86437 6.27459C5.8354 5.69291 5.73115 5.1088 5.61804 4.53876C5.52176 4.05379 5.57234 3.48435 5.57183 2.9871C5.57094 2.20049 5.37401 1.22423 6.39819 1.02904L7.86125 1.02266C8.09572 1.02266 8.51393 0.97007 8.72009 1.07296L8.80967 1.12063C9.36551 1.44524 9.22676 2.25121 9.22681 2.7824C9.22686 3.82494 9.16479 4.92894 9.54533 5.9241L9.7579 6.51238C10.37 7.95135 11.3072 8.42976 12.5821 9.14521C12.9955 9.37719 12.8998 9.41662 13.3188 9.19987L14.1488 8.73163C16.7578 7.2373 16.769 5.03765 16.7739 2.39896C16.7751 1.70371 16.7732 1.02538 17.7194 1.02205L18.3964 1.02323C18.8138 1.02435 19.5387 0.904867 19.9082 1.10146L19.9378 1.11763C20.5891 1.46094 20.4106 2.33423 20.4095 2.93502C20.4077 3.95469 20.3903 4.40788 20.2235 5.40594C19.7408 8.29448 20.9879 11.594 23.7356 12.8954C23.8832 12.9653 24.0417 13.022 24.181 13.1078C25.4129 13.8674 24.9457 15.4727 24.7328 16.6208L24.1814 19.5036C23.7398 21.7345 23.4632 24.2741 22.4876 26.3457ZM18.139 2.40613L18.1347 2.44115C18.0548 3.5233 18.1871 4.1856 17.9698 5.32391C17.4042 8.28815 16.2338 9.26104 13.7269 10.5383C13.0877 10.864 13.0009 10.9099 12.3716 10.5974C10.0381 9.43902 8.76415 8.43337 8.11029 5.75235C7.98462 5.23691 7.88365 4.67573 7.86715 4.14533L7.8642 2.94773C7.86411 2.7771 7.88281 2.58309 7.85642 2.41663L7.19431 2.41293C7.10075 2.41476 6.97929 2.40416 6.89122 2.4306L6.9005 3.57468C6.90448 4.13123 6.99903 4.64769 7.09484 5.19501C7.71743 8.75062 5.94706 12.7926 2.56564 14.2938C2.21675 14.4487 2.31129 14.5658 2.3607 14.9099C2.40987 15.252 2.4373 15.6123 2.52101 15.9486L3.52423 21.2364C3.54031 21.3049 3.54851 21.3735 3.56801 21.4413L4.27292 24.5623C4.30859 24.7182 4.38509 24.8815 4.43651 25.0349L4.79923 25.9748C4.85665 26.1055 4.87709 26.2144 4.96226 26.3331L5.59995 26.3252L6.91465 26.3177C6.90678 25.8076 6.79601 24.9189 7.17561 24.5308C7.53317 24.1651 7.97201 24.4301 8.17048 24.7901C8.29189 25.0103 8.2152 26.02 8.24408 26.3248L12.3199 26.3206L12.3253 25.5402C12.3253 25.2701 12.2853 24.9115 12.442 24.6787L12.463 24.6471C12.7993 24.1552 13.3904 24.3077 13.5628 24.8239C13.7139 25.2766 13.5877 25.8485 13.6357 26.3268L17.7333 26.3251C17.7028 26.0099 17.6512 25.2622 17.7248 24.9498C17.8652 24.3544 18.5776 24.1192 18.9095 24.6716L18.9328 24.7091C19.1475 25.0777 19.0362 25.882 19.0523 26.3272L20.6 26.3282C20.7422 26.3317 20.8913 26.3903 21.0263 26.3834C21.3311 25.5542 21.6792 24.77 21.9128 23.9132C22.1805 22.9317 22.2957 21.9199 22.4992 20.9258L23.6352 14.9782C23.7272 14.2698 23.7661 14.4663 23.1284 14.1471C19.9385 12.5506 18.386 8.83237 18.8458 5.40023C18.9091 4.92773 19.0334 4.46343 19.0759 3.98873C19.1223 3.47052 19.0952 2.93221 19.0945 2.41162L18.139 2.40613ZM9.42022 27.6685C8.87515 27.6683 5.41081 27.6127 5.22415 27.7253C4.97098 27.878 4.81395 28.1271 4.75789 28.4128L4.74345 28.5038C4.70356 28.7643 4.71228 28.9784 4.81953 29.2184L4.83181 29.2466C4.89772 29.3919 5.07411 29.507 5.23081 29.5286L5.255 29.5326C5.50606 29.5695 5.82172 29.5247 6.0807 29.5245H16.6214L19.4437 29.5249C20.345 29.5254 21.4945 29.8285 21.2559 28.4333L21.2487 28.3895C21.1576 28.0041 20.8349 27.6847 20.435 27.6703L9.42022 27.6685Z" fill="black"/>
</svg>
