<svg width="36" height="32" viewBox="0 0 36 32" fill="none" xmlns="http://www.w3.org/2000/svg">
<path d="M24.4975 31.14L10.1459 31.1364C8.63999 31.119 8.88131 29.7458 8.72596 28.6912C8.6864 28.4228 8.60339 28.1811 8.60137 27.9044C8.59551 27.0929 8.7367 26.2909 8.80303 25.485L8.98673 23.2988C9.0711 22.4414 9.12074 21.7499 9.12107 20.8727L9.10673 18.4986L8.94253 16.3358L7.63279 20.0746C7.16713 21.3214 7.02993 22.1473 6.72473 23.4297L5.62701 27.1277C5.27592 28.1775 4.96664 28.0808 4.07254 27.9496L1.28367 27.5596C0.417135 27.4385 0.113151 27.247 0.112307 26.3771C0.111979 26.021 0.143854 25.6916 0.17362 25.3385L0.505354 21.4817L1.43174 14.7578L2.52651 9.10936C2.63128 8.54513 2.70984 7.98146 2.87428 7.42988C3.61846 4.93341 5.62617 2.81513 8.0811 1.94588C9.24346 1.53432 11.3223 1.01958 12.5024 0.843755C12.8005 0.842443 13.1326 1.08446 13.3947 1.20272C14.8192 1.8458 16.7894 1.82527 18.3394 1.82246L19.3511 1.79443C19.8605 1.7724 20.1849 1.72754 20.6806 1.66154L21.3875 1.53849C22.1769 1.38099 22.4804 1.17643 23.1413 0.909567L23.1794 0.894521C23.6488 0.701724 27.3599 1.74666 28.2066 2.09621C31.2505 3.35274 32.8897 5.9401 33.4634 9.04707C33.5032 9.26255 33.575 9.48029 33.6134 9.69662L33.7962 10.7266C33.8179 10.8344 33.8181 10.9481 33.8432 11.0547L34.2693 13.0258L35.0651 18.0391L35.7259 24.1138C35.7797 24.8582 35.86 25.5975 35.8758 26.3467C35.9001 27.5004 35.3724 27.492 34.3333 27.6294L31.6174 27.9962C30.676 28.104 30.6227 27.8661 30.3172 26.9342L29.9871 25.9021C29.742 25.1051 29.47 24.309 29.2847 23.4955C29.1326 22.828 29.0615 22.117 28.8527 21.4667L27.0832 16.3917C26.99 16.8744 26.9247 17.7776 26.8937 18.3183L26.8822 21.4703L27.3598 27.296C27.3981 27.7885 27.4448 28.0638 27.3192 28.5531C26.9456 30.0074 27.5962 31.1304 25.4928 31.1377L24.4975 31.14ZM12.0579 2.0664C11.7784 2.11454 11.4472 2.15518 11.1823 2.2539C11.1348 2.58197 11.2715 3.24868 11.3822 3.54019L11.6256 4.19611C12.2948 5.99583 14.387 7.29619 16.1948 7.65591C17.0812 7.83226 18.0005 7.82475 18.8993 7.76086C21.0636 7.60702 23.0895 6.51502 24.1117 4.54819C24.3241 4.1371 24.857 2.73113 24.7697 2.25151L23.8713 2.0836C23.3288 4.04907 21.143 5.38036 19.1714 5.4023L18.4479 5.40661C17.8799 5.40905 17.2858 5.44679 16.7205 5.40474C14.9018 5.26936 12.8908 4.18758 12.2555 2.39452C12.2155 2.28169 12.2245 2.11871 12.1171 2.05224L12.0579 2.0664ZM22.5057 2.37108C21.4604 2.89172 19.4624 2.94811 18.2221 2.94952L16.8214 2.94516C15.8047 2.90485 14.6561 2.78626 13.6881 2.45958L13.4597 2.36752C13.6335 2.66625 13.8568 2.90016 14.0958 3.14565C15.0988 4.06908 16.4143 4.32769 17.7358 4.27393C19.6576 4.19574 21.3013 4.31508 22.5206 2.3963L22.5057 2.37108ZM10.0325 2.58202C7.32524 3.1973 5.00971 4.63027 4.0544 7.41015C3.83845 8.0385 3.73031 8.68008 3.60562 9.32958L2.50509 15.1797L1.97038 18.6484L1.36026 24.3502L4.69874 24.8429C4.82231 24.8592 5.02331 24.9346 5.14148 24.9042L8.52674 13.9471C7.90889 13.1506 7.2817 12.3479 6.81839 11.4488C6.15351 10.1585 7.29257 10.0532 7.56923 10.5047C7.8576 10.9754 8.1029 11.4672 8.42259 11.9204L9.30829 13.0826C9.7365 13.5723 9.73331 14.6102 9.84974 15.25C9.99112 16.0269 10.0702 16.807 10.1332 17.5937L10.2245 18.5566L10.2241 21.9307L9.75539 27.0361C9.74784 27.1079 9.72131 27.4076 9.75496 27.4538L26.2745 27.4425L25.9988 24.8826C25.98 24.6736 25.9871 24.4617 25.9739 24.2521L25.8843 23.0214C25.8677 22.7108 25.7992 22.3827 25.8034 22.0762C25.7608 21.5059 25.7799 20.9274 25.7804 20.356L25.7908 18.4356C25.8009 18.2269 25.8362 18.0202 25.8523 17.812L26.3411 13.9726C26.3607 13.8143 26.3473 13.6381 26.4068 13.4895L26.418 13.461C26.4856 13.2996 26.63 13.1466 26.738 13.0102L27.3859 12.1899C27.6238 11.8789 28.4787 10.3771 28.6549 10.3044C28.9603 10.1784 29.255 10.2612 29.3904 10.5625L29.4057 10.5946C29.4621 10.7207 29.4446 10.894 29.3918 11.0179L29.3738 11.0585C29.1734 11.5188 28.9224 11.9579 28.6413 12.374L27.5808 13.7974C27.4854 13.9316 27.4292 13.9538 27.4983 14.1239L30.0359 21.5676C30.073 21.6935 30.0794 21.8216 30.105 21.9491L30.2925 22.9893C30.4407 23.6468 30.6404 24.3023 30.8591 24.9394L34.6231 24.3721L34.2453 20.3402L33.6467 15.9328L32.4637 9.7073C32.3212 8.97451 32.2041 8.22225 31.9362 7.52227C31.119 5.38646 29.4092 3.63976 27.2105 2.94802C26.7692 2.80922 26.3001 2.71543 25.8677 2.55657C25.813 2.90607 25.7712 3.25824 25.6848 3.60155C24.5011 8.30579 19.1446 9.83424 14.96 8.51325C12.5362 7.74807 10.4497 5.52525 10.1224 2.9596C10.1097 2.8599 10.1353 2.61254 10.0325 2.58202ZM1.25259 25.4618L1.21321 26.3966L4.52409 26.8824L4.5952 26.7144L4.83571 25.9683L1.25259 25.4618ZM34.6067 25.5007L31.1778 26.043C31.2725 26.3188 31.3492 26.6058 31.4494 26.8786C31.6011 26.8651 31.7474 26.8316 31.898 26.8114L34.2173 26.5182C34.4056 26.4971 34.597 26.4877 34.781 26.4402C34.7768 26.1324 34.7983 25.8003 34.7551 25.4963C34.7026 25.4913 34.6589 25.4934 34.6067 25.5007ZM12.0104 28.5471L9.80278 28.5568L9.90285 29.3602C9.9231 29.5376 9.89962 29.8658 9.99993 30.0122L23.875 30.0077L25.3615 30.0053C26.1184 30.0038 25.9969 30.1671 26.0846 29.436C26.1199 29.1413 26.1712 28.852 26.1866 28.5546L12.0104 28.5471Z" fill="black"/>
</svg>
