<svg width="40" height="36" viewBox="0 0 40 36" fill="none" xmlns="http://www.w3.org/2000/svg">
<path d="M26.9663 34.8893C26.0112 35.0267 25.0531 35.0476 24.0911 35.0747L16.9639 35.1211C16.7846 35.116 16.6089 35.0825 16.4297 35.0764L15.163 35.0396C14.9461 35.0236 14.7323 34.9803 14.5158 34.9672L12.3713 34.7947C10.6984 34.6094 9.45045 34.1713 8.96787 32.282C8.8069 31.6519 8.86957 30.9643 8.86967 30.316L8.87023 18.74C8.86986 18.5066 8.90417 18.183 8.83779 17.9589L8.66871 17.1752C8.01589 17.7398 7.73961 17.7955 6.90678 17.6265C4.59701 17.158 1.48442 15.3418 0.560849 13.1106C0.0556583 11.8901 0.357655 11.1837 1.11176 10.2319L3.8179 7.11646C4.89162 5.92391 5.67734 4.93869 7.19159 4.29074C8.05653 3.92057 8.95554 3.6793 9.80773 3.26933L12.4501 1.94268C13.5862 1.35154 13.9959 1.02505 15.2932 0.876319C15.4059 0.853491 15.602 0.8511 15.7074 0.896475L15.7346 0.908991C16.1782 1.09396 16.2736 1.60438 16.5382 1.96518C18.0897 4.07985 22.3994 3.97096 23.6463 1.66391C23.8103 1.3604 23.8601 1.05969 24.2222 0.917709L24.257 0.904632C25.1603 0.556819 26.7039 1.59177 27.4541 1.95843L30.7075 3.52396L32.307 4.11998C34.0741 4.77637 34.8919 5.64304 36.0932 7.03335L38.9227 10.4347C39.0891 10.6299 39.3086 10.856 39.4143 11.0906L39.424 11.1126C39.8338 11.9406 39.3806 13.0505 38.9266 13.758C37.8176 15.4868 36.0425 16.6819 34.133 17.3617C33.0192 17.7583 32.3277 18.0364 31.3975 17.2549L31.2302 17.7539C31.015 18.3144 31.1298 19.1329 31.1297 19.7277L31.1295 30.9308C31.1291 32.053 31.1562 32.754 30.3573 33.6958C29.504 34.7018 28.1874 34.7914 26.9663 34.8893ZM24.7764 2.19955C23.141 5.55599 17.3597 5.58557 15.3882 2.59912L15.1696 2.2184C15.0008 2.23283 14.8458 2.24479 14.6867 2.30863C14.5973 2.48212 14.7958 3.19049 14.8825 3.40738L15.0606 3.93341C15.2373 4.39677 15.4052 4.87762 15.6665 5.30207C16.3455 6.5406 17.3905 7.59435 18.7692 8.00315C21.9206 8.93755 24.2922 6.25419 25.0941 3.47263L25.3743 2.30746L24.7764 2.19955ZM13.4526 2.91416L9.9455 4.64155C7.988 5.51348 6.49812 5.58618 5.16987 7.5389C8.61359 8.52787 10.8021 11.5733 9.99486 15.1266C9.90907 15.504 9.80117 15.9421 9.65253 16.3015L9.668 16.3178C10.2655 17.0615 10.1554 19.3842 10.1556 20.2866L10.1534 30.3151L11.8984 30.558L16.8596 30.8631C17.037 30.8702 17.2109 30.9033 17.3891 30.9071L22.919 30.9082C23.0867 30.9037 23.2506 30.8683 23.4182 30.8637L24.6921 30.8506L29.8662 30.4927L29.8665 27.7618L29.8698 18.164C29.8934 17.614 30.0517 17.0371 30.2682 16.5297C30.3536 16.3296 30.4088 16.3347 30.3321 16.1331L30.1834 15.7349C29.9172 14.9685 29.8647 14.4847 29.8647 13.6954C29.8643 10.5455 31.9797 8.5791 34.686 7.41477C33.4435 5.67276 31.9035 5.46927 30.0867 4.66715L26.5314 2.92888C26.4538 3.46499 26.3059 3.95029 26.1255 4.4594C24.9636 7.73779 21.892 10.3631 18.3342 9.23497C15.6386 8.38026 13.9245 5.57821 13.4526 2.91416ZM35.6864 8.63647C35.0209 8.68724 34.4664 8.96413 33.8965 9.29099C32.4806 10.1031 31.5031 11.1631 31.1927 12.8159C31.0208 13.7318 31.1058 15.4117 31.891 16.0781L31.8959 16.0511C31.9509 15.7589 32.0934 15.4742 32.2459 15.221C33.2493 13.6076 35.7797 11.6997 37.5499 10.7965L36.0606 8.93132C35.9869 8.83283 35.9201 8.72094 35.8285 8.63835L35.6864 8.63647ZM4.11542 8.68898L2.3344 10.7721C3.84846 11.6825 7.01065 13.6668 7.86682 15.2716C7.98978 15.5026 8.08836 15.7555 8.23245 15.9733L8.24192 15.9534C8.36956 15.6898 8.54014 15.4641 8.64673 15.1858C9.18795 13.7723 8.73851 11.8467 7.85112 10.6893C7.02092 9.60651 5.48675 8.77026 4.11542 8.68898ZM1.55618 11.8711C1.5492 12.0187 1.5845 12.1415 1.62537 12.2813L1.67309 12.4219C2.37809 14.2201 5.01307 15.8613 6.9162 16.3033C6.50811 15.2007 4.98771 14.056 4.06268 13.4301L1.92036 12.0538C1.83743 12.0044 1.65776 11.8414 1.55618 11.8711ZM38.2226 11.8711C37.864 12.0658 37.5255 12.3456 37.1803 12.5684C35.8691 13.4151 33.7477 14.7021 33.1881 16.2657L33.2541 16.2691C34.9298 15.8056 37.0249 14.4886 37.9098 12.9216C37.9899 12.7797 38.4319 11.8754 38.2226 11.8711ZM10.1914 31.6055C10.1497 31.6699 10.1583 31.7168 10.1712 31.793L10.3083 32.2273C10.649 33.2161 11.4058 33.4026 12.3244 33.4932L16.5919 33.8168L23.3448 33.8171L25.1254 33.7475C25.5019 33.7241 25.8806 33.677 26.2595 33.6518L26.8074 33.5887C27.6534 33.516 28.7142 33.5724 29.3398 32.9044C29.6156 32.5768 29.7908 32.2103 29.8543 31.7855C29.2991 31.7811 28.7525 31.8881 28.2 31.93L24.8518 32.1423C24.0854 32.1866 23.3082 32.1376 22.5402 32.1586C22.3181 32.1647 22.1012 32.2163 21.8763 32.2206L18.0904 32.2169L13.919 32.0362C13.7694 32.0273 13.6246 31.999 13.4762 31.9875L11.2864 31.7697C10.9246 31.7208 10.5481 31.6811 10.1914 31.6055Z" fill="black"/>
</svg>
