<svg width="38" height="30" viewBox="0 0 38 30" fill="none" xmlns="http://www.w3.org/2000/svg">
<path d="M23.9628 29.4746L23.8048 29.5277C22.5891 29.906 21.3238 29.3076 20.7641 28.1862C20.5362 27.7295 20.4481 27.181 20.3055 26.6913L18.9935 21.9886C18.8725 22.3345 18.7961 22.6876 18.6972 23.0395L17.5963 26.9066C17.4437 27.4212 17.3414 27.9861 17.054 28.4459C16.5312 29.2826 15.4855 29.7988 14.5036 29.5875C13.9397 29.4662 13.3766 29.2358 12.8299 29.0515L3.2891 25.9817C2.14591 25.6289 1.19974 25.1633 0.938927 23.8541C0.813912 23.2269 1.07711 22.5742 1.23143 21.9753L3.6626 11.5882L4.88951 6.00977C4.98832 5.56352 4.97182 5.17286 4.97116 4.71471L4.96863 2.90102C4.96722 1.53199 5.06702 0.509737 6.66157 0.217425C6.92351 0.204768 7.13247 0.251034 7.38682 0.280612L10.3165 0.489112C10.5734 0.502612 10.8252 0.549627 11.0834 0.553659L26.753 0.545362C26.9179 0.538565 27.0756 0.502049 27.2384 0.492346L28.065 0.466893C28.2022 0.460237 28.3349 0.432252 28.4715 0.422034L30.3197 0.276581C30.6861 0.233221 31.0354 0.174815 31.4084 0.212081C32.1229 0.283378 32.7863 0.904049 32.9533 1.5895C33.0455 1.96792 33.0185 2.35694 33.0185 2.74366L33.0193 4.75324C33.0212 5.21032 33.0114 5.614 33.1096 6.05899L33.9071 9.71524C34.0224 10.2148 34.1795 10.7221 34.2644 11.2262L34.6398 12.9262C34.69 13.2273 34.7751 13.5501 34.8521 13.8478L35.0766 14.7426C35.1387 14.9796 35.17 15.2295 35.2259 15.4681L36.0256 18.8725C36.0953 19.2124 36.16 19.5519 36.2506 19.8871L36.4849 20.7777C36.5457 20.9913 36.5693 21.2216 36.6409 21.4325L37.0536 23.0863C37.2414 24.1651 36.5696 25.1843 35.6364 25.6795C35.1754 25.9241 34.6271 26.0114 34.129 26.1588L23.9628 29.4746ZM6.74721 1.71231L6.55671 1.81061C6.3199 1.97402 6.45241 2.59319 6.45204 2.84289L6.45007 4.32236C6.45068 4.61392 6.43961 4.91261 6.46727 5.20277C6.59107 5.26535 6.72785 5.29281 6.85947 5.33641L7.91416 5.64921C8.86858 5.91063 9.81494 6.094 10.797 6.2125L11.8765 6.34164C12.7793 6.40511 13.7033 6.39503 14.6085 6.37811L16.0342 6.2995C16.0783 6.10478 16.0893 5.91185 16.1126 5.71413L16.1972 5.08553C16.2525 4.59292 16.3983 3.75968 17.1447 3.98182C17.4126 4.0615 17.6029 4.23602 17.6895 4.50039L17.7014 4.53353C17.766 4.71982 17.7122 4.8978 17.6885 5.08633L17.5648 6.09836L20.519 6.14838L20.3835 5.15317C20.3524 4.93371 20.3078 4.71874 20.3394 4.49491C20.4401 3.77997 21.521 3.83271 21.7351 4.46524L21.7505 4.49983C21.805 4.62442 21.8021 4.762 21.8219 4.89316L21.9543 5.91836C21.9693 6.05078 21.9672 6.18564 21.9997 6.3153L24.8381 6.38299C25.3001 6.38228 25.7862 6.40839 26.2428 6.33414L26.4709 6.30977C28.0458 6.19703 29.6739 5.86155 31.1482 5.28949C31.2811 5.23793 31.4493 5.22817 31.5607 5.13944L31.558 2.19597C31.5571 1.96 31.4978 1.70299 31.1902 1.71208C30.7364 1.72553 30.2669 1.80471 29.8135 1.84666L27.67 1.9803C27.3636 1.999 27.0564 2.04803 26.7505 2.05746L11.0067 2.05108L9.09776 1.94435C8.93955 1.93572 8.7881 1.9046 8.63163 1.88857L7.13585 1.7538C7.0039 1.73777 6.88136 1.71072 6.74721 1.71231ZM31.7041 6.64492C29.142 7.73153 26.7603 7.88627 24.06 7.87853C23.4481 7.87675 22.8047 7.9091 22.1983 7.83006L22.3812 9.46432C22.4131 9.75461 22.5069 10.0858 22.4592 10.3771C22.3533 11.0239 21.1174 11.2795 20.9599 10.0516L20.7836 8.49475C20.7465 8.20342 20.7351 7.89246 20.6819 7.60581L17.3494 7.57553C17.3124 7.74222 17.3122 7.90877 17.2875 8.07681L17.037 9.89631C16.9753 10.3271 16.9693 10.7531 16.4454 10.8812L16.4081 10.8905C15.1471 11.191 15.6145 9.32458 15.7107 8.69144L15.8173 7.80457C15.3975 7.80457 14.9813 7.85566 14.5613 7.86958L12.3083 7.8678C10.5552 7.82571 7.81408 7.32855 6.2486 6.68439L3.58994 18.5376L2.53896 22.8248C2.49335 23.0027 2.41727 23.1892 2.39341 23.3705C2.25771 24.4012 4.38569 24.7516 5.05844 24.9783L14.2188 27.9422C14.609 28.0826 14.881 28.2185 15.2912 28.0623C16.0844 27.7122 16.1385 26.5912 16.3641 25.8351L18.1636 19.3749C18.2978 18.8537 18.4736 17.9724 19.2818 18.3014C19.434 18.3634 19.6151 18.5233 19.6673 18.6826L19.6893 18.7501C19.7225 18.8367 19.7422 18.9332 19.7596 19.0243L21.8621 26.7331C21.9817 27.1775 22.0933 27.7383 22.5222 27.9914C23.0517 28.3038 23.4804 28.0247 23.9982 27.8538L33.8595 24.6796C34.6759 24.4337 35.8175 24.2686 35.5482 23.0986L35.3502 22.2827L30.8951 23.955C30.3784 24.1483 29.7389 24.3465 29.4806 23.5949C29.2469 22.9146 29.9559 22.7189 30.3907 22.5676L33.5548 21.3767C33.9888 21.2118 34.453 21.0688 34.8675 20.8617C35.025 20.783 34.98 20.7833 34.9422 20.6239L31.7536 6.64839L31.7041 6.64492Z" fill="black"/>
</svg>
