<svg width="40" height="40" viewBox="0 0 40 40" fill="none" xmlns="http://www.w3.org/2000/svg">
<path d="M31.9823 14.7965C31.6991 13.7345 30.8673 12.9027 29.823 12.6195C27.9115 12.1062 20.2832 12.1062 20.2832 12.1062C20.2832 12.1062 12.6372 12.1062 10.7434 12.6195C9.69912 12.9027 8.86726 13.7345 8.58408 14.7965C8.0708 16.708 8.0708 20.708 8.0708 20.708C8.0708 20.708 8.0708 24.708 8.58408 26.6195C8.86726 27.6814 9.69912 28.5133 10.7434 28.7965C12.6549 29.3097 20.2832 29.3098 20.2832 29.3098C20.2832 29.3098 27.9292 29.3097 29.823 28.7965C30.8673 28.5133 31.6991 27.6814 31.9823 26.6195C32.4956 24.708 32.4956 20.708 32.4956 20.708C32.4956 20.708 32.4956 16.708 31.9823 14.7965ZM17.7876 24.3363V17.0797L24.177 20.708L17.7876 24.3363Z" fill="white"/>

</svg>
